<mxfile host="embed.diagrams.net" modified="2023-04-22T18:26:15.495Z" agent="Mozilla/5.0 (Windows NT 10.0; Win64; x64) AppleWebKit/537.36 (KHTML, like Gecko) Chrome/112.0.0.0 Safari/537.36" etag="Hkwnn37uXCfhWzceCbvK" version="21.2.1" type="embed">
  <diagram id="mrX39w_-cD9knwVQQPRD" name="Page-1">
    <mxGraphModel grid="1" page="1" gridSize="10" guides="1" tooltips="1" connect="1" arrows="1" fold="1" pageScale="1" pageWidth="827" pageHeight="1169" math="0" shadow="0">
      <root>
        <mxCell id="0" />
        <mxCell id="1" parent="0" />
        <mxCell id="Qdgy6ZPI5KY39HfYruzL-8" value="" style="group" connectable="0" vertex="1" parent="1">
          <mxGeometry y="570" width="131.88" height="180" as="geometry" />
        </mxCell>
        <mxCell id="Qdgy6ZPI5KY39HfYruzL-1" value="" style="ellipse;whiteSpace=wrap;html=1;aspect=fixed;" vertex="1" parent="Qdgy6ZPI5KY39HfYruzL-8">
          <mxGeometry width="60" height="60" as="geometry" />
        </mxCell>
        <mxCell id="Qdgy6ZPI5KY39HfYruzL-2" value="" style="endArrow=none;html=1;rounded=0;entryX=0;entryY=0;entryDx=0;entryDy=0;exitX=1;exitY=1;exitDx=0;exitDy=0;" edge="1" parent="Qdgy6ZPI5KY39HfYruzL-8" source="Qdgy6ZPI5KY39HfYruzL-1" target="Qdgy6ZPI5KY39HfYruzL-1">
          <mxGeometry width="50" height="50" relative="1" as="geometry">
            <mxPoint x="105" y="-15" as="sourcePoint" />
            <mxPoint x="240" y="22.5" as="targetPoint" />
          </mxGeometry>
        </mxCell>
        <mxCell id="Qdgy6ZPI5KY39HfYruzL-3" value="" style="endArrow=none;html=1;rounded=0;entryX=1;entryY=0;entryDx=0;entryDy=0;exitX=0;exitY=1;exitDx=0;exitDy=0;" edge="1" parent="Qdgy6ZPI5KY39HfYruzL-8" source="Qdgy6ZPI5KY39HfYruzL-1" target="Qdgy6ZPI5KY39HfYruzL-1">
          <mxGeometry width="50" height="50" relative="1" as="geometry">
            <mxPoint x="165" y="45" as="sourcePoint" />
            <mxPoint x="202.5" y="7.5" as="targetPoint" />
          </mxGeometry>
        </mxCell>
        <mxCell id="Qdgy6ZPI5KY39HfYruzL-4" value="0" style="text;html=1;strokeColor=none;fillColor=none;align=center;verticalAlign=middle;whiteSpace=wrap;rounded=0;" vertex="1" parent="Qdgy6ZPI5KY39HfYruzL-8">
          <mxGeometry x="7.5" y="24.375" width="15" height="11.25" as="geometry" />
        </mxCell>
        <mxCell id="Qdgy6ZPI5KY39HfYruzL-5" value="0" style="text;html=1;strokeColor=none;fillColor=none;align=center;verticalAlign=middle;whiteSpace=wrap;rounded=0;" vertex="1" parent="Qdgy6ZPI5KY39HfYruzL-8">
          <mxGeometry x="22.5" y="7.5" width="15" height="11.25" as="geometry" />
        </mxCell>
        <mxCell id="Qdgy6ZPI5KY39HfYruzL-6" value="0" style="text;html=1;strokeColor=none;fillColor=none;align=center;verticalAlign=middle;whiteSpace=wrap;rounded=0;" vertex="1" parent="Qdgy6ZPI5KY39HfYruzL-8">
          <mxGeometry x="22.5" y="39.375" width="15" height="11.25" as="geometry" />
        </mxCell>
        <mxCell id="Qdgy6ZPI5KY39HfYruzL-7" value="0" style="text;html=1;strokeColor=none;fillColor=none;align=center;verticalAlign=middle;whiteSpace=wrap;rounded=0;" vertex="1" parent="Qdgy6ZPI5KY39HfYruzL-8">
          <mxGeometry x="37.5" y="24.375" width="15" height="11.25" as="geometry" />
        </mxCell>
        <mxCell id="Qdgy6ZPI5KY39HfYruzL-14" value="" style="group;rotation=90;" connectable="0" vertex="1" parent="Qdgy6ZPI5KY39HfYruzL-8">
          <mxGeometry x="-71.87" y="140" width="203.75" height="40" as="geometry" />
        </mxCell>
        <mxCell id="Qdgy6ZPI5KY39HfYruzL-15" value="" style="endArrow=classic;html=1;rounded=0;" edge="1" parent="Qdgy6ZPI5KY39HfYruzL-14">
          <mxGeometry width="50" height="50" relative="1" as="geometry">
            <mxPoint x="103" y="-82" as="sourcePoint" />
            <mxPoint x="101" y="122" as="targetPoint" />
          </mxGeometry>
        </mxCell>
        <mxCell id="Qdgy6ZPI5KY39HfYruzL-16" value="A4" style="text;html=1;strokeColor=none;fillColor=none;align=center;verticalAlign=middle;whiteSpace=wrap;rounded=0;fontSize=9;rotation=90;" vertex="1" parent="Qdgy6ZPI5KY39HfYruzL-14">
          <mxGeometry x="79" y="-7" width="58.2142857142857" height="10" as="geometry" />
        </mxCell>
        <mxCell id="Qdgy6ZPI5KY39HfYruzL-17" value="1" style="text;html=1;strokeColor=none;fillColor=none;align=center;verticalAlign=middle;whiteSpace=wrap;rounded=0;fontSize=9;rotation=90;" vertex="1" parent="Qdgy6ZPI5KY39HfYruzL-14">
          <mxGeometry x="68" y="-7" width="58.2142857142857" height="10" as="geometry" />
        </mxCell>
        <mxCell id="Qdgy6ZPI5KY39HfYruzL-12" value="" style="group" connectable="0" vertex="1" parent="1">
          <mxGeometry x="60" y="580" width="50" height="40" as="geometry" />
        </mxCell>
        <mxCell id="Qdgy6ZPI5KY39HfYruzL-9" value="" style="endArrow=classic;html=1;rounded=0;" edge="1" parent="Qdgy6ZPI5KY39HfYruzL-12">
          <mxGeometry width="50" height="50" relative="1" as="geometry">
            <mxPoint y="20" as="sourcePoint" />
            <mxPoint x="50" y="20" as="targetPoint" />
          </mxGeometry>
        </mxCell>
        <mxCell id="Qdgy6ZPI5KY39HfYruzL-10" value="A3" style="text;html=1;strokeColor=none;fillColor=none;align=center;verticalAlign=middle;whiteSpace=wrap;rounded=0;fontSize=9;" vertex="1" parent="Qdgy6ZPI5KY39HfYruzL-12">
          <mxGeometry x="12.499107142857143" y="10" width="14.285714285714283" height="10" as="geometry" />
        </mxCell>
        <mxCell id="Qdgy6ZPI5KY39HfYruzL-11" value="2" style="text;html=1;strokeColor=none;fillColor=none;align=center;verticalAlign=middle;whiteSpace=wrap;rounded=0;fontSize=9;" vertex="1" parent="Qdgy6ZPI5KY39HfYruzL-12">
          <mxGeometry x="12.499107142857143" y="20" width="14.285714285714283" height="10" as="geometry" />
        </mxCell>
        <mxCell id="Qdgy6ZPI5KY39HfYruzL-18" value="" style="group" connectable="0" vertex="1" parent="1">
          <mxGeometry x="110" y="490" width="60" height="60" as="geometry" />
        </mxCell>
        <mxCell id="Qdgy6ZPI5KY39HfYruzL-19" value="" style="ellipse;whiteSpace=wrap;html=1;aspect=fixed;" vertex="1" parent="Qdgy6ZPI5KY39HfYruzL-18">
          <mxGeometry width="60" height="60" as="geometry" />
        </mxCell>
        <mxCell id="Qdgy6ZPI5KY39HfYruzL-20" value="" style="endArrow=none;html=1;rounded=0;entryX=0;entryY=0;entryDx=0;entryDy=0;exitX=1;exitY=1;exitDx=0;exitDy=0;" edge="1" parent="Qdgy6ZPI5KY39HfYruzL-18" source="Qdgy6ZPI5KY39HfYruzL-19" target="Qdgy6ZPI5KY39HfYruzL-19">
          <mxGeometry width="50" height="50" relative="1" as="geometry">
            <mxPoint x="105" y="-15" as="sourcePoint" />
            <mxPoint x="240" y="22.5" as="targetPoint" />
          </mxGeometry>
        </mxCell>
        <mxCell id="Qdgy6ZPI5KY39HfYruzL-21" value="" style="endArrow=none;html=1;rounded=0;entryX=1;entryY=0;entryDx=0;entryDy=0;exitX=0;exitY=1;exitDx=0;exitDy=0;" edge="1" parent="Qdgy6ZPI5KY39HfYruzL-18" source="Qdgy6ZPI5KY39HfYruzL-19" target="Qdgy6ZPI5KY39HfYruzL-19">
          <mxGeometry width="50" height="50" relative="1" as="geometry">
            <mxPoint x="165" y="45" as="sourcePoint" />
            <mxPoint x="202.5" y="7.5" as="targetPoint" />
          </mxGeometry>
        </mxCell>
        <mxCell id="Qdgy6ZPI5KY39HfYruzL-22" value="1" style="text;html=1;strokeColor=none;fillColor=none;align=center;verticalAlign=middle;whiteSpace=wrap;rounded=0;" vertex="1" parent="Qdgy6ZPI5KY39HfYruzL-18">
          <mxGeometry x="7.5" y="24.375" width="15" height="11.25" as="geometry" />
        </mxCell>
        <mxCell id="Qdgy6ZPI5KY39HfYruzL-23" value="2" style="text;html=1;strokeColor=none;fillColor=none;align=center;verticalAlign=middle;whiteSpace=wrap;rounded=0;" vertex="1" parent="Qdgy6ZPI5KY39HfYruzL-18">
          <mxGeometry x="22.5" y="7.5" width="15" height="11.25" as="geometry" />
        </mxCell>
        <mxCell id="Qdgy6ZPI5KY39HfYruzL-24" value="2" style="text;html=1;strokeColor=none;fillColor=none;align=center;verticalAlign=middle;whiteSpace=wrap;rounded=0;" vertex="1" parent="Qdgy6ZPI5KY39HfYruzL-18">
          <mxGeometry x="22.5" y="39.375" width="15" height="11.25" as="geometry" />
        </mxCell>
        <mxCell id="Qdgy6ZPI5KY39HfYruzL-25" value="0" style="text;html=1;strokeColor=none;fillColor=none;align=center;verticalAlign=middle;whiteSpace=wrap;rounded=0;" vertex="1" parent="Qdgy6ZPI5KY39HfYruzL-18">
          <mxGeometry x="37.5" y="24.375" width="15" height="11.25" as="geometry" />
        </mxCell>
        <mxCell id="Qdgy6ZPI5KY39HfYruzL-26" value="" style="group" connectable="0" vertex="1" parent="1">
          <mxGeometry x="110" y="570" width="60" height="60" as="geometry" />
        </mxCell>
        <mxCell id="Qdgy6ZPI5KY39HfYruzL-27" value="" style="ellipse;whiteSpace=wrap;html=1;aspect=fixed;" vertex="1" parent="Qdgy6ZPI5KY39HfYruzL-26">
          <mxGeometry width="60" height="60" as="geometry" />
        </mxCell>
        <mxCell id="Qdgy6ZPI5KY39HfYruzL-28" value="" style="endArrow=none;html=1;rounded=0;entryX=0;entryY=0;entryDx=0;entryDy=0;exitX=1;exitY=1;exitDx=0;exitDy=0;" edge="1" parent="Qdgy6ZPI5KY39HfYruzL-26" source="Qdgy6ZPI5KY39HfYruzL-27" target="Qdgy6ZPI5KY39HfYruzL-27">
          <mxGeometry width="50" height="50" relative="1" as="geometry">
            <mxPoint x="105" y="-15" as="sourcePoint" />
            <mxPoint x="240" y="22.5" as="targetPoint" />
          </mxGeometry>
        </mxCell>
        <mxCell id="Qdgy6ZPI5KY39HfYruzL-29" value="" style="endArrow=none;html=1;rounded=0;entryX=1;entryY=0;entryDx=0;entryDy=0;exitX=0;exitY=1;exitDx=0;exitDy=0;" edge="1" parent="Qdgy6ZPI5KY39HfYruzL-26" source="Qdgy6ZPI5KY39HfYruzL-27" target="Qdgy6ZPI5KY39HfYruzL-27">
          <mxGeometry width="50" height="50" relative="1" as="geometry">
            <mxPoint x="165" y="45" as="sourcePoint" />
            <mxPoint x="202.5" y="7.5" as="targetPoint" />
          </mxGeometry>
        </mxCell>
        <mxCell id="Qdgy6ZPI5KY39HfYruzL-30" value="2" style="text;html=1;strokeColor=none;fillColor=none;align=center;verticalAlign=middle;whiteSpace=wrap;rounded=0;" vertex="1" parent="Qdgy6ZPI5KY39HfYruzL-26">
          <mxGeometry x="7.5" y="24.375" width="15" height="11.25" as="geometry" />
        </mxCell>
        <mxCell id="Qdgy6ZPI5KY39HfYruzL-31" value="3" style="text;html=1;strokeColor=none;fillColor=none;align=center;verticalAlign=middle;whiteSpace=wrap;rounded=0;" vertex="1" parent="Qdgy6ZPI5KY39HfYruzL-26">
          <mxGeometry x="22.5" y="7.5" width="15" height="11.25" as="geometry" />
        </mxCell>
        <mxCell id="Qdgy6ZPI5KY39HfYruzL-32" value="5" style="text;html=1;strokeColor=none;fillColor=none;align=center;verticalAlign=middle;whiteSpace=wrap;rounded=0;" vertex="1" parent="Qdgy6ZPI5KY39HfYruzL-26">
          <mxGeometry x="22.5" y="39.375" width="15" height="11.25" as="geometry" />
        </mxCell>
        <mxCell id="Qdgy6ZPI5KY39HfYruzL-33" value="2" style="text;html=1;strokeColor=none;fillColor=none;align=center;verticalAlign=middle;whiteSpace=wrap;rounded=0;" vertex="1" parent="Qdgy6ZPI5KY39HfYruzL-26">
          <mxGeometry x="37.5" y="24.375" width="15" height="11.25" as="geometry" />
        </mxCell>
        <mxCell id="Qdgy6ZPI5KY39HfYruzL-34" value="" style="group;rotation=-45;" connectable="0" vertex="1" parent="1">
          <mxGeometry x="40" y="530" width="80" height="40" as="geometry" />
        </mxCell>
        <mxCell id="Qdgy6ZPI5KY39HfYruzL-35" value="" style="endArrow=classic;html=1;rounded=0;fillColor=#a20025;strokeColor=#6F0000;" edge="1" parent="Qdgy6ZPI5KY39HfYruzL-34">
          <mxGeometry width="50" height="50" relative="1" as="geometry">
            <mxPoint x="11" y="48" as="sourcePoint" />
            <mxPoint x="69" y="-8" as="targetPoint" />
          </mxGeometry>
        </mxCell>
        <mxCell id="Qdgy6ZPI5KY39HfYruzL-36" value="A1" style="text;html=1;strokeColor=none;fillColor=none;align=center;verticalAlign=middle;whiteSpace=wrap;rounded=0;fontSize=9;rotation=-45;" vertex="1" parent="Qdgy6ZPI5KY39HfYruzL-34">
          <mxGeometry x="19" y="17" width="22.857142857142854" height="10" as="geometry" />
        </mxCell>
        <mxCell id="Qdgy6ZPI5KY39HfYruzL-37" value="2" style="text;html=1;strokeColor=none;fillColor=none;align=center;verticalAlign=middle;whiteSpace=wrap;rounded=0;fontSize=9;rotation=-45;" vertex="1" parent="Qdgy6ZPI5KY39HfYruzL-34">
          <mxGeometry x="26" y="25" width="22.857142857142854" height="10" as="geometry" />
        </mxCell>
        <mxCell id="Qdgy6ZPI5KY39HfYruzL-46" value="" style="group" connectable="0" vertex="1" parent="1">
          <mxGeometry y="830" width="60" height="60" as="geometry" />
        </mxCell>
        <mxCell id="Qdgy6ZPI5KY39HfYruzL-47" value="" style="ellipse;whiteSpace=wrap;html=1;aspect=fixed;" vertex="1" parent="Qdgy6ZPI5KY39HfYruzL-46">
          <mxGeometry width="60" height="60" as="geometry" />
        </mxCell>
        <mxCell id="Qdgy6ZPI5KY39HfYruzL-48" value="" style="endArrow=none;html=1;rounded=0;entryX=0;entryY=0;entryDx=0;entryDy=0;exitX=1;exitY=1;exitDx=0;exitDy=0;" edge="1" parent="Qdgy6ZPI5KY39HfYruzL-46" source="Qdgy6ZPI5KY39HfYruzL-47" target="Qdgy6ZPI5KY39HfYruzL-47">
          <mxGeometry width="50" height="50" relative="1" as="geometry">
            <mxPoint x="105" y="-15" as="sourcePoint" />
            <mxPoint x="240" y="22.5" as="targetPoint" />
          </mxGeometry>
        </mxCell>
        <mxCell id="Qdgy6ZPI5KY39HfYruzL-49" value="" style="endArrow=none;html=1;rounded=0;entryX=1;entryY=0;entryDx=0;entryDy=0;exitX=0;exitY=1;exitDx=0;exitDy=0;" edge="1" parent="Qdgy6ZPI5KY39HfYruzL-46" source="Qdgy6ZPI5KY39HfYruzL-47" target="Qdgy6ZPI5KY39HfYruzL-47">
          <mxGeometry width="50" height="50" relative="1" as="geometry">
            <mxPoint x="165" y="45" as="sourcePoint" />
            <mxPoint x="202.5" y="7.5" as="targetPoint" />
          </mxGeometry>
        </mxCell>
        <mxCell id="Qdgy6ZPI5KY39HfYruzL-50" value="3" style="text;html=1;strokeColor=none;fillColor=none;align=center;verticalAlign=middle;whiteSpace=wrap;rounded=0;" vertex="1" parent="Qdgy6ZPI5KY39HfYruzL-46">
          <mxGeometry x="7.5" y="24.375" width="15" height="11.25" as="geometry" />
        </mxCell>
        <mxCell id="Qdgy6ZPI5KY39HfYruzL-51" value="1" style="text;html=1;strokeColor=none;fillColor=none;align=center;verticalAlign=middle;whiteSpace=wrap;rounded=0;" vertex="1" parent="Qdgy6ZPI5KY39HfYruzL-46">
          <mxGeometry x="22.5" y="7.5" width="15" height="11.25" as="geometry" />
        </mxCell>
        <mxCell id="Qdgy6ZPI5KY39HfYruzL-52" value="36" style="text;html=1;strokeColor=none;fillColor=none;align=center;verticalAlign=middle;whiteSpace=wrap;rounded=0;" vertex="1" parent="Qdgy6ZPI5KY39HfYruzL-46">
          <mxGeometry x="22.5" y="39.375" width="15" height="11.25" as="geometry" />
        </mxCell>
        <mxCell id="Qdgy6ZPI5KY39HfYruzL-53" value="35" style="text;html=1;strokeColor=none;fillColor=none;align=center;verticalAlign=middle;whiteSpace=wrap;rounded=0;" vertex="1" parent="Qdgy6ZPI5KY39HfYruzL-46">
          <mxGeometry x="37.5" y="24.375" width="15" height="11.25" as="geometry" />
        </mxCell>
        <mxCell id="Qdgy6ZPI5KY39HfYruzL-58" value="" style="group" connectable="0" vertex="1" parent="1">
          <mxGeometry x="220" y="410" width="60" height="60" as="geometry" />
        </mxCell>
        <mxCell id="Qdgy6ZPI5KY39HfYruzL-59" value="" style="ellipse;whiteSpace=wrap;html=1;aspect=fixed;" vertex="1" parent="Qdgy6ZPI5KY39HfYruzL-58">
          <mxGeometry width="60" height="60" as="geometry" />
        </mxCell>
        <mxCell id="Qdgy6ZPI5KY39HfYruzL-60" value="" style="endArrow=none;html=1;rounded=0;entryX=0;entryY=0;entryDx=0;entryDy=0;exitX=1;exitY=1;exitDx=0;exitDy=0;" edge="1" parent="Qdgy6ZPI5KY39HfYruzL-58" source="Qdgy6ZPI5KY39HfYruzL-59" target="Qdgy6ZPI5KY39HfYruzL-59">
          <mxGeometry width="50" height="50" relative="1" as="geometry">
            <mxPoint x="105" y="-15" as="sourcePoint" />
            <mxPoint x="240" y="22.5" as="targetPoint" />
          </mxGeometry>
        </mxCell>
        <mxCell id="Qdgy6ZPI5KY39HfYruzL-61" value="" style="endArrow=none;html=1;rounded=0;entryX=1;entryY=0;entryDx=0;entryDy=0;exitX=0;exitY=1;exitDx=0;exitDy=0;" edge="1" parent="Qdgy6ZPI5KY39HfYruzL-58" source="Qdgy6ZPI5KY39HfYruzL-59" target="Qdgy6ZPI5KY39HfYruzL-59">
          <mxGeometry width="50" height="50" relative="1" as="geometry">
            <mxPoint x="165" y="45" as="sourcePoint" />
            <mxPoint x="202.5" y="7.5" as="targetPoint" />
          </mxGeometry>
        </mxCell>
        <mxCell id="Qdgy6ZPI5KY39HfYruzL-62" value="4" style="text;html=1;strokeColor=none;fillColor=none;align=center;verticalAlign=middle;whiteSpace=wrap;rounded=0;" vertex="1" parent="Qdgy6ZPI5KY39HfYruzL-58">
          <mxGeometry x="7.5" y="24.375" width="15" height="11.25" as="geometry" />
        </mxCell>
        <mxCell id="Qdgy6ZPI5KY39HfYruzL-63" value="3" style="text;html=1;strokeColor=none;fillColor=none;align=center;verticalAlign=middle;whiteSpace=wrap;rounded=0;" vertex="1" parent="Qdgy6ZPI5KY39HfYruzL-58">
          <mxGeometry x="22.5" y="7.5" width="15" height="11.25" as="geometry" />
        </mxCell>
        <mxCell id="Qdgy6ZPI5KY39HfYruzL-64" value="3" style="text;html=1;strokeColor=none;fillColor=none;align=center;verticalAlign=middle;whiteSpace=wrap;rounded=0;" vertex="1" parent="Qdgy6ZPI5KY39HfYruzL-58">
          <mxGeometry x="22.5" y="39.375" width="15" height="11.25" as="geometry" />
        </mxCell>
        <mxCell id="Qdgy6ZPI5KY39HfYruzL-65" value="0" style="text;html=1;strokeColor=none;fillColor=none;align=center;verticalAlign=middle;whiteSpace=wrap;rounded=0;" vertex="1" parent="Qdgy6ZPI5KY39HfYruzL-58">
          <mxGeometry x="37.5" y="24.375" width="15" height="11.25" as="geometry" />
        </mxCell>
        <mxCell id="Qdgy6ZPI5KY39HfYruzL-77" value="" style="group" connectable="0" vertex="1" parent="1">
          <mxGeometry x="170" y="580" width="50" height="40" as="geometry" />
        </mxCell>
        <mxCell id="Qdgy6ZPI5KY39HfYruzL-78" value="" style="endArrow=classic;html=1;rounded=0;" edge="1" parent="Qdgy6ZPI5KY39HfYruzL-77">
          <mxGeometry width="50" height="50" relative="1" as="geometry">
            <mxPoint y="20" as="sourcePoint" />
            <mxPoint x="50" y="20" as="targetPoint" />
          </mxGeometry>
        </mxCell>
        <mxCell id="Qdgy6ZPI5KY39HfYruzL-79" value="B4" style="text;html=1;strokeColor=none;fillColor=none;align=center;verticalAlign=middle;whiteSpace=wrap;rounded=0;fontSize=9;" vertex="1" parent="Qdgy6ZPI5KY39HfYruzL-77">
          <mxGeometry x="12.499107142857143" y="10" width="14.285714285714283" height="10" as="geometry" />
        </mxCell>
        <mxCell id="Qdgy6ZPI5KY39HfYruzL-80" value="3" style="text;html=1;strokeColor=none;fillColor=none;align=center;verticalAlign=middle;whiteSpace=wrap;rounded=0;fontSize=9;" vertex="1" parent="Qdgy6ZPI5KY39HfYruzL-77">
          <mxGeometry x="12.499107142857143" y="20" width="14.285714285714283" height="10" as="geometry" />
        </mxCell>
        <mxCell id="Qdgy6ZPI5KY39HfYruzL-81" value="" style="group;rotation=-45;" connectable="0" vertex="1" parent="1">
          <mxGeometry x="150" y="450" width="105" height="70" as="geometry" />
        </mxCell>
        <mxCell id="Qdgy6ZPI5KY39HfYruzL-82" value="" style="endArrow=classic;html=1;rounded=0;fillColor=#a20025;strokeColor=#6F0000;" edge="1" parent="Qdgy6ZPI5KY39HfYruzL-81">
          <mxGeometry width="50" height="50" relative="1" as="geometry">
            <mxPoint x="11" y="48" as="sourcePoint" />
            <mxPoint x="69" y="-8" as="targetPoint" />
          </mxGeometry>
        </mxCell>
        <mxCell id="Qdgy6ZPI5KY39HfYruzL-83" value="A2" style="text;html=1;strokeColor=none;fillColor=none;align=center;verticalAlign=middle;whiteSpace=wrap;rounded=0;fontSize=9;rotation=-45;" vertex="1" parent="Qdgy6ZPI5KY39HfYruzL-81">
          <mxGeometry x="19" y="17" width="22.857142857142854" height="10" as="geometry" />
        </mxCell>
        <mxCell id="Qdgy6ZPI5KY39HfYruzL-84" value="1" style="text;html=1;strokeColor=none;fillColor=none;align=center;verticalAlign=middle;whiteSpace=wrap;rounded=0;fontSize=9;rotation=-45;" vertex="1" parent="Qdgy6ZPI5KY39HfYruzL-81">
          <mxGeometry x="26" y="25" width="22.857142857142854" height="10" as="geometry" />
        </mxCell>
        <mxCell id="Qdgy6ZPI5KY39HfYruzL-85" value="" style="group;rotation=-45;" connectable="0" vertex="1" parent="1">
          <mxGeometry x="150" y="530" width="80" height="40" as="geometry" />
        </mxCell>
        <mxCell id="Qdgy6ZPI5KY39HfYruzL-86" value="" style="endArrow=classic;html=1;rounded=0;" edge="1" parent="Qdgy6ZPI5KY39HfYruzL-85">
          <mxGeometry width="50" height="50" relative="1" as="geometry">
            <mxPoint x="11" y="48" as="sourcePoint" />
            <mxPoint x="69" y="-8" as="targetPoint" />
          </mxGeometry>
        </mxCell>
        <mxCell id="Qdgy6ZPI5KY39HfYruzL-87" value="B1" style="text;html=1;strokeColor=none;fillColor=none;align=center;verticalAlign=middle;whiteSpace=wrap;rounded=0;fontSize=9;rotation=-45;" vertex="1" parent="Qdgy6ZPI5KY39HfYruzL-85">
          <mxGeometry x="19" y="17" width="22.857142857142854" height="10" as="geometry" />
        </mxCell>
        <mxCell id="Qdgy6ZPI5KY39HfYruzL-88" value="3" style="text;html=1;strokeColor=none;fillColor=none;align=center;verticalAlign=middle;whiteSpace=wrap;rounded=0;fontSize=9;rotation=-45;" vertex="1" parent="Qdgy6ZPI5KY39HfYruzL-85">
          <mxGeometry x="26" y="25" width="22.857142857142854" height="10" as="geometry" />
        </mxCell>
        <mxCell id="Qdgy6ZPI5KY39HfYruzL-94" value="" style="group;rotation=45;" connectable="0" vertex="1" parent="1">
          <mxGeometry x="150" y="630" width="80" height="40" as="geometry" />
        </mxCell>
        <mxCell id="Qdgy6ZPI5KY39HfYruzL-95" value="" style="endArrow=classic;html=1;rounded=0;" edge="1" parent="Qdgy6ZPI5KY39HfYruzL-94">
          <mxGeometry width="50" height="50" relative="1" as="geometry">
            <mxPoint x="12" y="-9" as="sourcePoint" />
            <mxPoint x="68" y="49" as="targetPoint" />
          </mxGeometry>
        </mxCell>
        <mxCell id="Qdgy6ZPI5KY39HfYruzL-96" value="B5" style="text;html=1;strokeColor=none;fillColor=none;align=center;verticalAlign=middle;whiteSpace=wrap;rounded=0;fontSize=9;rotation=45;" vertex="1" parent="Qdgy6ZPI5KY39HfYruzL-94">
          <mxGeometry x="27" y="5" width="22.857142857142854" height="10" as="geometry" />
        </mxCell>
        <mxCell id="Qdgy6ZPI5KY39HfYruzL-97" value="4" style="text;html=1;strokeColor=none;fillColor=none;align=center;verticalAlign=middle;whiteSpace=wrap;rounded=0;fontSize=9;rotation=45;" vertex="1" parent="Qdgy6ZPI5KY39HfYruzL-94">
          <mxGeometry x="19" y="12" width="22.857142857142854" height="10" as="geometry" />
        </mxCell>
        <mxCell id="Qdgy6ZPI5KY39HfYruzL-100" value="" style="group" connectable="0" vertex="1" parent="1">
          <mxGeometry x="220" y="490" width="60" height="60" as="geometry" />
        </mxCell>
        <mxCell id="Qdgy6ZPI5KY39HfYruzL-101" value="" style="ellipse;whiteSpace=wrap;html=1;aspect=fixed;" vertex="1" parent="Qdgy6ZPI5KY39HfYruzL-100">
          <mxGeometry width="60" height="60" as="geometry" />
        </mxCell>
        <mxCell id="Qdgy6ZPI5KY39HfYruzL-102" value="" style="endArrow=none;html=1;rounded=0;entryX=0;entryY=0;entryDx=0;entryDy=0;exitX=1;exitY=1;exitDx=0;exitDy=0;" edge="1" parent="Qdgy6ZPI5KY39HfYruzL-100" source="Qdgy6ZPI5KY39HfYruzL-101" target="Qdgy6ZPI5KY39HfYruzL-101">
          <mxGeometry width="50" height="50" relative="1" as="geometry">
            <mxPoint x="105" y="-15" as="sourcePoint" />
            <mxPoint x="240" y="22.5" as="targetPoint" />
          </mxGeometry>
        </mxCell>
        <mxCell id="Qdgy6ZPI5KY39HfYruzL-103" value="" style="endArrow=none;html=1;rounded=0;entryX=1;entryY=0;entryDx=0;entryDy=0;exitX=0;exitY=1;exitDx=0;exitDy=0;" edge="1" parent="Qdgy6ZPI5KY39HfYruzL-100" source="Qdgy6ZPI5KY39HfYruzL-101" target="Qdgy6ZPI5KY39HfYruzL-101">
          <mxGeometry width="50" height="50" relative="1" as="geometry">
            <mxPoint x="165" y="45" as="sourcePoint" />
            <mxPoint x="202.5" y="7.5" as="targetPoint" />
          </mxGeometry>
        </mxCell>
        <mxCell id="Qdgy6ZPI5KY39HfYruzL-104" value="5" style="text;html=1;strokeColor=none;fillColor=none;align=center;verticalAlign=middle;whiteSpace=wrap;rounded=0;" vertex="1" parent="Qdgy6ZPI5KY39HfYruzL-100">
          <mxGeometry x="7.5" y="24.375" width="15" height="11.25" as="geometry" />
        </mxCell>
        <mxCell id="Qdgy6ZPI5KY39HfYruzL-105" value="6" style="text;html=1;strokeColor=none;fillColor=none;align=center;verticalAlign=middle;whiteSpace=wrap;rounded=0;" vertex="1" parent="Qdgy6ZPI5KY39HfYruzL-100">
          <mxGeometry x="22.5" y="7.5" width="15" height="11.25" as="geometry" />
        </mxCell>
        <mxCell id="Qdgy6ZPI5KY39HfYruzL-106" value="8" style="text;html=1;strokeColor=none;fillColor=none;align=center;verticalAlign=middle;whiteSpace=wrap;rounded=0;" vertex="1" parent="Qdgy6ZPI5KY39HfYruzL-100">
          <mxGeometry x="22.5" y="39.375" width="15" height="11.25" as="geometry" />
        </mxCell>
        <mxCell id="Qdgy6ZPI5KY39HfYruzL-107" value="2" style="text;html=1;strokeColor=none;fillColor=none;align=center;verticalAlign=middle;whiteSpace=wrap;rounded=0;" vertex="1" parent="Qdgy6ZPI5KY39HfYruzL-100">
          <mxGeometry x="37.5" y="24.375" width="15" height="11.25" as="geometry" />
        </mxCell>
        <mxCell id="Qdgy6ZPI5KY39HfYruzL-108" value="" style="group" connectable="0" vertex="1" parent="1">
          <mxGeometry x="220" y="570" width="60" height="60" as="geometry" />
        </mxCell>
        <mxCell id="Qdgy6ZPI5KY39HfYruzL-109" value="" style="ellipse;whiteSpace=wrap;html=1;aspect=fixed;" vertex="1" parent="Qdgy6ZPI5KY39HfYruzL-108">
          <mxGeometry width="60" height="60" as="geometry" />
        </mxCell>
        <mxCell id="Qdgy6ZPI5KY39HfYruzL-110" value="" style="endArrow=none;html=1;rounded=0;entryX=0;entryY=0;entryDx=0;entryDy=0;exitX=1;exitY=1;exitDx=0;exitDy=0;" edge="1" parent="Qdgy6ZPI5KY39HfYruzL-108" source="Qdgy6ZPI5KY39HfYruzL-109" target="Qdgy6ZPI5KY39HfYruzL-109">
          <mxGeometry width="50" height="50" relative="1" as="geometry">
            <mxPoint x="105" y="-15" as="sourcePoint" />
            <mxPoint x="240" y="22.5" as="targetPoint" />
          </mxGeometry>
        </mxCell>
        <mxCell id="Qdgy6ZPI5KY39HfYruzL-111" value="" style="endArrow=none;html=1;rounded=0;entryX=1;entryY=0;entryDx=0;entryDy=0;exitX=0;exitY=1;exitDx=0;exitDy=0;" edge="1" parent="Qdgy6ZPI5KY39HfYruzL-108" source="Qdgy6ZPI5KY39HfYruzL-109" target="Qdgy6ZPI5KY39HfYruzL-109">
          <mxGeometry width="50" height="50" relative="1" as="geometry">
            <mxPoint x="165" y="45" as="sourcePoint" />
            <mxPoint x="202.5" y="7.5" as="targetPoint" />
          </mxGeometry>
        </mxCell>
        <mxCell id="Qdgy6ZPI5KY39HfYruzL-112" value="6" style="text;html=1;strokeColor=none;fillColor=none;align=center;verticalAlign=middle;whiteSpace=wrap;rounded=0;" vertex="1" parent="Qdgy6ZPI5KY39HfYruzL-108">
          <mxGeometry x="7.5" y="24.375" width="15" height="11.25" as="geometry" />
        </mxCell>
        <mxCell id="Qdgy6ZPI5KY39HfYruzL-113" value="8" style="text;html=1;strokeColor=none;fillColor=none;align=center;verticalAlign=middle;whiteSpace=wrap;rounded=0;" vertex="1" parent="Qdgy6ZPI5KY39HfYruzL-108">
          <mxGeometry x="22.5" y="7.5" width="15" height="11.25" as="geometry" />
        </mxCell>
        <mxCell id="Qdgy6ZPI5KY39HfYruzL-114" value="8" style="text;html=1;strokeColor=none;fillColor=none;align=center;verticalAlign=middle;whiteSpace=wrap;rounded=0;" vertex="1" parent="Qdgy6ZPI5KY39HfYruzL-108">
          <mxGeometry x="22.5" y="39.375" width="15" height="11.25" as="geometry" />
        </mxCell>
        <mxCell id="Qdgy6ZPI5KY39HfYruzL-115" value="0" style="text;html=1;strokeColor=none;fillColor=none;align=center;verticalAlign=middle;whiteSpace=wrap;rounded=0;" vertex="1" parent="Qdgy6ZPI5KY39HfYruzL-108">
          <mxGeometry x="37.5" y="24.375" width="15" height="11.25" as="geometry" />
        </mxCell>
        <mxCell id="Qdgy6ZPI5KY39HfYruzL-116" value="" style="group" connectable="0" vertex="1" parent="1">
          <mxGeometry x="220" y="650" width="60" height="60" as="geometry" />
        </mxCell>
        <mxCell id="Qdgy6ZPI5KY39HfYruzL-117" value="" style="ellipse;whiteSpace=wrap;html=1;aspect=fixed;" vertex="1" parent="Qdgy6ZPI5KY39HfYruzL-116">
          <mxGeometry width="60" height="60" as="geometry" />
        </mxCell>
        <mxCell id="Qdgy6ZPI5KY39HfYruzL-118" value="" style="endArrow=none;html=1;rounded=0;entryX=0;entryY=0;entryDx=0;entryDy=0;exitX=1;exitY=1;exitDx=0;exitDy=0;" edge="1" parent="Qdgy6ZPI5KY39HfYruzL-116" source="Qdgy6ZPI5KY39HfYruzL-117" target="Qdgy6ZPI5KY39HfYruzL-117">
          <mxGeometry width="50" height="50" relative="1" as="geometry">
            <mxPoint x="105" y="-15" as="sourcePoint" />
            <mxPoint x="240" y="22.5" as="targetPoint" />
          </mxGeometry>
        </mxCell>
        <mxCell id="Qdgy6ZPI5KY39HfYruzL-119" value="" style="endArrow=none;html=1;rounded=0;entryX=1;entryY=0;entryDx=0;entryDy=0;exitX=0;exitY=1;exitDx=0;exitDy=0;" edge="1" parent="Qdgy6ZPI5KY39HfYruzL-116" source="Qdgy6ZPI5KY39HfYruzL-117" target="Qdgy6ZPI5KY39HfYruzL-117">
          <mxGeometry width="50" height="50" relative="1" as="geometry">
            <mxPoint x="165" y="45" as="sourcePoint" />
            <mxPoint x="202.5" y="7.5" as="targetPoint" />
          </mxGeometry>
        </mxCell>
        <mxCell id="Qdgy6ZPI5KY39HfYruzL-120" value="7" style="text;html=1;strokeColor=none;fillColor=none;align=center;verticalAlign=middle;whiteSpace=wrap;rounded=0;" vertex="1" parent="Qdgy6ZPI5KY39HfYruzL-116">
          <mxGeometry x="7.5" y="24.375" width="15" height="11.25" as="geometry" />
        </mxCell>
        <mxCell id="Qdgy6ZPI5KY39HfYruzL-121" value="7" style="text;html=1;strokeColor=none;fillColor=none;align=center;verticalAlign=middle;whiteSpace=wrap;rounded=0;" vertex="1" parent="Qdgy6ZPI5KY39HfYruzL-116">
          <mxGeometry x="22.5" y="7.5" width="15" height="11.25" as="geometry" />
        </mxCell>
        <mxCell id="Qdgy6ZPI5KY39HfYruzL-122" value="18" style="text;html=1;strokeColor=none;fillColor=none;align=center;verticalAlign=middle;whiteSpace=wrap;rounded=0;" vertex="1" parent="Qdgy6ZPI5KY39HfYruzL-116">
          <mxGeometry x="22.5" y="39.375" width="15" height="11.25" as="geometry" />
        </mxCell>
        <mxCell id="Qdgy6ZPI5KY39HfYruzL-123" value="11" style="text;html=1;strokeColor=none;fillColor=none;align=center;verticalAlign=middle;whiteSpace=wrap;rounded=0;" vertex="1" parent="Qdgy6ZPI5KY39HfYruzL-116">
          <mxGeometry x="37.5" y="24.375" width="15" height="11.25" as="geometry" />
        </mxCell>
        <mxCell id="Qdgy6ZPI5KY39HfYruzL-124" value="" style="group" connectable="0" vertex="1" parent="1">
          <mxGeometry x="280" y="420" width="50" height="40" as="geometry" />
        </mxCell>
        <mxCell id="Qdgy6ZPI5KY39HfYruzL-125" value="" style="endArrow=classic;html=1;rounded=0;fillColor=#a20025;strokeColor=#6F0000;" edge="1" parent="Qdgy6ZPI5KY39HfYruzL-124">
          <mxGeometry width="50" height="50" relative="1" as="geometry">
            <mxPoint y="20" as="sourcePoint" />
            <mxPoint x="50" y="20" as="targetPoint" />
          </mxGeometry>
        </mxCell>
        <mxCell id="Qdgy6ZPI5KY39HfYruzL-126" value="B2" style="text;html=1;strokeColor=none;fillColor=none;align=center;verticalAlign=middle;whiteSpace=wrap;rounded=0;fontSize=9;" vertex="1" parent="Qdgy6ZPI5KY39HfYruzL-124">
          <mxGeometry x="12.499107142857143" y="10" width="14.285714285714283" height="10" as="geometry" />
        </mxCell>
        <mxCell id="Qdgy6ZPI5KY39HfYruzL-127" value="2" style="text;html=1;strokeColor=none;fillColor=none;align=center;verticalAlign=middle;whiteSpace=wrap;rounded=0;fontSize=9;" vertex="1" parent="Qdgy6ZPI5KY39HfYruzL-124">
          <mxGeometry x="12.499107142857143" y="20" width="14.285714285714283" height="10" as="geometry" />
        </mxCell>
        <mxCell id="Qdgy6ZPI5KY39HfYruzL-128" value="" style="group" connectable="0" vertex="1" parent="1">
          <mxGeometry x="330" y="410" width="60" height="60" as="geometry" />
        </mxCell>
        <mxCell id="Qdgy6ZPI5KY39HfYruzL-129" value="" style="ellipse;whiteSpace=wrap;html=1;aspect=fixed;" vertex="1" parent="Qdgy6ZPI5KY39HfYruzL-128">
          <mxGeometry width="60" height="60" as="geometry" />
        </mxCell>
        <mxCell id="Qdgy6ZPI5KY39HfYruzL-130" value="" style="endArrow=none;html=1;rounded=0;entryX=0;entryY=0;entryDx=0;entryDy=0;exitX=1;exitY=1;exitDx=0;exitDy=0;" edge="1" parent="Qdgy6ZPI5KY39HfYruzL-128" source="Qdgy6ZPI5KY39HfYruzL-129" target="Qdgy6ZPI5KY39HfYruzL-129">
          <mxGeometry width="50" height="50" relative="1" as="geometry">
            <mxPoint x="105" y="-15" as="sourcePoint" />
            <mxPoint x="240" y="22.5" as="targetPoint" />
          </mxGeometry>
        </mxCell>
        <mxCell id="Qdgy6ZPI5KY39HfYruzL-131" value="" style="endArrow=none;html=1;rounded=0;entryX=1;entryY=0;entryDx=0;entryDy=0;exitX=0;exitY=1;exitDx=0;exitDy=0;" edge="1" parent="Qdgy6ZPI5KY39HfYruzL-128" source="Qdgy6ZPI5KY39HfYruzL-129" target="Qdgy6ZPI5KY39HfYruzL-129">
          <mxGeometry width="50" height="50" relative="1" as="geometry">
            <mxPoint x="165" y="45" as="sourcePoint" />
            <mxPoint x="202.5" y="7.5" as="targetPoint" />
          </mxGeometry>
        </mxCell>
        <mxCell id="Qdgy6ZPI5KY39HfYruzL-132" value="8" style="text;html=1;strokeColor=none;fillColor=none;align=center;verticalAlign=middle;whiteSpace=wrap;rounded=0;" vertex="1" parent="Qdgy6ZPI5KY39HfYruzL-128">
          <mxGeometry x="7.5" y="24.375" width="15" height="11.25" as="geometry" />
        </mxCell>
        <mxCell id="Qdgy6ZPI5KY39HfYruzL-133" value="5" style="text;html=1;strokeColor=none;fillColor=none;align=center;verticalAlign=middle;whiteSpace=wrap;rounded=0;" vertex="1" parent="Qdgy6ZPI5KY39HfYruzL-128">
          <mxGeometry x="22.5" y="7.5" width="15" height="11.25" as="geometry" />
        </mxCell>
        <mxCell id="Qdgy6ZPI5KY39HfYruzL-134" value="5" style="text;html=1;strokeColor=none;fillColor=none;align=center;verticalAlign=middle;whiteSpace=wrap;rounded=0;" vertex="1" parent="Qdgy6ZPI5KY39HfYruzL-128">
          <mxGeometry x="22.5" y="39.375" width="15" height="11.25" as="geometry" />
        </mxCell>
        <mxCell id="Qdgy6ZPI5KY39HfYruzL-135" value="0" style="text;html=1;strokeColor=none;fillColor=none;align=center;verticalAlign=middle;whiteSpace=wrap;rounded=0;" vertex="1" parent="Qdgy6ZPI5KY39HfYruzL-128">
          <mxGeometry x="37.5" y="24.375" width="15" height="11.25" as="geometry" />
        </mxCell>
        <mxCell id="Qdgy6ZPI5KY39HfYruzL-136" value="" style="group" connectable="0" vertex="1" parent="1">
          <mxGeometry x="390" y="420" width="50" height="40" as="geometry" />
        </mxCell>
        <mxCell id="Qdgy6ZPI5KY39HfYruzL-137" value="" style="endArrow=classic;html=1;rounded=0;fillColor=#a20025;strokeColor=#6F0000;" edge="1" parent="Qdgy6ZPI5KY39HfYruzL-136">
          <mxGeometry width="50" height="50" relative="1" as="geometry">
            <mxPoint y="20" as="sourcePoint" />
            <mxPoint x="50" y="20" as="targetPoint" />
          </mxGeometry>
        </mxCell>
        <mxCell id="Qdgy6ZPI5KY39HfYruzL-138" value="B3" style="text;html=1;strokeColor=none;fillColor=none;align=center;verticalAlign=middle;whiteSpace=wrap;rounded=0;fontSize=9;" vertex="1" parent="Qdgy6ZPI5KY39HfYruzL-136">
          <mxGeometry x="12.499107142857143" y="10" width="14.285714285714283" height="10" as="geometry" />
        </mxCell>
        <mxCell id="Qdgy6ZPI5KY39HfYruzL-139" value="3" style="text;html=1;strokeColor=none;fillColor=none;align=center;verticalAlign=middle;whiteSpace=wrap;rounded=0;fontSize=9;" vertex="1" parent="Qdgy6ZPI5KY39HfYruzL-136">
          <mxGeometry x="12.499107142857143" y="20" width="14.285714285714283" height="10" as="geometry" />
        </mxCell>
        <mxCell id="Qdgy6ZPI5KY39HfYruzL-141" value="" style="group" connectable="0" vertex="1" parent="1">
          <mxGeometry x="440" y="410" width="60" height="60" as="geometry" />
        </mxCell>
        <mxCell id="Qdgy6ZPI5KY39HfYruzL-142" value="" style="ellipse;whiteSpace=wrap;html=1;aspect=fixed;" vertex="1" parent="Qdgy6ZPI5KY39HfYruzL-141">
          <mxGeometry width="60" height="60" as="geometry" />
        </mxCell>
        <mxCell id="Qdgy6ZPI5KY39HfYruzL-143" value="" style="endArrow=none;html=1;rounded=0;entryX=0;entryY=0;entryDx=0;entryDy=0;exitX=1;exitY=1;exitDx=0;exitDy=0;" edge="1" parent="Qdgy6ZPI5KY39HfYruzL-141" source="Qdgy6ZPI5KY39HfYruzL-142" target="Qdgy6ZPI5KY39HfYruzL-142">
          <mxGeometry width="50" height="50" relative="1" as="geometry">
            <mxPoint x="105" y="-15" as="sourcePoint" />
            <mxPoint x="240" y="22.5" as="targetPoint" />
          </mxGeometry>
        </mxCell>
        <mxCell id="Qdgy6ZPI5KY39HfYruzL-144" value="" style="endArrow=none;html=1;rounded=0;entryX=1;entryY=0;entryDx=0;entryDy=0;exitX=0;exitY=1;exitDx=0;exitDy=0;" edge="1" parent="Qdgy6ZPI5KY39HfYruzL-141" source="Qdgy6ZPI5KY39HfYruzL-142" target="Qdgy6ZPI5KY39HfYruzL-142">
          <mxGeometry width="50" height="50" relative="1" as="geometry">
            <mxPoint x="165" y="45" as="sourcePoint" />
            <mxPoint x="202.5" y="7.5" as="targetPoint" />
          </mxGeometry>
        </mxCell>
        <mxCell id="Qdgy6ZPI5KY39HfYruzL-145" value="13" style="text;html=1;strokeColor=none;fillColor=none;align=center;verticalAlign=middle;whiteSpace=wrap;rounded=0;" vertex="1" parent="Qdgy6ZPI5KY39HfYruzL-141">
          <mxGeometry x="7.5" y="24.375" width="15" height="11.25" as="geometry" />
        </mxCell>
        <mxCell id="Qdgy6ZPI5KY39HfYruzL-146" value="8" style="text;html=1;strokeColor=none;fillColor=none;align=center;verticalAlign=middle;whiteSpace=wrap;rounded=0;" vertex="1" parent="Qdgy6ZPI5KY39HfYruzL-141">
          <mxGeometry x="22.5" y="7.5" width="15" height="11.25" as="geometry" />
        </mxCell>
        <mxCell id="Qdgy6ZPI5KY39HfYruzL-147" value="8" style="text;html=1;strokeColor=none;fillColor=none;align=center;verticalAlign=middle;whiteSpace=wrap;rounded=0;" vertex="1" parent="Qdgy6ZPI5KY39HfYruzL-141">
          <mxGeometry x="22.5" y="39.375" width="15" height="11.25" as="geometry" />
        </mxCell>
        <mxCell id="Qdgy6ZPI5KY39HfYruzL-148" value="0" style="text;html=1;strokeColor=none;fillColor=none;align=center;verticalAlign=middle;whiteSpace=wrap;rounded=0;" vertex="1" parent="Qdgy6ZPI5KY39HfYruzL-141">
          <mxGeometry x="37.5" y="24.375" width="15" height="11.25" as="geometry" />
        </mxCell>
        <mxCell id="Qdgy6ZPI5KY39HfYruzL-153" value="" style="group;rotation=45;fontStyle=1" connectable="0" vertex="1" parent="1">
          <mxGeometry x="260" y="710" width="80" height="40" as="geometry" />
        </mxCell>
        <mxCell id="Qdgy6ZPI5KY39HfYruzL-154" value="" style="endArrow=classic;html=1;rounded=0;" edge="1" parent="Qdgy6ZPI5KY39HfYruzL-153">
          <mxGeometry width="50" height="50" relative="1" as="geometry">
            <mxPoint x="12" y="-9" as="sourcePoint" />
            <mxPoint x="68" y="49" as="targetPoint" />
          </mxGeometry>
        </mxCell>
        <mxCell id="Qdgy6ZPI5KY39HfYruzL-155" value="C4" style="text;html=1;strokeColor=none;fillColor=none;align=center;verticalAlign=middle;whiteSpace=wrap;rounded=0;fontSize=9;rotation=45;" vertex="1" parent="Qdgy6ZPI5KY39HfYruzL-153">
          <mxGeometry x="27" y="5" width="22.857142857142854" height="10" as="geometry" />
        </mxCell>
        <mxCell id="Qdgy6ZPI5KY39HfYruzL-156" value="5" style="text;html=1;strokeColor=none;fillColor=none;align=center;verticalAlign=middle;whiteSpace=wrap;rounded=0;fontSize=9;rotation=45;" vertex="1" parent="Qdgy6ZPI5KY39HfYruzL-153">
          <mxGeometry x="19" y="12" width="22.857142857142854" height="10" as="geometry" />
        </mxCell>
        <mxCell id="Qdgy6ZPI5KY39HfYruzL-157" value="" style="group" connectable="0" vertex="1" parent="1">
          <mxGeometry x="330" y="730" width="60" height="60" as="geometry" />
        </mxCell>
        <mxCell id="Qdgy6ZPI5KY39HfYruzL-158" value="" style="ellipse;whiteSpace=wrap;html=1;aspect=fixed;" vertex="1" parent="Qdgy6ZPI5KY39HfYruzL-157">
          <mxGeometry width="60" height="60" as="geometry" />
        </mxCell>
        <mxCell id="Qdgy6ZPI5KY39HfYruzL-159" value="" style="endArrow=none;html=1;rounded=0;entryX=0;entryY=0;entryDx=0;entryDy=0;exitX=1;exitY=1;exitDx=0;exitDy=0;" edge="1" parent="Qdgy6ZPI5KY39HfYruzL-157" source="Qdgy6ZPI5KY39HfYruzL-158" target="Qdgy6ZPI5KY39HfYruzL-158">
          <mxGeometry width="50" height="50" relative="1" as="geometry">
            <mxPoint x="105" y="-15" as="sourcePoint" />
            <mxPoint x="240" y="22.5" as="targetPoint" />
          </mxGeometry>
        </mxCell>
        <mxCell id="Qdgy6ZPI5KY39HfYruzL-160" value="" style="endArrow=none;html=1;rounded=0;entryX=1;entryY=0;entryDx=0;entryDy=0;exitX=0;exitY=1;exitDx=0;exitDy=0;" edge="1" parent="Qdgy6ZPI5KY39HfYruzL-157" source="Qdgy6ZPI5KY39HfYruzL-158" target="Qdgy6ZPI5KY39HfYruzL-158">
          <mxGeometry width="50" height="50" relative="1" as="geometry">
            <mxPoint x="165" y="45" as="sourcePoint" />
            <mxPoint x="202.5" y="7.5" as="targetPoint" />
          </mxGeometry>
        </mxCell>
        <mxCell id="Qdgy6ZPI5KY39HfYruzL-161" value="12" style="text;html=1;strokeColor=none;fillColor=none;align=center;verticalAlign=middle;whiteSpace=wrap;rounded=0;" vertex="1" parent="Qdgy6ZPI5KY39HfYruzL-157">
          <mxGeometry x="7.5" y="24.375" width="15" height="11.25" as="geometry" />
        </mxCell>
        <mxCell id="Qdgy6ZPI5KY39HfYruzL-162" value="12" style="text;html=1;strokeColor=none;fillColor=none;align=center;verticalAlign=middle;whiteSpace=wrap;rounded=0;" vertex="1" parent="Qdgy6ZPI5KY39HfYruzL-157">
          <mxGeometry x="22.5" y="7.5" width="15" height="11.25" as="geometry" />
        </mxCell>
        <mxCell id="Qdgy6ZPI5KY39HfYruzL-163" value="23" style="text;html=1;strokeColor=none;fillColor=none;align=center;verticalAlign=middle;whiteSpace=wrap;rounded=0;" vertex="1" parent="Qdgy6ZPI5KY39HfYruzL-157">
          <mxGeometry x="22.5" y="39.375" width="15" height="11.25" as="geometry" />
        </mxCell>
        <mxCell id="Qdgy6ZPI5KY39HfYruzL-164" value="11" style="text;html=1;strokeColor=none;fillColor=none;align=center;verticalAlign=middle;whiteSpace=wrap;rounded=0;" vertex="1" parent="Qdgy6ZPI5KY39HfYruzL-157">
          <mxGeometry x="37.5" y="24.375" width="15" height="11.25" as="geometry" />
        </mxCell>
        <mxCell id="Qdgy6ZPI5KY39HfYruzL-165" value="" style="group" connectable="0" vertex="1" parent="1">
          <mxGeometry x="330" y="650" width="60" height="60" as="geometry" />
        </mxCell>
        <mxCell id="Qdgy6ZPI5KY39HfYruzL-166" value="" style="ellipse;whiteSpace=wrap;html=1;aspect=fixed;" vertex="1" parent="Qdgy6ZPI5KY39HfYruzL-165">
          <mxGeometry width="60" height="60" as="geometry" />
        </mxCell>
        <mxCell id="Qdgy6ZPI5KY39HfYruzL-167" value="" style="endArrow=none;html=1;rounded=0;entryX=0;entryY=0;entryDx=0;entryDy=0;exitX=1;exitY=1;exitDx=0;exitDy=0;" edge="1" parent="Qdgy6ZPI5KY39HfYruzL-165" source="Qdgy6ZPI5KY39HfYruzL-166" target="Qdgy6ZPI5KY39HfYruzL-166">
          <mxGeometry width="50" height="50" relative="1" as="geometry">
            <mxPoint x="105" y="-15" as="sourcePoint" />
            <mxPoint x="240" y="22.5" as="targetPoint" />
          </mxGeometry>
        </mxCell>
        <mxCell id="Qdgy6ZPI5KY39HfYruzL-168" value="" style="endArrow=none;html=1;rounded=0;entryX=1;entryY=0;entryDx=0;entryDy=0;exitX=0;exitY=1;exitDx=0;exitDy=0;" edge="1" parent="Qdgy6ZPI5KY39HfYruzL-165" source="Qdgy6ZPI5KY39HfYruzL-166" target="Qdgy6ZPI5KY39HfYruzL-166">
          <mxGeometry width="50" height="50" relative="1" as="geometry">
            <mxPoint x="165" y="45" as="sourcePoint" />
            <mxPoint x="202.5" y="7.5" as="targetPoint" />
          </mxGeometry>
        </mxCell>
        <mxCell id="Qdgy6ZPI5KY39HfYruzL-169" value="11" style="text;html=1;strokeColor=none;fillColor=none;align=center;verticalAlign=middle;whiteSpace=wrap;rounded=0;" vertex="1" parent="Qdgy6ZPI5KY39HfYruzL-165">
          <mxGeometry x="7.5" y="24.375" width="15" height="11.25" as="geometry" />
        </mxCell>
        <mxCell id="Qdgy6ZPI5KY39HfYruzL-170" value="9" style="text;html=1;strokeColor=none;fillColor=none;align=center;verticalAlign=middle;whiteSpace=wrap;rounded=0;" vertex="1" parent="Qdgy6ZPI5KY39HfYruzL-165">
          <mxGeometry x="22.5" y="7.5" width="15" height="11.25" as="geometry" />
        </mxCell>
        <mxCell id="Qdgy6ZPI5KY39HfYruzL-171" value="23" style="text;html=1;strokeColor=none;fillColor=none;align=center;verticalAlign=middle;whiteSpace=wrap;rounded=0;" vertex="1" parent="Qdgy6ZPI5KY39HfYruzL-165">
          <mxGeometry x="22.5" y="39.375" width="15" height="11.25" as="geometry" />
        </mxCell>
        <mxCell id="Qdgy6ZPI5KY39HfYruzL-172" value="14" style="text;html=1;strokeColor=none;fillColor=none;align=center;verticalAlign=middle;whiteSpace=wrap;rounded=0;" vertex="1" parent="Qdgy6ZPI5KY39HfYruzL-165">
          <mxGeometry x="37.5" y="24.375" width="15" height="11.25" as="geometry" />
        </mxCell>
        <mxCell id="Qdgy6ZPI5KY39HfYruzL-177" value="" style="group" connectable="0" vertex="1" parent="1">
          <mxGeometry x="280" y="660" width="50" height="40" as="geometry" />
        </mxCell>
        <mxCell id="Qdgy6ZPI5KY39HfYruzL-178" value="" style="endArrow=classic;html=1;rounded=0;" edge="1" parent="Qdgy6ZPI5KY39HfYruzL-177">
          <mxGeometry width="50" height="50" relative="1" as="geometry">
            <mxPoint y="20" as="sourcePoint" />
            <mxPoint x="50" y="20" as="targetPoint" />
          </mxGeometry>
        </mxCell>
        <mxCell id="Qdgy6ZPI5KY39HfYruzL-179" value="C3" style="text;html=1;strokeColor=none;fillColor=none;align=center;verticalAlign=middle;whiteSpace=wrap;rounded=0;fontSize=9;" vertex="1" parent="Qdgy6ZPI5KY39HfYruzL-177">
          <mxGeometry x="12.499107142857143" y="10" width="14.285714285714283" height="10" as="geometry" />
        </mxCell>
        <mxCell id="Qdgy6ZPI5KY39HfYruzL-180" value="2" style="text;html=1;strokeColor=none;fillColor=none;align=center;verticalAlign=middle;whiteSpace=wrap;rounded=0;fontSize=9;" vertex="1" parent="Qdgy6ZPI5KY39HfYruzL-177">
          <mxGeometry x="12.499107142857143" y="20" width="14.285714285714283" height="10" as="geometry" />
        </mxCell>
        <mxCell id="Qdgy6ZPI5KY39HfYruzL-193" value="" style="endArrow=block;dashed=1;endFill=0;endSize=12;html=1;rounded=0;entryX=0.5;entryY=0;entryDx=0;entryDy=0;exitX=0.5;exitY=1;exitDx=0;exitDy=0;" edge="1" parent="1" source="Qdgy6ZPI5KY39HfYruzL-101" target="Qdgy6ZPI5KY39HfYruzL-109">
          <mxGeometry width="160" relative="1" as="geometry">
            <mxPoint x="280" y="560" as="sourcePoint" />
            <mxPoint x="440" y="560" as="targetPoint" />
          </mxGeometry>
        </mxCell>
        <mxCell id="Qdgy6ZPI5KY39HfYruzL-195" value="" style="endArrow=block;dashed=1;endFill=0;endSize=12;html=1;rounded=0;exitX=0;exitY=0.5;exitDx=0;exitDy=0;fillColor=#a20025;strokeColor=#6F0000;" edge="1" parent="1" source="Qdgy6ZPI5KY39HfYruzL-142">
          <mxGeometry width="160" relative="1" as="geometry">
            <mxPoint x="440" y="450" as="sourcePoint" />
            <mxPoint x="260" y="570" as="targetPoint" />
            <Array as="points">
              <mxPoint x="320" y="500" />
            </Array>
          </mxGeometry>
        </mxCell>
        <mxCell id="Qdgy6ZPI5KY39HfYruzL-196" value="" style="group" connectable="0" vertex="1" parent="1">
          <mxGeometry x="280" y="580" width="50" height="40" as="geometry" />
        </mxCell>
        <mxCell id="Qdgy6ZPI5KY39HfYruzL-197" value="" style="endArrow=classic;html=1;rounded=0;" edge="1" parent="Qdgy6ZPI5KY39HfYruzL-196">
          <mxGeometry width="50" height="50" relative="1" as="geometry">
            <mxPoint y="20" as="sourcePoint" />
            <mxPoint x="50" y="20" as="targetPoint" />
          </mxGeometry>
        </mxCell>
        <mxCell id="Qdgy6ZPI5KY39HfYruzL-198" value="C13" style="text;html=1;strokeColor=none;fillColor=none;align=center;verticalAlign=middle;whiteSpace=wrap;rounded=0;fontSize=9;" vertex="1" parent="Qdgy6ZPI5KY39HfYruzL-196">
          <mxGeometry x="12.499107142857143" y="10" width="14.285714285714283" height="10" as="geometry" />
        </mxCell>
        <mxCell id="Qdgy6ZPI5KY39HfYruzL-199" value="1" style="text;html=1;strokeColor=none;fillColor=none;align=center;verticalAlign=middle;whiteSpace=wrap;rounded=0;fontSize=9;" vertex="1" parent="Qdgy6ZPI5KY39HfYruzL-196">
          <mxGeometry x="12.499107142857143" y="20" width="14.285714285714283" height="10" as="geometry" />
        </mxCell>
        <mxCell id="Qdgy6ZPI5KY39HfYruzL-213" value="" style="group;rotation=-45;" connectable="0" vertex="1" parent="1">
          <mxGeometry x="260" y="530" width="80" height="40" as="geometry" />
        </mxCell>
        <mxCell id="Qdgy6ZPI5KY39HfYruzL-214" value="" style="endArrow=classic;html=1;rounded=0;fillColor=#a20025;strokeColor=#6F0000;" edge="1" parent="Qdgy6ZPI5KY39HfYruzL-213">
          <mxGeometry width="50" height="50" relative="1" as="geometry">
            <mxPoint x="11" y="48" as="sourcePoint" />
            <mxPoint x="69" y="-8" as="targetPoint" />
          </mxGeometry>
        </mxCell>
        <mxCell id="Qdgy6ZPI5KY39HfYruzL-215" value="C9" style="text;html=1;strokeColor=none;fillColor=none;align=center;verticalAlign=middle;whiteSpace=wrap;rounded=0;fontSize=9;rotation=-45;" vertex="1" parent="Qdgy6ZPI5KY39HfYruzL-213">
          <mxGeometry x="19" y="17" width="22.857142857142854" height="10" as="geometry" />
        </mxCell>
        <mxCell id="Qdgy6ZPI5KY39HfYruzL-216" value="3" style="text;html=1;strokeColor=none;fillColor=none;align=center;verticalAlign=middle;whiteSpace=wrap;rounded=0;fontSize=9;rotation=-45;" vertex="1" parent="Qdgy6ZPI5KY39HfYruzL-213">
          <mxGeometry x="26" y="25" width="22.857142857142854" height="10" as="geometry" />
        </mxCell>
        <mxCell id="Qdgy6ZPI5KY39HfYruzL-217" value="" style="group" connectable="0" vertex="1" parent="1">
          <mxGeometry x="330" y="490" width="60" height="60" as="geometry" />
        </mxCell>
        <mxCell id="Qdgy6ZPI5KY39HfYruzL-218" value="" style="ellipse;whiteSpace=wrap;html=1;aspect=fixed;" vertex="1" parent="Qdgy6ZPI5KY39HfYruzL-217">
          <mxGeometry width="60" height="60" as="geometry" />
        </mxCell>
        <mxCell id="Qdgy6ZPI5KY39HfYruzL-219" value="" style="endArrow=none;html=1;rounded=0;entryX=0;entryY=0;entryDx=0;entryDy=0;exitX=1;exitY=1;exitDx=0;exitDy=0;" edge="1" parent="Qdgy6ZPI5KY39HfYruzL-217" source="Qdgy6ZPI5KY39HfYruzL-218" target="Qdgy6ZPI5KY39HfYruzL-218">
          <mxGeometry width="50" height="50" relative="1" as="geometry">
            <mxPoint x="105" y="-15" as="sourcePoint" />
            <mxPoint x="240" y="22.5" as="targetPoint" />
          </mxGeometry>
        </mxCell>
        <mxCell id="Qdgy6ZPI5KY39HfYruzL-220" value="" style="endArrow=none;html=1;rounded=0;entryX=1;entryY=0;entryDx=0;entryDy=0;exitX=0;exitY=1;exitDx=0;exitDy=0;" edge="1" parent="Qdgy6ZPI5KY39HfYruzL-217" source="Qdgy6ZPI5KY39HfYruzL-218" target="Qdgy6ZPI5KY39HfYruzL-218">
          <mxGeometry width="50" height="50" relative="1" as="geometry">
            <mxPoint x="165" y="45" as="sourcePoint" />
            <mxPoint x="202.5" y="7.5" as="targetPoint" />
          </mxGeometry>
        </mxCell>
        <mxCell id="Qdgy6ZPI5KY39HfYruzL-221" value="9" style="text;html=1;strokeColor=none;fillColor=none;align=center;verticalAlign=middle;whiteSpace=wrap;rounded=0;" vertex="1" parent="Qdgy6ZPI5KY39HfYruzL-217">
          <mxGeometry x="7.5" y="24.375" width="15" height="11.25" as="geometry" />
        </mxCell>
        <mxCell id="Qdgy6ZPI5KY39HfYruzL-222" value="11" style="text;html=1;strokeColor=none;fillColor=none;align=center;verticalAlign=middle;whiteSpace=wrap;rounded=0;" vertex="1" parent="Qdgy6ZPI5KY39HfYruzL-217">
          <mxGeometry x="22.5" y="7.5" width="15" height="11.25" as="geometry" />
        </mxCell>
        <mxCell id="Qdgy6ZPI5KY39HfYruzL-223" value="11" style="text;html=1;strokeColor=none;fillColor=none;align=center;verticalAlign=middle;whiteSpace=wrap;rounded=0;" vertex="1" parent="Qdgy6ZPI5KY39HfYruzL-217">
          <mxGeometry x="22.5" y="39.375" width="15" height="11.25" as="geometry" />
        </mxCell>
        <mxCell id="Qdgy6ZPI5KY39HfYruzL-224" value="0" style="text;html=1;strokeColor=none;fillColor=none;align=center;verticalAlign=middle;whiteSpace=wrap;rounded=0;" vertex="1" parent="Qdgy6ZPI5KY39HfYruzL-217">
          <mxGeometry x="37.5" y="24.375" width="15" height="11.25" as="geometry" />
        </mxCell>
        <mxCell id="Qdgy6ZPI5KY39HfYruzL-226" value="" style="group" connectable="0" vertex="1" parent="1">
          <mxGeometry x="330" y="570" width="60" height="60" as="geometry" />
        </mxCell>
        <mxCell id="Qdgy6ZPI5KY39HfYruzL-227" value="" style="ellipse;whiteSpace=wrap;html=1;aspect=fixed;" vertex="1" parent="Qdgy6ZPI5KY39HfYruzL-226">
          <mxGeometry width="60" height="60" as="geometry" />
        </mxCell>
        <mxCell id="Qdgy6ZPI5KY39HfYruzL-228" value="" style="endArrow=none;html=1;rounded=0;entryX=0;entryY=0;entryDx=0;entryDy=0;exitX=1;exitY=1;exitDx=0;exitDy=0;" edge="1" parent="Qdgy6ZPI5KY39HfYruzL-226" source="Qdgy6ZPI5KY39HfYruzL-227" target="Qdgy6ZPI5KY39HfYruzL-227">
          <mxGeometry width="50" height="50" relative="1" as="geometry">
            <mxPoint x="105" y="-15" as="sourcePoint" />
            <mxPoint x="240" y="22.5" as="targetPoint" />
          </mxGeometry>
        </mxCell>
        <mxCell id="Qdgy6ZPI5KY39HfYruzL-229" value="" style="endArrow=none;html=1;rounded=0;entryX=1;entryY=0;entryDx=0;entryDy=0;exitX=0;exitY=1;exitDx=0;exitDy=0;" edge="1" parent="Qdgy6ZPI5KY39HfYruzL-226" source="Qdgy6ZPI5KY39HfYruzL-227" target="Qdgy6ZPI5KY39HfYruzL-227">
          <mxGeometry width="50" height="50" relative="1" as="geometry">
            <mxPoint x="165" y="45" as="sourcePoint" />
            <mxPoint x="202.5" y="7.5" as="targetPoint" />
          </mxGeometry>
        </mxCell>
        <mxCell id="Qdgy6ZPI5KY39HfYruzL-230" value="10" style="text;html=1;strokeColor=none;fillColor=none;align=center;verticalAlign=middle;whiteSpace=wrap;rounded=0;" vertex="1" parent="Qdgy6ZPI5KY39HfYruzL-226">
          <mxGeometry x="7.5" y="24.375" width="15" height="11.25" as="geometry" />
        </mxCell>
        <mxCell id="Qdgy6ZPI5KY39HfYruzL-231" value="9" style="text;html=1;strokeColor=none;fillColor=none;align=center;verticalAlign=middle;whiteSpace=wrap;rounded=0;" vertex="1" parent="Qdgy6ZPI5KY39HfYruzL-226">
          <mxGeometry x="22.5" y="7.5" width="15" height="11.25" as="geometry" />
        </mxCell>
        <mxCell id="Qdgy6ZPI5KY39HfYruzL-232" value="15" style="text;html=1;strokeColor=none;fillColor=none;align=center;verticalAlign=middle;whiteSpace=wrap;rounded=0;" vertex="1" parent="Qdgy6ZPI5KY39HfYruzL-226">
          <mxGeometry x="22.5" y="39.375" width="15" height="11.25" as="geometry" />
        </mxCell>
        <mxCell id="Qdgy6ZPI5KY39HfYruzL-233" value="6" style="text;html=1;strokeColor=none;fillColor=none;align=center;verticalAlign=middle;whiteSpace=wrap;rounded=0;" vertex="1" parent="Qdgy6ZPI5KY39HfYruzL-226">
          <mxGeometry x="37.5" y="24.375" width="15" height="11.25" as="geometry" />
        </mxCell>
        <mxCell id="Qdgy6ZPI5KY39HfYruzL-234" value="" style="group" connectable="0" vertex="1" parent="1">
          <mxGeometry x="389" y="500" width="50" height="40" as="geometry" />
        </mxCell>
        <mxCell id="Qdgy6ZPI5KY39HfYruzL-235" value="" style="endArrow=classic;html=1;rounded=0;fillColor=#a20025;strokeColor=#6F0000;" edge="1" parent="Qdgy6ZPI5KY39HfYruzL-234">
          <mxGeometry width="50" height="50" relative="1" as="geometry">
            <mxPoint y="20" as="sourcePoint" />
            <mxPoint x="50" y="20" as="targetPoint" />
          </mxGeometry>
        </mxCell>
        <mxCell id="Qdgy6ZPI5KY39HfYruzL-236" value="C10" style="text;html=1;strokeColor=none;fillColor=none;align=center;verticalAlign=middle;whiteSpace=wrap;rounded=0;fontSize=9;" vertex="1" parent="Qdgy6ZPI5KY39HfYruzL-234">
          <mxGeometry x="12.499107142857143" y="10" width="14.285714285714283" height="10" as="geometry" />
        </mxCell>
        <mxCell id="Qdgy6ZPI5KY39HfYruzL-237" value="1" style="text;html=1;strokeColor=none;fillColor=none;align=center;verticalAlign=middle;whiteSpace=wrap;rounded=0;fontSize=9;" vertex="1" parent="Qdgy6ZPI5KY39HfYruzL-234">
          <mxGeometry x="12.499107142857143" y="20" width="14.285714285714283" height="10" as="geometry" />
        </mxCell>
        <mxCell id="Qdgy6ZPI5KY39HfYruzL-238" value="" style="group" connectable="0" vertex="1" parent="1">
          <mxGeometry x="389" y="580" width="50" height="40" as="geometry" />
        </mxCell>
        <mxCell id="Qdgy6ZPI5KY39HfYruzL-239" value="" style="endArrow=classic;html=1;rounded=0;" edge="1" parent="Qdgy6ZPI5KY39HfYruzL-238">
          <mxGeometry width="50" height="50" relative="1" as="geometry">
            <mxPoint y="20" as="sourcePoint" />
            <mxPoint x="50" y="20" as="targetPoint" />
          </mxGeometry>
        </mxCell>
        <mxCell id="Qdgy6ZPI5KY39HfYruzL-240" value="C14" style="text;html=1;strokeColor=none;fillColor=none;align=center;verticalAlign=middle;whiteSpace=wrap;rounded=0;fontSize=9;" vertex="1" parent="Qdgy6ZPI5KY39HfYruzL-238">
          <mxGeometry x="12.499107142857143" y="10" width="14.285714285714283" height="10" as="geometry" />
        </mxCell>
        <mxCell id="Qdgy6ZPI5KY39HfYruzL-241" value="3" style="text;html=1;strokeColor=none;fillColor=none;align=center;verticalAlign=middle;whiteSpace=wrap;rounded=0;fontSize=9;" vertex="1" parent="Qdgy6ZPI5KY39HfYruzL-238">
          <mxGeometry x="12.499107142857143" y="20" width="14.285714285714283" height="10" as="geometry" />
        </mxCell>
        <mxCell id="Qdgy6ZPI5KY39HfYruzL-244" value="" style="group" connectable="0" vertex="1" parent="1">
          <mxGeometry x="439" y="490" width="60" height="60" as="geometry" />
        </mxCell>
        <mxCell id="Qdgy6ZPI5KY39HfYruzL-245" value="" style="ellipse;whiteSpace=wrap;html=1;aspect=fixed;" vertex="1" parent="Qdgy6ZPI5KY39HfYruzL-244">
          <mxGeometry width="60" height="60" as="geometry" />
        </mxCell>
        <mxCell id="Qdgy6ZPI5KY39HfYruzL-246" value="" style="endArrow=none;html=1;rounded=0;entryX=0;entryY=0;entryDx=0;entryDy=0;exitX=1;exitY=1;exitDx=0;exitDy=0;" edge="1" parent="Qdgy6ZPI5KY39HfYruzL-244" source="Qdgy6ZPI5KY39HfYruzL-245" target="Qdgy6ZPI5KY39HfYruzL-245">
          <mxGeometry width="50" height="50" relative="1" as="geometry">
            <mxPoint x="105" y="-15" as="sourcePoint" />
            <mxPoint x="240" y="22.5" as="targetPoint" />
          </mxGeometry>
        </mxCell>
        <mxCell id="Qdgy6ZPI5KY39HfYruzL-247" value="" style="endArrow=none;html=1;rounded=0;entryX=1;entryY=0;entryDx=0;entryDy=0;exitX=0;exitY=1;exitDx=0;exitDy=0;" edge="1" parent="Qdgy6ZPI5KY39HfYruzL-244" source="Qdgy6ZPI5KY39HfYruzL-245" target="Qdgy6ZPI5KY39HfYruzL-245">
          <mxGeometry width="50" height="50" relative="1" as="geometry">
            <mxPoint x="165" y="45" as="sourcePoint" />
            <mxPoint x="202.5" y="7.5" as="targetPoint" />
          </mxGeometry>
        </mxCell>
        <mxCell id="Qdgy6ZPI5KY39HfYruzL-248" value="14" style="text;html=1;strokeColor=none;fillColor=none;align=center;verticalAlign=middle;whiteSpace=wrap;rounded=0;" vertex="1" parent="Qdgy6ZPI5KY39HfYruzL-244">
          <mxGeometry x="7.5" y="24.375" width="15" height="11.25" as="geometry" />
        </mxCell>
        <mxCell id="Qdgy6ZPI5KY39HfYruzL-249" value="12" style="text;html=1;strokeColor=none;fillColor=none;align=center;verticalAlign=middle;whiteSpace=wrap;rounded=0;" vertex="1" parent="Qdgy6ZPI5KY39HfYruzL-244">
          <mxGeometry x="22.5" y="7.5" width="15" height="11.25" as="geometry" />
        </mxCell>
        <mxCell id="Qdgy6ZPI5KY39HfYruzL-250" value="12" style="text;html=1;strokeColor=none;fillColor=none;align=center;verticalAlign=middle;whiteSpace=wrap;rounded=0;" vertex="1" parent="Qdgy6ZPI5KY39HfYruzL-244">
          <mxGeometry x="22.5" y="39.375" width="15" height="11.25" as="geometry" />
        </mxCell>
        <mxCell id="Qdgy6ZPI5KY39HfYruzL-251" value="0" style="text;html=1;strokeColor=none;fillColor=none;align=center;verticalAlign=middle;whiteSpace=wrap;rounded=0;" vertex="1" parent="Qdgy6ZPI5KY39HfYruzL-244">
          <mxGeometry x="37.5" y="24.375" width="15" height="11.25" as="geometry" />
        </mxCell>
        <mxCell id="Qdgy6ZPI5KY39HfYruzL-253" value="" style="group" connectable="0" vertex="1" parent="1">
          <mxGeometry x="439" y="570" width="60" height="60" as="geometry" />
        </mxCell>
        <mxCell id="Qdgy6ZPI5KY39HfYruzL-254" value="" style="ellipse;whiteSpace=wrap;html=1;aspect=fixed;" vertex="1" parent="Qdgy6ZPI5KY39HfYruzL-253">
          <mxGeometry width="60" height="60" as="geometry" />
        </mxCell>
        <mxCell id="Qdgy6ZPI5KY39HfYruzL-255" value="" style="endArrow=none;html=1;rounded=0;entryX=0;entryY=0;entryDx=0;entryDy=0;exitX=1;exitY=1;exitDx=0;exitDy=0;" edge="1" parent="Qdgy6ZPI5KY39HfYruzL-253" source="Qdgy6ZPI5KY39HfYruzL-254" target="Qdgy6ZPI5KY39HfYruzL-254">
          <mxGeometry width="50" height="50" relative="1" as="geometry">
            <mxPoint x="105" y="-15" as="sourcePoint" />
            <mxPoint x="240" y="22.5" as="targetPoint" />
          </mxGeometry>
        </mxCell>
        <mxCell id="Qdgy6ZPI5KY39HfYruzL-256" value="" style="endArrow=none;html=1;rounded=0;entryX=1;entryY=0;entryDx=0;entryDy=0;exitX=0;exitY=1;exitDx=0;exitDy=0;" edge="1" parent="Qdgy6ZPI5KY39HfYruzL-253" source="Qdgy6ZPI5KY39HfYruzL-254" target="Qdgy6ZPI5KY39HfYruzL-254">
          <mxGeometry width="50" height="50" relative="1" as="geometry">
            <mxPoint x="165" y="45" as="sourcePoint" />
            <mxPoint x="202.5" y="7.5" as="targetPoint" />
          </mxGeometry>
        </mxCell>
        <mxCell id="Qdgy6ZPI5KY39HfYruzL-257" value="15" style="text;html=1;strokeColor=none;fillColor=none;align=center;verticalAlign=middle;whiteSpace=wrap;rounded=0;" vertex="1" parent="Qdgy6ZPI5KY39HfYruzL-253">
          <mxGeometry x="7.5" y="24.375" width="15" height="11.25" as="geometry" />
        </mxCell>
        <mxCell id="Qdgy6ZPI5KY39HfYruzL-258" value="12" style="text;html=1;strokeColor=none;fillColor=none;align=center;verticalAlign=middle;whiteSpace=wrap;rounded=0;" vertex="1" parent="Qdgy6ZPI5KY39HfYruzL-253">
          <mxGeometry x="22.5" y="7.5" width="15" height="11.25" as="geometry" />
        </mxCell>
        <mxCell id="Qdgy6ZPI5KY39HfYruzL-259" value="18" style="text;html=1;strokeColor=none;fillColor=none;align=center;verticalAlign=middle;whiteSpace=wrap;rounded=0;" vertex="1" parent="Qdgy6ZPI5KY39HfYruzL-253">
          <mxGeometry x="22.5" y="39.375" width="15" height="11.25" as="geometry" />
        </mxCell>
        <mxCell id="Qdgy6ZPI5KY39HfYruzL-260" value="6" style="text;html=1;strokeColor=none;fillColor=none;align=center;verticalAlign=middle;whiteSpace=wrap;rounded=0;" vertex="1" parent="Qdgy6ZPI5KY39HfYruzL-253">
          <mxGeometry x="37.5" y="24.375" width="15" height="11.25" as="geometry" />
        </mxCell>
        <mxCell id="Qdgy6ZPI5KY39HfYruzL-261" value="" style="endArrow=block;dashed=1;endFill=0;endSize=12;html=1;rounded=0;entryX=0.5;entryY=0;entryDx=0;entryDy=0;exitX=0.5;exitY=1;exitDx=0;exitDy=0;" edge="1" parent="1" source="Qdgy6ZPI5KY39HfYruzL-166" target="Qdgy6ZPI5KY39HfYruzL-158">
          <mxGeometry width="160" relative="1" as="geometry">
            <mxPoint x="260" y="560" as="sourcePoint" />
            <mxPoint x="260" y="580" as="targetPoint" />
          </mxGeometry>
        </mxCell>
        <mxCell id="Qdgy6ZPI5KY39HfYruzL-263" value="" style="group;rotation=-45;" connectable="0" vertex="1" parent="1">
          <mxGeometry x="480" y="450" width="80" height="40" as="geometry" />
        </mxCell>
        <mxCell id="Qdgy6ZPI5KY39HfYruzL-264" value="" style="endArrow=classic;html=1;rounded=0;fillColor=#a20025;strokeColor=#6F0000;" edge="1" parent="Qdgy6ZPI5KY39HfYruzL-263">
          <mxGeometry width="50" height="50" relative="1" as="geometry">
            <mxPoint x="11" y="48" as="sourcePoint" />
            <mxPoint x="69" y="-8" as="targetPoint" />
          </mxGeometry>
        </mxCell>
        <mxCell id="Qdgy6ZPI5KY39HfYruzL-265" value="C11" style="text;html=1;strokeColor=none;fillColor=none;align=center;verticalAlign=middle;whiteSpace=wrap;rounded=0;fontSize=9;rotation=-45;" vertex="1" parent="Qdgy6ZPI5KY39HfYruzL-263">
          <mxGeometry x="19" y="17" width="22.857142857142854" height="10" as="geometry" />
        </mxCell>
        <mxCell id="Qdgy6ZPI5KY39HfYruzL-266" value="2" style="text;html=1;strokeColor=none;fillColor=none;align=center;verticalAlign=middle;whiteSpace=wrap;rounded=0;fontSize=9;rotation=-45;" vertex="1" parent="Qdgy6ZPI5KY39HfYruzL-263">
          <mxGeometry x="26" y="25" width="22.857142857142854" height="10" as="geometry" />
        </mxCell>
        <mxCell id="Qdgy6ZPI5KY39HfYruzL-267" value="" style="group;rotation=-45;" connectable="0" vertex="1" parent="1">
          <mxGeometry x="480" y="530" width="80" height="40" as="geometry" />
        </mxCell>
        <mxCell id="Qdgy6ZPI5KY39HfYruzL-268" value="" style="endArrow=classic;html=1;rounded=0;" edge="1" parent="Qdgy6ZPI5KY39HfYruzL-267">
          <mxGeometry width="50" height="50" relative="1" as="geometry">
            <mxPoint x="11" y="48" as="sourcePoint" />
            <mxPoint x="69" y="-8" as="targetPoint" />
          </mxGeometry>
        </mxCell>
        <mxCell id="Qdgy6ZPI5KY39HfYruzL-269" value="C1" style="text;html=1;strokeColor=none;fillColor=none;align=center;verticalAlign=middle;whiteSpace=wrap;rounded=0;fontSize=9;rotation=-45;" vertex="1" parent="Qdgy6ZPI5KY39HfYruzL-267">
          <mxGeometry x="19" y="17" width="22.857142857142854" height="10" as="geometry" />
        </mxCell>
        <mxCell id="Qdgy6ZPI5KY39HfYruzL-270" value="1" style="text;html=1;strokeColor=none;fillColor=none;align=center;verticalAlign=middle;whiteSpace=wrap;rounded=0;fontSize=9;rotation=-45;" vertex="1" parent="Qdgy6ZPI5KY39HfYruzL-267">
          <mxGeometry x="26" y="25" width="22.857142857142854" height="10" as="geometry" />
        </mxCell>
        <mxCell id="Qdgy6ZPI5KY39HfYruzL-271" value="" style="group" connectable="0" vertex="1" parent="1">
          <mxGeometry x="500" y="580" width="50" height="40" as="geometry" />
        </mxCell>
        <mxCell id="Qdgy6ZPI5KY39HfYruzL-272" value="" style="endArrow=classic;html=1;rounded=0;" edge="1" parent="Qdgy6ZPI5KY39HfYruzL-271">
          <mxGeometry width="50" height="50" relative="1" as="geometry">
            <mxPoint y="20" as="sourcePoint" />
            <mxPoint x="50" y="20" as="targetPoint" />
          </mxGeometry>
        </mxCell>
        <mxCell id="Qdgy6ZPI5KY39HfYruzL-273" value="C17" style="text;html=1;strokeColor=none;fillColor=none;align=center;verticalAlign=middle;whiteSpace=wrap;rounded=0;fontSize=9;" vertex="1" parent="Qdgy6ZPI5KY39HfYruzL-271">
          <mxGeometry x="12.499107142857143" y="10" width="14.285714285714283" height="10" as="geometry" />
        </mxCell>
        <mxCell id="Qdgy6ZPI5KY39HfYruzL-274" value="2" style="text;html=1;strokeColor=none;fillColor=none;align=center;verticalAlign=middle;whiteSpace=wrap;rounded=0;fontSize=9;" vertex="1" parent="Qdgy6ZPI5KY39HfYruzL-271">
          <mxGeometry x="12.499107142857143" y="20" width="14.285714285714283" height="10" as="geometry" />
        </mxCell>
        <mxCell id="Qdgy6ZPI5KY39HfYruzL-275" value="" style="group;rotation=45;fontStyle=1" connectable="0" vertex="1" parent="1">
          <mxGeometry x="480" y="630" width="80" height="40" as="geometry" />
        </mxCell>
        <mxCell id="Qdgy6ZPI5KY39HfYruzL-276" value="" style="endArrow=classic;html=1;rounded=0;" edge="1" parent="Qdgy6ZPI5KY39HfYruzL-275">
          <mxGeometry width="50" height="50" relative="1" as="geometry">
            <mxPoint x="12" y="-9" as="sourcePoint" />
            <mxPoint x="68" y="49" as="targetPoint" />
          </mxGeometry>
        </mxCell>
        <mxCell id="Qdgy6ZPI5KY39HfYruzL-277" value="C18" style="text;html=1;strokeColor=none;fillColor=none;align=center;verticalAlign=middle;whiteSpace=wrap;rounded=0;fontSize=9;rotation=45;" vertex="1" parent="Qdgy6ZPI5KY39HfYruzL-275">
          <mxGeometry x="27" y="5" width="22.857142857142854" height="10" as="geometry" />
        </mxCell>
        <mxCell id="Qdgy6ZPI5KY39HfYruzL-278" value="1" style="text;html=1;strokeColor=none;fillColor=none;align=center;verticalAlign=middle;whiteSpace=wrap;rounded=0;fontSize=9;rotation=45;" vertex="1" parent="Qdgy6ZPI5KY39HfYruzL-275">
          <mxGeometry x="19" y="12" width="22.857142857142854" height="10" as="geometry" />
        </mxCell>
        <mxCell id="Qdgy6ZPI5KY39HfYruzL-280" value="" style="group" connectable="0" vertex="1" parent="1">
          <mxGeometry x="388" y="740" width="222" height="40" as="geometry" />
        </mxCell>
        <mxCell id="Qdgy6ZPI5KY39HfYruzL-281" value="" style="endArrow=classic;html=1;rounded=0;" edge="1" parent="Qdgy6ZPI5KY39HfYruzL-280">
          <mxGeometry width="50" height="50" relative="1" as="geometry">
            <mxPoint y="20" as="sourcePoint" />
            <mxPoint x="222.00000000000003" y="20" as="targetPoint" />
          </mxGeometry>
        </mxCell>
        <mxCell id="Qdgy6ZPI5KY39HfYruzL-282" value="C5" style="text;html=1;strokeColor=none;fillColor=none;align=center;verticalAlign=middle;whiteSpace=wrap;rounded=0;fontSize=9;" vertex="1" parent="Qdgy6ZPI5KY39HfYruzL-280">
          <mxGeometry x="55.496035714285725" y="10" width="63.42857142857142" height="10" as="geometry" />
        </mxCell>
        <mxCell id="Qdgy6ZPI5KY39HfYruzL-283" value="2" style="text;html=1;strokeColor=none;fillColor=none;align=center;verticalAlign=middle;whiteSpace=wrap;rounded=0;fontSize=9;" vertex="1" parent="Qdgy6ZPI5KY39HfYruzL-280">
          <mxGeometry x="55.496035714285725" y="20" width="63.42857142857142" height="10" as="geometry" />
        </mxCell>
        <mxCell id="Qdgy6ZPI5KY39HfYruzL-284" value="" style="group" connectable="0" vertex="1" parent="1">
          <mxGeometry x="610" y="730" width="60" height="60" as="geometry" />
        </mxCell>
        <mxCell id="Qdgy6ZPI5KY39HfYruzL-285" value="" style="ellipse;whiteSpace=wrap;html=1;aspect=fixed;" vertex="1" parent="Qdgy6ZPI5KY39HfYruzL-284">
          <mxGeometry width="60" height="60" as="geometry" />
        </mxCell>
        <mxCell id="Qdgy6ZPI5KY39HfYruzL-286" value="" style="endArrow=none;html=1;rounded=0;entryX=0;entryY=0;entryDx=0;entryDy=0;exitX=1;exitY=1;exitDx=0;exitDy=0;" edge="1" parent="Qdgy6ZPI5KY39HfYruzL-284" source="Qdgy6ZPI5KY39HfYruzL-285" target="Qdgy6ZPI5KY39HfYruzL-285">
          <mxGeometry width="50" height="50" relative="1" as="geometry">
            <mxPoint x="105" y="-15" as="sourcePoint" />
            <mxPoint x="240" y="22.5" as="targetPoint" />
          </mxGeometry>
        </mxCell>
        <mxCell id="Qdgy6ZPI5KY39HfYruzL-287" value="" style="endArrow=none;html=1;rounded=0;entryX=1;entryY=0;entryDx=0;entryDy=0;exitX=0;exitY=1;exitDx=0;exitDy=0;" edge="1" parent="Qdgy6ZPI5KY39HfYruzL-284" source="Qdgy6ZPI5KY39HfYruzL-285" target="Qdgy6ZPI5KY39HfYruzL-285">
          <mxGeometry width="50" height="50" relative="1" as="geometry">
            <mxPoint x="165" y="45" as="sourcePoint" />
            <mxPoint x="202.5" y="7.5" as="targetPoint" />
          </mxGeometry>
        </mxCell>
        <mxCell id="Qdgy6ZPI5KY39HfYruzL-288" value="20" style="text;html=1;strokeColor=none;fillColor=none;align=center;verticalAlign=middle;whiteSpace=wrap;rounded=0;" vertex="1" parent="Qdgy6ZPI5KY39HfYruzL-284">
          <mxGeometry x="7.5" y="24.375" width="15" height="11.25" as="geometry" />
        </mxCell>
        <mxCell id="Qdgy6ZPI5KY39HfYruzL-289" value="14" style="text;html=1;strokeColor=none;fillColor=none;align=center;verticalAlign=middle;whiteSpace=wrap;rounded=0;" vertex="1" parent="Qdgy6ZPI5KY39HfYruzL-284">
          <mxGeometry x="22.5" y="7.5" width="15" height="11.25" as="geometry" />
        </mxCell>
        <mxCell id="Qdgy6ZPI5KY39HfYruzL-290" value="25" style="text;html=1;strokeColor=none;fillColor=none;align=center;verticalAlign=middle;whiteSpace=wrap;rounded=0;" vertex="1" parent="Qdgy6ZPI5KY39HfYruzL-284">
          <mxGeometry x="22.5" y="39.375" width="15" height="11.25" as="geometry" />
        </mxCell>
        <mxCell id="Qdgy6ZPI5KY39HfYruzL-291" value="11" style="text;html=1;strokeColor=none;fillColor=none;align=center;verticalAlign=middle;whiteSpace=wrap;rounded=0;" vertex="1" parent="Qdgy6ZPI5KY39HfYruzL-284">
          <mxGeometry x="37.5" y="24.375" width="15" height="11.25" as="geometry" />
        </mxCell>
        <mxCell id="Qdgy6ZPI5KY39HfYruzL-292" value="" style="group" connectable="0" vertex="1" parent="1">
          <mxGeometry x="550" y="410" width="60" height="60" as="geometry" />
        </mxCell>
        <mxCell id="Qdgy6ZPI5KY39HfYruzL-293" value="" style="ellipse;whiteSpace=wrap;html=1;aspect=fixed;" vertex="1" parent="Qdgy6ZPI5KY39HfYruzL-292">
          <mxGeometry width="60" height="60" as="geometry" />
        </mxCell>
        <mxCell id="Qdgy6ZPI5KY39HfYruzL-294" value="" style="endArrow=none;html=1;rounded=0;entryX=0;entryY=0;entryDx=0;entryDy=0;exitX=1;exitY=1;exitDx=0;exitDy=0;" edge="1" parent="Qdgy6ZPI5KY39HfYruzL-292" source="Qdgy6ZPI5KY39HfYruzL-293" target="Qdgy6ZPI5KY39HfYruzL-293">
          <mxGeometry width="50" height="50" relative="1" as="geometry">
            <mxPoint x="105" y="-15" as="sourcePoint" />
            <mxPoint x="240" y="22.5" as="targetPoint" />
          </mxGeometry>
        </mxCell>
        <mxCell id="Qdgy6ZPI5KY39HfYruzL-295" value="" style="endArrow=none;html=1;rounded=0;entryX=1;entryY=0;entryDx=0;entryDy=0;exitX=0;exitY=1;exitDx=0;exitDy=0;" edge="1" parent="Qdgy6ZPI5KY39HfYruzL-292" source="Qdgy6ZPI5KY39HfYruzL-293" target="Qdgy6ZPI5KY39HfYruzL-293">
          <mxGeometry width="50" height="50" relative="1" as="geometry">
            <mxPoint x="165" y="45" as="sourcePoint" />
            <mxPoint x="202.5" y="7.5" as="targetPoint" />
          </mxGeometry>
        </mxCell>
        <mxCell id="Qdgy6ZPI5KY39HfYruzL-296" value="16" style="text;html=1;strokeColor=none;fillColor=none;align=center;verticalAlign=middle;whiteSpace=wrap;rounded=0;" vertex="1" parent="Qdgy6ZPI5KY39HfYruzL-292">
          <mxGeometry x="7.5" y="24.375" width="15" height="11.25" as="geometry" />
        </mxCell>
        <mxCell id="Qdgy6ZPI5KY39HfYruzL-297" value="14" style="text;html=1;strokeColor=none;fillColor=none;align=center;verticalAlign=middle;whiteSpace=wrap;rounded=0;" vertex="1" parent="Qdgy6ZPI5KY39HfYruzL-292">
          <mxGeometry x="22.5" y="7.5" width="15" height="11.25" as="geometry" />
        </mxCell>
        <mxCell id="Qdgy6ZPI5KY39HfYruzL-298" value="14" style="text;html=1;strokeColor=none;fillColor=none;align=center;verticalAlign=middle;whiteSpace=wrap;rounded=0;" vertex="1" parent="Qdgy6ZPI5KY39HfYruzL-292">
          <mxGeometry x="22.5" y="39.375" width="15" height="11.25" as="geometry" />
        </mxCell>
        <mxCell id="Qdgy6ZPI5KY39HfYruzL-299" value="0" style="text;html=1;strokeColor=none;fillColor=none;align=center;verticalAlign=middle;whiteSpace=wrap;rounded=0;" vertex="1" parent="Qdgy6ZPI5KY39HfYruzL-292">
          <mxGeometry x="37.5" y="24.375" width="15" height="11.25" as="geometry" />
        </mxCell>
        <mxCell id="Qdgy6ZPI5KY39HfYruzL-300" value="" style="group" connectable="0" vertex="1" parent="1">
          <mxGeometry x="550" y="490" width="60" height="60" as="geometry" />
        </mxCell>
        <mxCell id="Qdgy6ZPI5KY39HfYruzL-301" value="" style="ellipse;whiteSpace=wrap;html=1;aspect=fixed;" vertex="1" parent="Qdgy6ZPI5KY39HfYruzL-300">
          <mxGeometry width="60" height="60" as="geometry" />
        </mxCell>
        <mxCell id="Qdgy6ZPI5KY39HfYruzL-302" value="" style="endArrow=none;html=1;rounded=0;entryX=0;entryY=0;entryDx=0;entryDy=0;exitX=1;exitY=1;exitDx=0;exitDy=0;" edge="1" parent="Qdgy6ZPI5KY39HfYruzL-300" source="Qdgy6ZPI5KY39HfYruzL-301" target="Qdgy6ZPI5KY39HfYruzL-301">
          <mxGeometry width="50" height="50" relative="1" as="geometry">
            <mxPoint x="105" y="-15" as="sourcePoint" />
            <mxPoint x="240" y="22.5" as="targetPoint" />
          </mxGeometry>
        </mxCell>
        <mxCell id="Qdgy6ZPI5KY39HfYruzL-303" value="" style="endArrow=none;html=1;rounded=0;entryX=1;entryY=0;entryDx=0;entryDy=0;exitX=0;exitY=1;exitDx=0;exitDy=0;" edge="1" parent="Qdgy6ZPI5KY39HfYruzL-300" source="Qdgy6ZPI5KY39HfYruzL-301" target="Qdgy6ZPI5KY39HfYruzL-301">
          <mxGeometry width="50" height="50" relative="1" as="geometry">
            <mxPoint x="165" y="45" as="sourcePoint" />
            <mxPoint x="202.5" y="7.5" as="targetPoint" />
          </mxGeometry>
        </mxCell>
        <mxCell id="Qdgy6ZPI5KY39HfYruzL-304" value="17" style="text;html=1;strokeColor=none;fillColor=none;align=center;verticalAlign=middle;whiteSpace=wrap;rounded=0;" vertex="1" parent="Qdgy6ZPI5KY39HfYruzL-300">
          <mxGeometry x="7.5" y="24.375" width="15" height="11.25" as="geometry" />
        </mxCell>
        <mxCell id="Qdgy6ZPI5KY39HfYruzL-305" value="13" style="text;html=1;strokeColor=none;fillColor=none;align=center;verticalAlign=middle;whiteSpace=wrap;rounded=0;" vertex="1" parent="Qdgy6ZPI5KY39HfYruzL-300">
          <mxGeometry x="22.5" y="7.5" width="15" height="11.25" as="geometry" />
        </mxCell>
        <mxCell id="Qdgy6ZPI5KY39HfYruzL-306" value="19" style="text;html=1;strokeColor=none;fillColor=none;align=center;verticalAlign=middle;whiteSpace=wrap;rounded=0;" vertex="1" parent="Qdgy6ZPI5KY39HfYruzL-300">
          <mxGeometry x="22.5" y="39.375" width="15" height="11.25" as="geometry" />
        </mxCell>
        <mxCell id="Qdgy6ZPI5KY39HfYruzL-307" value="6" style="text;html=1;strokeColor=none;fillColor=none;align=center;verticalAlign=middle;whiteSpace=wrap;rounded=0;" vertex="1" parent="Qdgy6ZPI5KY39HfYruzL-300">
          <mxGeometry x="37.5" y="24.375" width="15" height="11.25" as="geometry" />
        </mxCell>
        <mxCell id="Qdgy6ZPI5KY39HfYruzL-316" value="" style="group" connectable="0" vertex="1" parent="1">
          <mxGeometry x="550" y="570" width="60" height="60" as="geometry" />
        </mxCell>
        <mxCell id="Qdgy6ZPI5KY39HfYruzL-317" value="" style="ellipse;whiteSpace=wrap;html=1;aspect=fixed;" vertex="1" parent="Qdgy6ZPI5KY39HfYruzL-316">
          <mxGeometry width="60" height="60" as="geometry" />
        </mxCell>
        <mxCell id="Qdgy6ZPI5KY39HfYruzL-318" value="" style="endArrow=none;html=1;rounded=0;entryX=0;entryY=0;entryDx=0;entryDy=0;exitX=1;exitY=1;exitDx=0;exitDy=0;" edge="1" parent="Qdgy6ZPI5KY39HfYruzL-316" source="Qdgy6ZPI5KY39HfYruzL-317" target="Qdgy6ZPI5KY39HfYruzL-317">
          <mxGeometry width="50" height="50" relative="1" as="geometry">
            <mxPoint x="105" y="-15" as="sourcePoint" />
            <mxPoint x="240" y="22.5" as="targetPoint" />
          </mxGeometry>
        </mxCell>
        <mxCell id="Qdgy6ZPI5KY39HfYruzL-319" value="" style="endArrow=none;html=1;rounded=0;entryX=1;entryY=0;entryDx=0;entryDy=0;exitX=0;exitY=1;exitDx=0;exitDy=0;" edge="1" parent="Qdgy6ZPI5KY39HfYruzL-316" source="Qdgy6ZPI5KY39HfYruzL-317" target="Qdgy6ZPI5KY39HfYruzL-317">
          <mxGeometry width="50" height="50" relative="1" as="geometry">
            <mxPoint x="165" y="45" as="sourcePoint" />
            <mxPoint x="202.5" y="7.5" as="targetPoint" />
          </mxGeometry>
        </mxCell>
        <mxCell id="Qdgy6ZPI5KY39HfYruzL-320" value="18" style="text;html=1;strokeColor=none;fillColor=none;align=center;verticalAlign=middle;whiteSpace=wrap;rounded=0;" vertex="1" parent="Qdgy6ZPI5KY39HfYruzL-316">
          <mxGeometry x="7.5" y="24.375" width="15" height="11.25" as="geometry" />
        </mxCell>
        <mxCell id="Qdgy6ZPI5KY39HfYruzL-321" value="14" style="text;html=1;strokeColor=none;fillColor=none;align=center;verticalAlign=middle;whiteSpace=wrap;rounded=0;" vertex="1" parent="Qdgy6ZPI5KY39HfYruzL-316">
          <mxGeometry x="22.5" y="7.5" width="15" height="11.25" as="geometry" />
        </mxCell>
        <mxCell id="Qdgy6ZPI5KY39HfYruzL-322" value="26" style="text;html=1;strokeColor=none;fillColor=none;align=center;verticalAlign=middle;whiteSpace=wrap;rounded=0;" vertex="1" parent="Qdgy6ZPI5KY39HfYruzL-316">
          <mxGeometry x="22.5" y="39.375" width="15" height="11.25" as="geometry" />
        </mxCell>
        <mxCell id="Qdgy6ZPI5KY39HfYruzL-323" value="12" style="text;html=1;strokeColor=none;fillColor=none;align=center;verticalAlign=middle;whiteSpace=wrap;rounded=0;" vertex="1" parent="Qdgy6ZPI5KY39HfYruzL-316">
          <mxGeometry x="37.5" y="24.375" width="15" height="11.25" as="geometry" />
        </mxCell>
        <mxCell id="Qdgy6ZPI5KY39HfYruzL-324" value="" style="group" connectable="0" vertex="1" parent="1">
          <mxGeometry x="550" y="650" width="60" height="60" as="geometry" />
        </mxCell>
        <mxCell id="Qdgy6ZPI5KY39HfYruzL-325" value="" style="ellipse;whiteSpace=wrap;html=1;aspect=fixed;" vertex="1" parent="Qdgy6ZPI5KY39HfYruzL-324">
          <mxGeometry width="60" height="60" as="geometry" />
        </mxCell>
        <mxCell id="Qdgy6ZPI5KY39HfYruzL-326" value="" style="endArrow=none;html=1;rounded=0;entryX=0;entryY=0;entryDx=0;entryDy=0;exitX=1;exitY=1;exitDx=0;exitDy=0;" edge="1" parent="Qdgy6ZPI5KY39HfYruzL-324" source="Qdgy6ZPI5KY39HfYruzL-325" target="Qdgy6ZPI5KY39HfYruzL-325">
          <mxGeometry width="50" height="50" relative="1" as="geometry">
            <mxPoint x="105" y="-15" as="sourcePoint" />
            <mxPoint x="240" y="22.5" as="targetPoint" />
          </mxGeometry>
        </mxCell>
        <mxCell id="Qdgy6ZPI5KY39HfYruzL-327" value="" style="endArrow=none;html=1;rounded=0;entryX=1;entryY=0;entryDx=0;entryDy=0;exitX=0;exitY=1;exitDx=0;exitDy=0;" edge="1" parent="Qdgy6ZPI5KY39HfYruzL-324" source="Qdgy6ZPI5KY39HfYruzL-325" target="Qdgy6ZPI5KY39HfYruzL-325">
          <mxGeometry width="50" height="50" relative="1" as="geometry">
            <mxPoint x="165" y="45" as="sourcePoint" />
            <mxPoint x="202.5" y="7.5" as="targetPoint" />
          </mxGeometry>
        </mxCell>
        <mxCell id="Qdgy6ZPI5KY39HfYruzL-328" value="19" style="text;html=1;strokeColor=none;fillColor=none;align=center;verticalAlign=middle;whiteSpace=wrap;rounded=0;" vertex="1" parent="Qdgy6ZPI5KY39HfYruzL-324">
          <mxGeometry x="7.5" y="24.375" width="15" height="11.25" as="geometry" />
        </mxCell>
        <mxCell id="Qdgy6ZPI5KY39HfYruzL-329" value="13" style="text;html=1;strokeColor=none;fillColor=none;align=center;verticalAlign=middle;whiteSpace=wrap;rounded=0;" vertex="1" parent="Qdgy6ZPI5KY39HfYruzL-324">
          <mxGeometry x="22.5" y="7.5" width="15" height="11.25" as="geometry" />
        </mxCell>
        <mxCell id="Qdgy6ZPI5KY39HfYruzL-330" value="26" style="text;html=1;strokeColor=none;fillColor=none;align=center;verticalAlign=middle;whiteSpace=wrap;rounded=0;" vertex="1" parent="Qdgy6ZPI5KY39HfYruzL-324">
          <mxGeometry x="22.5" y="39.375" width="15" height="11.25" as="geometry" />
        </mxCell>
        <mxCell id="Qdgy6ZPI5KY39HfYruzL-331" value="13" style="text;html=1;strokeColor=none;fillColor=none;align=center;verticalAlign=middle;whiteSpace=wrap;rounded=0;" vertex="1" parent="Qdgy6ZPI5KY39HfYruzL-324">
          <mxGeometry x="37.5" y="24.375" width="15" height="11.25" as="geometry" />
        </mxCell>
        <mxCell id="Qdgy6ZPI5KY39HfYruzL-332" value="" style="group" connectable="0" vertex="1" parent="1">
          <mxGeometry x="670" y="740" width="210" height="40" as="geometry" />
        </mxCell>
        <mxCell id="Qdgy6ZPI5KY39HfYruzL-333" value="" style="endArrow=classic;html=1;rounded=0;" edge="1" parent="Qdgy6ZPI5KY39HfYruzL-332">
          <mxGeometry width="50" height="50" relative="1" as="geometry">
            <mxPoint y="20" as="sourcePoint" />
            <mxPoint x="210" y="20" as="targetPoint" />
          </mxGeometry>
        </mxCell>
        <mxCell id="Qdgy6ZPI5KY39HfYruzL-334" value="C6" style="text;html=1;strokeColor=none;fillColor=none;align=center;verticalAlign=middle;whiteSpace=wrap;rounded=0;fontSize=9;" vertex="1" parent="Qdgy6ZPI5KY39HfYruzL-332">
          <mxGeometry x="52.49625" y="10" width="59.99999999999999" height="10" as="geometry" />
        </mxCell>
        <mxCell id="Qdgy6ZPI5KY39HfYruzL-335" value="1" style="text;html=1;strokeColor=none;fillColor=none;align=center;verticalAlign=middle;whiteSpace=wrap;rounded=0;fontSize=9;" vertex="1" parent="Qdgy6ZPI5KY39HfYruzL-332">
          <mxGeometry x="52.49625" y="20" width="59.99999999999999" height="10" as="geometry" />
        </mxCell>
        <mxCell id="Qdgy6ZPI5KY39HfYruzL-336" value="" style="group" connectable="0" vertex="1" parent="1">
          <mxGeometry x="610" y="500" width="50" height="40" as="geometry" />
        </mxCell>
        <mxCell id="Qdgy6ZPI5KY39HfYruzL-337" value="" style="endArrow=classic;html=1;rounded=0;" edge="1" parent="Qdgy6ZPI5KY39HfYruzL-336">
          <mxGeometry width="50" height="50" relative="1" as="geometry">
            <mxPoint y="20" as="sourcePoint" />
            <mxPoint x="50" y="20" as="targetPoint" />
          </mxGeometry>
        </mxCell>
        <mxCell id="Qdgy6ZPI5KY39HfYruzL-338" value="C2" style="text;html=1;strokeColor=none;fillColor=none;align=center;verticalAlign=middle;whiteSpace=wrap;rounded=0;fontSize=9;" vertex="1" parent="Qdgy6ZPI5KY39HfYruzL-336">
          <mxGeometry x="12.499107142857143" y="10" width="14.285714285714283" height="10" as="geometry" />
        </mxCell>
        <mxCell id="Qdgy6ZPI5KY39HfYruzL-339" value="4" style="text;html=1;strokeColor=none;fillColor=none;align=center;verticalAlign=middle;whiteSpace=wrap;rounded=0;fontSize=9;" vertex="1" parent="Qdgy6ZPI5KY39HfYruzL-336">
          <mxGeometry x="12.499107142857143" y="20" width="14.285714285714283" height="10" as="geometry" />
        </mxCell>
        <mxCell id="Qdgy6ZPI5KY39HfYruzL-340" value="" style="group" connectable="0" vertex="1" parent="1">
          <mxGeometry x="610" y="420" width="50" height="40" as="geometry" />
        </mxCell>
        <mxCell id="Qdgy6ZPI5KY39HfYruzL-341" value="" style="endArrow=classic;html=1;rounded=0;fillColor=#a20025;strokeColor=#6F0000;" edge="1" parent="Qdgy6ZPI5KY39HfYruzL-340">
          <mxGeometry width="50" height="50" relative="1" as="geometry">
            <mxPoint y="20" as="sourcePoint" />
            <mxPoint x="50" y="20" as="targetPoint" />
          </mxGeometry>
        </mxCell>
        <mxCell id="Qdgy6ZPI5KY39HfYruzL-342" value="C12" style="text;html=1;strokeColor=none;fillColor=none;align=center;verticalAlign=middle;whiteSpace=wrap;rounded=0;fontSize=9;" vertex="1" parent="Qdgy6ZPI5KY39HfYruzL-340">
          <mxGeometry x="12.499107142857143" y="10" width="14.285714285714283" height="10" as="geometry" />
        </mxCell>
        <mxCell id="Qdgy6ZPI5KY39HfYruzL-343" value="1" style="text;html=1;strokeColor=none;fillColor=none;align=center;verticalAlign=middle;whiteSpace=wrap;rounded=0;fontSize=9;" vertex="1" parent="Qdgy6ZPI5KY39HfYruzL-340">
          <mxGeometry x="12.499107142857143" y="20" width="14.285714285714283" height="10" as="geometry" />
        </mxCell>
        <mxCell id="Qdgy6ZPI5KY39HfYruzL-345" value="" style="group" connectable="0" vertex="1" parent="1">
          <mxGeometry x="660" y="490" width="60" height="60" as="geometry" />
        </mxCell>
        <mxCell id="Qdgy6ZPI5KY39HfYruzL-346" value="" style="ellipse;whiteSpace=wrap;html=1;aspect=fixed;" vertex="1" parent="Qdgy6ZPI5KY39HfYruzL-345">
          <mxGeometry width="60" height="60" as="geometry" />
        </mxCell>
        <mxCell id="Qdgy6ZPI5KY39HfYruzL-347" value="" style="endArrow=none;html=1;rounded=0;entryX=0;entryY=0;entryDx=0;entryDy=0;exitX=1;exitY=1;exitDx=0;exitDy=0;" edge="1" parent="Qdgy6ZPI5KY39HfYruzL-345" source="Qdgy6ZPI5KY39HfYruzL-346" target="Qdgy6ZPI5KY39HfYruzL-346">
          <mxGeometry width="50" height="50" relative="1" as="geometry">
            <mxPoint x="105" y="-15" as="sourcePoint" />
            <mxPoint x="240" y="22.5" as="targetPoint" />
          </mxGeometry>
        </mxCell>
        <mxCell id="Qdgy6ZPI5KY39HfYruzL-348" value="" style="endArrow=none;html=1;rounded=0;entryX=1;entryY=0;entryDx=0;entryDy=0;exitX=0;exitY=1;exitDx=0;exitDy=0;" edge="1" parent="Qdgy6ZPI5KY39HfYruzL-345" source="Qdgy6ZPI5KY39HfYruzL-346" target="Qdgy6ZPI5KY39HfYruzL-346">
          <mxGeometry width="50" height="50" relative="1" as="geometry">
            <mxPoint x="165" y="45" as="sourcePoint" />
            <mxPoint x="202.5" y="7.5" as="targetPoint" />
          </mxGeometry>
        </mxCell>
        <mxCell id="Qdgy6ZPI5KY39HfYruzL-349" value="22" style="text;html=1;strokeColor=none;fillColor=none;align=center;verticalAlign=middle;whiteSpace=wrap;rounded=0;" vertex="1" parent="Qdgy6ZPI5KY39HfYruzL-345">
          <mxGeometry x="7.5" y="24.375" width="15" height="11.25" as="geometry" />
        </mxCell>
        <mxCell id="Qdgy6ZPI5KY39HfYruzL-350" value="17" style="text;html=1;strokeColor=none;fillColor=none;align=center;verticalAlign=middle;whiteSpace=wrap;rounded=0;" vertex="1" parent="Qdgy6ZPI5KY39HfYruzL-345">
          <mxGeometry x="22.5" y="7.5" width="15" height="11.25" as="geometry" />
        </mxCell>
        <mxCell id="Qdgy6ZPI5KY39HfYruzL-351" value="23" style="text;html=1;strokeColor=none;fillColor=none;align=center;verticalAlign=middle;whiteSpace=wrap;rounded=0;" vertex="1" parent="Qdgy6ZPI5KY39HfYruzL-345">
          <mxGeometry x="22.5" y="39.375" width="15" height="11.25" as="geometry" />
        </mxCell>
        <mxCell id="Qdgy6ZPI5KY39HfYruzL-352" value="6" style="text;html=1;strokeColor=none;fillColor=none;align=center;verticalAlign=middle;whiteSpace=wrap;rounded=0;" vertex="1" parent="Qdgy6ZPI5KY39HfYruzL-345">
          <mxGeometry x="37.5" y="24.375" width="15" height="11.25" as="geometry" />
        </mxCell>
        <mxCell id="Qdgy6ZPI5KY39HfYruzL-353" value="" style="group" connectable="0" vertex="1" parent="1">
          <mxGeometry x="660" y="410" width="60" height="60" as="geometry" />
        </mxCell>
        <mxCell id="Qdgy6ZPI5KY39HfYruzL-354" value="" style="ellipse;whiteSpace=wrap;html=1;aspect=fixed;" vertex="1" parent="Qdgy6ZPI5KY39HfYruzL-353">
          <mxGeometry width="60" height="60" as="geometry" />
        </mxCell>
        <mxCell id="Qdgy6ZPI5KY39HfYruzL-355" value="" style="endArrow=none;html=1;rounded=0;entryX=0;entryY=0;entryDx=0;entryDy=0;exitX=1;exitY=1;exitDx=0;exitDy=0;" edge="1" parent="Qdgy6ZPI5KY39HfYruzL-353" source="Qdgy6ZPI5KY39HfYruzL-354" target="Qdgy6ZPI5KY39HfYruzL-354">
          <mxGeometry width="50" height="50" relative="1" as="geometry">
            <mxPoint x="105" y="-15" as="sourcePoint" />
            <mxPoint x="240" y="22.5" as="targetPoint" />
          </mxGeometry>
        </mxCell>
        <mxCell id="Qdgy6ZPI5KY39HfYruzL-356" value="" style="endArrow=none;html=1;rounded=0;entryX=1;entryY=0;entryDx=0;entryDy=0;exitX=0;exitY=1;exitDx=0;exitDy=0;" edge="1" parent="Qdgy6ZPI5KY39HfYruzL-353" source="Qdgy6ZPI5KY39HfYruzL-354" target="Qdgy6ZPI5KY39HfYruzL-354">
          <mxGeometry width="50" height="50" relative="1" as="geometry">
            <mxPoint x="165" y="45" as="sourcePoint" />
            <mxPoint x="202.5" y="7.5" as="targetPoint" />
          </mxGeometry>
        </mxCell>
        <mxCell id="Qdgy6ZPI5KY39HfYruzL-357" value="21" style="text;html=1;strokeColor=none;fillColor=none;align=center;verticalAlign=middle;whiteSpace=wrap;rounded=0;" vertex="1" parent="Qdgy6ZPI5KY39HfYruzL-353">
          <mxGeometry x="7.5" y="24.375" width="15" height="11.25" as="geometry" />
        </mxCell>
        <mxCell id="Qdgy6ZPI5KY39HfYruzL-358" value="15" style="text;html=1;strokeColor=none;fillColor=none;align=center;verticalAlign=middle;whiteSpace=wrap;rounded=0;" vertex="1" parent="Qdgy6ZPI5KY39HfYruzL-353">
          <mxGeometry x="22.5" y="7.5" width="15" height="11.25" as="geometry" />
        </mxCell>
        <mxCell id="Qdgy6ZPI5KY39HfYruzL-359" value="15" style="text;html=1;strokeColor=none;fillColor=none;align=center;verticalAlign=middle;whiteSpace=wrap;rounded=0;" vertex="1" parent="Qdgy6ZPI5KY39HfYruzL-353">
          <mxGeometry x="22.5" y="39.375" width="15" height="11.25" as="geometry" />
        </mxCell>
        <mxCell id="Qdgy6ZPI5KY39HfYruzL-360" value="0" style="text;html=1;strokeColor=none;fillColor=none;align=center;verticalAlign=middle;whiteSpace=wrap;rounded=0;" vertex="1" parent="Qdgy6ZPI5KY39HfYruzL-353">
          <mxGeometry x="37.5" y="24.375" width="15" height="11.25" as="geometry" />
        </mxCell>
        <mxCell id="Qdgy6ZPI5KY39HfYruzL-361" value="" style="group" connectable="0" vertex="1" parent="1">
          <mxGeometry x="880" y="730" width="60" height="60" as="geometry" />
        </mxCell>
        <mxCell id="Qdgy6ZPI5KY39HfYruzL-362" value="" style="ellipse;whiteSpace=wrap;html=1;aspect=fixed;" vertex="1" parent="Qdgy6ZPI5KY39HfYruzL-361">
          <mxGeometry width="60" height="60" as="geometry" />
        </mxCell>
        <mxCell id="Qdgy6ZPI5KY39HfYruzL-363" value="" style="endArrow=none;html=1;rounded=0;entryX=0;entryY=0;entryDx=0;entryDy=0;exitX=1;exitY=1;exitDx=0;exitDy=0;" edge="1" parent="Qdgy6ZPI5KY39HfYruzL-361" source="Qdgy6ZPI5KY39HfYruzL-362" target="Qdgy6ZPI5KY39HfYruzL-362">
          <mxGeometry width="50" height="50" relative="1" as="geometry">
            <mxPoint x="105" y="-15" as="sourcePoint" />
            <mxPoint x="240" y="22.5" as="targetPoint" />
          </mxGeometry>
        </mxCell>
        <mxCell id="Qdgy6ZPI5KY39HfYruzL-364" value="" style="endArrow=none;html=1;rounded=0;entryX=1;entryY=0;entryDx=0;entryDy=0;exitX=0;exitY=1;exitDx=0;exitDy=0;" edge="1" parent="Qdgy6ZPI5KY39HfYruzL-361" source="Qdgy6ZPI5KY39HfYruzL-362" target="Qdgy6ZPI5KY39HfYruzL-362">
          <mxGeometry width="50" height="50" relative="1" as="geometry">
            <mxPoint x="165" y="45" as="sourcePoint" />
            <mxPoint x="202.5" y="7.5" as="targetPoint" />
          </mxGeometry>
        </mxCell>
        <mxCell id="Qdgy6ZPI5KY39HfYruzL-365" value="27" style="text;html=1;strokeColor=none;fillColor=none;align=center;verticalAlign=middle;whiteSpace=wrap;rounded=0;" vertex="1" parent="Qdgy6ZPI5KY39HfYruzL-361">
          <mxGeometry x="7.5" y="24.375" width="15" height="11.25" as="geometry" />
        </mxCell>
        <mxCell id="Qdgy6ZPI5KY39HfYruzL-366" value="15" style="text;html=1;strokeColor=none;fillColor=none;align=center;verticalAlign=middle;whiteSpace=wrap;rounded=0;" vertex="1" parent="Qdgy6ZPI5KY39HfYruzL-361">
          <mxGeometry x="22.5" y="7.5" width="15" height="11.25" as="geometry" />
        </mxCell>
        <mxCell id="Qdgy6ZPI5KY39HfYruzL-367" value="26" style="text;html=1;strokeColor=none;fillColor=none;align=center;verticalAlign=middle;whiteSpace=wrap;rounded=0;" vertex="1" parent="Qdgy6ZPI5KY39HfYruzL-361">
          <mxGeometry x="22.5" y="39.375" width="15" height="11.25" as="geometry" />
        </mxCell>
        <mxCell id="Qdgy6ZPI5KY39HfYruzL-368" value="11" style="text;html=1;strokeColor=none;fillColor=none;align=center;verticalAlign=middle;whiteSpace=wrap;rounded=0;" vertex="1" parent="Qdgy6ZPI5KY39HfYruzL-361">
          <mxGeometry x="37.5" y="24.375" width="15" height="11.25" as="geometry" />
        </mxCell>
        <mxCell id="Qdgy6ZPI5KY39HfYruzL-369" value="" style="group" connectable="0" vertex="1" parent="1">
          <mxGeometry x="720" y="420" width="50" height="40" as="geometry" />
        </mxCell>
        <mxCell id="Qdgy6ZPI5KY39HfYruzL-370" value="" style="endArrow=classic;html=1;rounded=0;fillColor=#a20025;strokeColor=#6F0000;" edge="1" parent="Qdgy6ZPI5KY39HfYruzL-369">
          <mxGeometry width="50" height="50" relative="1" as="geometry">
            <mxPoint y="20" as="sourcePoint" />
            <mxPoint x="50" y="20" as="targetPoint" />
          </mxGeometry>
        </mxCell>
        <mxCell id="Qdgy6ZPI5KY39HfYruzL-371" value="C7" style="text;html=1;strokeColor=none;fillColor=none;align=center;verticalAlign=middle;whiteSpace=wrap;rounded=0;fontSize=9;" vertex="1" parent="Qdgy6ZPI5KY39HfYruzL-369">
          <mxGeometry x="12.499107142857143" y="10" width="14.285714285714283" height="10" as="geometry" />
        </mxCell>
        <mxCell id="Qdgy6ZPI5KY39HfYruzL-372" value="6" style="text;html=1;strokeColor=none;fillColor=none;align=center;verticalAlign=middle;whiteSpace=wrap;rounded=0;fontSize=9;" vertex="1" parent="Qdgy6ZPI5KY39HfYruzL-369">
          <mxGeometry x="12.499107142857143" y="20" width="14.285714285714283" height="10" as="geometry" />
        </mxCell>
        <mxCell id="Qdgy6ZPI5KY39HfYruzL-373" value="" style="group" connectable="0" vertex="1" parent="1">
          <mxGeometry x="720" y="500" width="50" height="40" as="geometry" />
        </mxCell>
        <mxCell id="Qdgy6ZPI5KY39HfYruzL-374" value="" style="endArrow=classic;html=1;rounded=0;" edge="1" parent="Qdgy6ZPI5KY39HfYruzL-373">
          <mxGeometry width="50" height="50" relative="1" as="geometry">
            <mxPoint y="20" as="sourcePoint" />
            <mxPoint x="50" y="20" as="targetPoint" />
          </mxGeometry>
        </mxCell>
        <mxCell id="Qdgy6ZPI5KY39HfYruzL-375" value="C15" style="text;html=1;strokeColor=none;fillColor=none;align=center;verticalAlign=middle;whiteSpace=wrap;rounded=0;fontSize=9;" vertex="1" parent="Qdgy6ZPI5KY39HfYruzL-373">
          <mxGeometry x="12.499107142857143" y="10" width="14.285714285714283" height="10" as="geometry" />
        </mxCell>
        <mxCell id="Qdgy6ZPI5KY39HfYruzL-376" value="2" style="text;html=1;strokeColor=none;fillColor=none;align=center;verticalAlign=middle;whiteSpace=wrap;rounded=0;fontSize=9;" vertex="1" parent="Qdgy6ZPI5KY39HfYruzL-373">
          <mxGeometry x="12.499107142857143" y="20" width="14.285714285714283" height="10" as="geometry" />
        </mxCell>
        <mxCell id="Qdgy6ZPI5KY39HfYruzL-377" value="" style="group" connectable="0" vertex="1" parent="1">
          <mxGeometry x="770" y="410" width="60" height="60" as="geometry" />
        </mxCell>
        <mxCell id="Qdgy6ZPI5KY39HfYruzL-378" value="" style="ellipse;whiteSpace=wrap;html=1;aspect=fixed;" vertex="1" parent="Qdgy6ZPI5KY39HfYruzL-377">
          <mxGeometry width="60" height="60" as="geometry" />
        </mxCell>
        <mxCell id="Qdgy6ZPI5KY39HfYruzL-379" value="" style="endArrow=none;html=1;rounded=0;entryX=0;entryY=0;entryDx=0;entryDy=0;exitX=1;exitY=1;exitDx=0;exitDy=0;" edge="1" parent="Qdgy6ZPI5KY39HfYruzL-377" source="Qdgy6ZPI5KY39HfYruzL-378" target="Qdgy6ZPI5KY39HfYruzL-378">
          <mxGeometry width="50" height="50" relative="1" as="geometry">
            <mxPoint x="105" y="-15" as="sourcePoint" />
            <mxPoint x="240" y="22.5" as="targetPoint" />
          </mxGeometry>
        </mxCell>
        <mxCell id="Qdgy6ZPI5KY39HfYruzL-380" value="" style="endArrow=none;html=1;rounded=0;entryX=1;entryY=0;entryDx=0;entryDy=0;exitX=0;exitY=1;exitDx=0;exitDy=0;" edge="1" parent="Qdgy6ZPI5KY39HfYruzL-377" source="Qdgy6ZPI5KY39HfYruzL-378" target="Qdgy6ZPI5KY39HfYruzL-378">
          <mxGeometry width="50" height="50" relative="1" as="geometry">
            <mxPoint x="165" y="45" as="sourcePoint" />
            <mxPoint x="202.5" y="7.5" as="targetPoint" />
          </mxGeometry>
        </mxCell>
        <mxCell id="Qdgy6ZPI5KY39HfYruzL-381" value="23" style="text;html=1;strokeColor=none;fillColor=none;align=center;verticalAlign=middle;whiteSpace=wrap;rounded=0;" vertex="1" parent="Qdgy6ZPI5KY39HfYruzL-377">
          <mxGeometry x="7.5" y="24.375" width="15" height="11.25" as="geometry" />
        </mxCell>
        <mxCell id="Qdgy6ZPI5KY39HfYruzL-382" value="21" style="text;html=1;strokeColor=none;fillColor=none;align=center;verticalAlign=middle;whiteSpace=wrap;rounded=0;" vertex="1" parent="Qdgy6ZPI5KY39HfYruzL-377">
          <mxGeometry x="22.5" y="7.5" width="15" height="11.25" as="geometry" />
        </mxCell>
        <mxCell id="Qdgy6ZPI5KY39HfYruzL-383" value="21" style="text;html=1;strokeColor=none;fillColor=none;align=center;verticalAlign=middle;whiteSpace=wrap;rounded=0;" vertex="1" parent="Qdgy6ZPI5KY39HfYruzL-377">
          <mxGeometry x="22.5" y="39.375" width="15" height="11.25" as="geometry" />
        </mxCell>
        <mxCell id="Qdgy6ZPI5KY39HfYruzL-384" value="0" style="text;html=1;strokeColor=none;fillColor=none;align=center;verticalAlign=middle;whiteSpace=wrap;rounded=0;" vertex="1" parent="Qdgy6ZPI5KY39HfYruzL-377">
          <mxGeometry x="37.5" y="24.375" width="15" height="11.25" as="geometry" />
        </mxCell>
        <mxCell id="Qdgy6ZPI5KY39HfYruzL-385" value="" style="group" connectable="0" vertex="1" parent="1">
          <mxGeometry x="770" y="490" width="60" height="60" as="geometry" />
        </mxCell>
        <mxCell id="Qdgy6ZPI5KY39HfYruzL-386" value="" style="ellipse;whiteSpace=wrap;html=1;aspect=fixed;" vertex="1" parent="Qdgy6ZPI5KY39HfYruzL-385">
          <mxGeometry width="60" height="60" as="geometry" />
        </mxCell>
        <mxCell id="Qdgy6ZPI5KY39HfYruzL-387" value="" style="endArrow=none;html=1;rounded=0;entryX=0;entryY=0;entryDx=0;entryDy=0;exitX=1;exitY=1;exitDx=0;exitDy=0;" edge="1" parent="Qdgy6ZPI5KY39HfYruzL-385" source="Qdgy6ZPI5KY39HfYruzL-386" target="Qdgy6ZPI5KY39HfYruzL-386">
          <mxGeometry width="50" height="50" relative="1" as="geometry">
            <mxPoint x="105" y="-15" as="sourcePoint" />
            <mxPoint x="240" y="22.5" as="targetPoint" />
          </mxGeometry>
        </mxCell>
        <mxCell id="Qdgy6ZPI5KY39HfYruzL-388" value="" style="endArrow=none;html=1;rounded=0;entryX=1;entryY=0;entryDx=0;entryDy=0;exitX=0;exitY=1;exitDx=0;exitDy=0;" edge="1" parent="Qdgy6ZPI5KY39HfYruzL-385" source="Qdgy6ZPI5KY39HfYruzL-386" target="Qdgy6ZPI5KY39HfYruzL-386">
          <mxGeometry width="50" height="50" relative="1" as="geometry">
            <mxPoint x="165" y="45" as="sourcePoint" />
            <mxPoint x="202.5" y="7.5" as="targetPoint" />
          </mxGeometry>
        </mxCell>
        <mxCell id="Qdgy6ZPI5KY39HfYruzL-389" value="24" style="text;html=1;strokeColor=none;fillColor=none;align=center;verticalAlign=middle;whiteSpace=wrap;rounded=0;" vertex="1" parent="Qdgy6ZPI5KY39HfYruzL-385">
          <mxGeometry x="7.5" y="24.375" width="15" height="11.25" as="geometry" />
        </mxCell>
        <mxCell id="Qdgy6ZPI5KY39HfYruzL-390" value="19" style="text;html=1;strokeColor=none;fillColor=none;align=center;verticalAlign=middle;whiteSpace=wrap;rounded=0;" vertex="1" parent="Qdgy6ZPI5KY39HfYruzL-385">
          <mxGeometry x="22.5" y="7.5" width="15" height="11.25" as="geometry" />
        </mxCell>
        <mxCell id="Qdgy6ZPI5KY39HfYruzL-391" value="25" style="text;html=1;strokeColor=none;fillColor=none;align=center;verticalAlign=middle;whiteSpace=wrap;rounded=0;" vertex="1" parent="Qdgy6ZPI5KY39HfYruzL-385">
          <mxGeometry x="22.5" y="39.375" width="15" height="11.25" as="geometry" />
        </mxCell>
        <mxCell id="Qdgy6ZPI5KY39HfYruzL-392" value="6" style="text;html=1;strokeColor=none;fillColor=none;align=center;verticalAlign=middle;whiteSpace=wrap;rounded=0;" vertex="1" parent="Qdgy6ZPI5KY39HfYruzL-385">
          <mxGeometry x="37.5" y="24.375" width="15" height="11.25" as="geometry" />
        </mxCell>
        <mxCell id="Qdgy6ZPI5KY39HfYruzL-393" value="" style="group" connectable="0" vertex="1" parent="1">
          <mxGeometry x="830" y="420" width="50" height="40" as="geometry" />
        </mxCell>
        <mxCell id="Qdgy6ZPI5KY39HfYruzL-394" value="" style="endArrow=classic;html=1;rounded=0;fillColor=#a20025;strokeColor=#6F0000;" edge="1" parent="Qdgy6ZPI5KY39HfYruzL-393">
          <mxGeometry width="50" height="50" relative="1" as="geometry">
            <mxPoint y="20" as="sourcePoint" />
            <mxPoint x="50" y="20" as="targetPoint" />
          </mxGeometry>
        </mxCell>
        <mxCell id="Qdgy6ZPI5KY39HfYruzL-395" value="C8" style="text;html=1;strokeColor=none;fillColor=none;align=center;verticalAlign=middle;whiteSpace=wrap;rounded=0;fontSize=9;" vertex="1" parent="Qdgy6ZPI5KY39HfYruzL-393">
          <mxGeometry x="12.499107142857143" y="10" width="14.285714285714283" height="10" as="geometry" />
        </mxCell>
        <mxCell id="Qdgy6ZPI5KY39HfYruzL-396" value="2" style="text;html=1;strokeColor=none;fillColor=none;align=center;verticalAlign=middle;whiteSpace=wrap;rounded=0;fontSize=9;" vertex="1" parent="Qdgy6ZPI5KY39HfYruzL-393">
          <mxGeometry x="12.499107142857143" y="20" width="14.285714285714283" height="10" as="geometry" />
        </mxCell>
        <mxCell id="Qdgy6ZPI5KY39HfYruzL-397" value="" style="group" connectable="0" vertex="1" parent="1">
          <mxGeometry x="830" y="500" width="50" height="40" as="geometry" />
        </mxCell>
        <mxCell id="Qdgy6ZPI5KY39HfYruzL-398" value="" style="endArrow=classic;html=1;rounded=0;" edge="1" parent="Qdgy6ZPI5KY39HfYruzL-397">
          <mxGeometry width="50" height="50" relative="1" as="geometry">
            <mxPoint y="20" as="sourcePoint" />
            <mxPoint x="50" y="20" as="targetPoint" />
          </mxGeometry>
        </mxCell>
        <mxCell id="Qdgy6ZPI5KY39HfYruzL-399" value="C16" style="text;html=1;strokeColor=none;fillColor=none;align=center;verticalAlign=middle;whiteSpace=wrap;rounded=0;fontSize=9;" vertex="1" parent="Qdgy6ZPI5KY39HfYruzL-397">
          <mxGeometry x="12.499107142857143" y="10" width="14.285714285714283" height="10" as="geometry" />
        </mxCell>
        <mxCell id="Qdgy6ZPI5KY39HfYruzL-400" value="1" style="text;html=1;strokeColor=none;fillColor=none;align=center;verticalAlign=middle;whiteSpace=wrap;rounded=0;fontSize=9;" vertex="1" parent="Qdgy6ZPI5KY39HfYruzL-397">
          <mxGeometry x="12.499107142857143" y="20" width="14.285714285714283" height="10" as="geometry" />
        </mxCell>
        <mxCell id="Qdgy6ZPI5KY39HfYruzL-401" value="" style="group" connectable="0" vertex="1" parent="1">
          <mxGeometry x="880" y="410" width="60" height="60" as="geometry" />
        </mxCell>
        <mxCell id="Qdgy6ZPI5KY39HfYruzL-402" value="" style="ellipse;whiteSpace=wrap;html=1;aspect=fixed;" vertex="1" parent="Qdgy6ZPI5KY39HfYruzL-401">
          <mxGeometry width="60" height="60" as="geometry" />
        </mxCell>
        <mxCell id="Qdgy6ZPI5KY39HfYruzL-403" value="" style="endArrow=none;html=1;rounded=0;entryX=0;entryY=0;entryDx=0;entryDy=0;exitX=1;exitY=1;exitDx=0;exitDy=0;" edge="1" parent="Qdgy6ZPI5KY39HfYruzL-401" source="Qdgy6ZPI5KY39HfYruzL-402" target="Qdgy6ZPI5KY39HfYruzL-402">
          <mxGeometry width="50" height="50" relative="1" as="geometry">
            <mxPoint x="105" y="-15" as="sourcePoint" />
            <mxPoint x="240" y="22.5" as="targetPoint" />
          </mxGeometry>
        </mxCell>
        <mxCell id="Qdgy6ZPI5KY39HfYruzL-404" value="" style="endArrow=none;html=1;rounded=0;entryX=1;entryY=0;entryDx=0;entryDy=0;exitX=0;exitY=1;exitDx=0;exitDy=0;" edge="1" parent="Qdgy6ZPI5KY39HfYruzL-401" source="Qdgy6ZPI5KY39HfYruzL-402" target="Qdgy6ZPI5KY39HfYruzL-402">
          <mxGeometry width="50" height="50" relative="1" as="geometry">
            <mxPoint x="165" y="45" as="sourcePoint" />
            <mxPoint x="202.5" y="7.5" as="targetPoint" />
          </mxGeometry>
        </mxCell>
        <mxCell id="Qdgy6ZPI5KY39HfYruzL-405" value="25" style="text;html=1;strokeColor=none;fillColor=none;align=center;verticalAlign=middle;whiteSpace=wrap;rounded=0;" vertex="1" parent="Qdgy6ZPI5KY39HfYruzL-401">
          <mxGeometry x="7.5" y="24.375" width="15" height="11.25" as="geometry" />
        </mxCell>
        <mxCell id="Qdgy6ZPI5KY39HfYruzL-406" value="23" style="text;html=1;strokeColor=none;fillColor=none;align=center;verticalAlign=middle;whiteSpace=wrap;rounded=0;" vertex="1" parent="Qdgy6ZPI5KY39HfYruzL-401">
          <mxGeometry x="22.5" y="7.5" width="15" height="11.25" as="geometry" />
        </mxCell>
        <mxCell id="Qdgy6ZPI5KY39HfYruzL-407" value="23" style="text;html=1;strokeColor=none;fillColor=none;align=center;verticalAlign=middle;whiteSpace=wrap;rounded=0;" vertex="1" parent="Qdgy6ZPI5KY39HfYruzL-401">
          <mxGeometry x="22.5" y="39.375" width="15" height="11.25" as="geometry" />
        </mxCell>
        <mxCell id="Qdgy6ZPI5KY39HfYruzL-408" value="0" style="text;html=1;strokeColor=none;fillColor=none;align=center;verticalAlign=middle;whiteSpace=wrap;rounded=0;" vertex="1" parent="Qdgy6ZPI5KY39HfYruzL-401">
          <mxGeometry x="37.5" y="24.375" width="15" height="11.25" as="geometry" />
        </mxCell>
        <mxCell id="Qdgy6ZPI5KY39HfYruzL-409" value="" style="group" connectable="0" vertex="1" parent="1">
          <mxGeometry x="880" y="490" width="60" height="60" as="geometry" />
        </mxCell>
        <mxCell id="Qdgy6ZPI5KY39HfYruzL-410" value="" style="ellipse;whiteSpace=wrap;html=1;aspect=fixed;" vertex="1" parent="Qdgy6ZPI5KY39HfYruzL-409">
          <mxGeometry width="60" height="60" as="geometry" />
        </mxCell>
        <mxCell id="Qdgy6ZPI5KY39HfYruzL-411" value="" style="endArrow=none;html=1;rounded=0;entryX=0;entryY=0;entryDx=0;entryDy=0;exitX=1;exitY=1;exitDx=0;exitDy=0;" edge="1" parent="Qdgy6ZPI5KY39HfYruzL-409" source="Qdgy6ZPI5KY39HfYruzL-410" target="Qdgy6ZPI5KY39HfYruzL-410">
          <mxGeometry width="50" height="50" relative="1" as="geometry">
            <mxPoint x="105" y="-15" as="sourcePoint" />
            <mxPoint x="240" y="22.5" as="targetPoint" />
          </mxGeometry>
        </mxCell>
        <mxCell id="Qdgy6ZPI5KY39HfYruzL-412" value="" style="endArrow=none;html=1;rounded=0;entryX=1;entryY=0;entryDx=0;entryDy=0;exitX=0;exitY=1;exitDx=0;exitDy=0;" edge="1" parent="Qdgy6ZPI5KY39HfYruzL-409" source="Qdgy6ZPI5KY39HfYruzL-410" target="Qdgy6ZPI5KY39HfYruzL-410">
          <mxGeometry width="50" height="50" relative="1" as="geometry">
            <mxPoint x="165" y="45" as="sourcePoint" />
            <mxPoint x="202.5" y="7.5" as="targetPoint" />
          </mxGeometry>
        </mxCell>
        <mxCell id="Qdgy6ZPI5KY39HfYruzL-413" value="26" style="text;html=1;strokeColor=none;fillColor=none;align=center;verticalAlign=middle;whiteSpace=wrap;rounded=0;" vertex="1" parent="Qdgy6ZPI5KY39HfYruzL-409">
          <mxGeometry x="7.5" y="24.375" width="15" height="11.25" as="geometry" />
        </mxCell>
        <mxCell id="Qdgy6ZPI5KY39HfYruzL-414" value="23" style="text;html=1;strokeColor=none;fillColor=none;align=center;verticalAlign=middle;whiteSpace=wrap;rounded=0;" vertex="1" parent="Qdgy6ZPI5KY39HfYruzL-409">
          <mxGeometry x="22.5" y="7.5" width="15" height="11.25" as="geometry" />
        </mxCell>
        <mxCell id="Qdgy6ZPI5KY39HfYruzL-415" value="26" style="text;html=1;strokeColor=none;fillColor=none;align=center;verticalAlign=middle;whiteSpace=wrap;rounded=0;" vertex="1" parent="Qdgy6ZPI5KY39HfYruzL-409">
          <mxGeometry x="22.5" y="39.375" width="15" height="11.25" as="geometry" />
        </mxCell>
        <mxCell id="Qdgy6ZPI5KY39HfYruzL-416" value="3" style="text;html=1;strokeColor=none;fillColor=none;align=center;verticalAlign=middle;whiteSpace=wrap;rounded=0;" vertex="1" parent="Qdgy6ZPI5KY39HfYruzL-409">
          <mxGeometry x="37.5" y="24.375" width="15" height="11.25" as="geometry" />
        </mxCell>
        <mxCell id="Qdgy6ZPI5KY39HfYruzL-417" value="" style="endArrow=block;dashed=1;endFill=0;endSize=12;html=1;rounded=0;entryX=0.5;entryY=0;entryDx=0;entryDy=0;exitX=0.5;exitY=1;exitDx=0;exitDy=0;" edge="1" parent="1" source="Qdgy6ZPI5KY39HfYruzL-402" target="Qdgy6ZPI5KY39HfYruzL-410">
          <mxGeometry width="160" relative="1" as="geometry">
            <mxPoint x="370" y="720" as="sourcePoint" />
            <mxPoint x="370" y="740" as="targetPoint" />
          </mxGeometry>
        </mxCell>
        <mxCell id="Qdgy6ZPI5KY39HfYruzL-418" value="" style="endArrow=block;dashed=1;endFill=0;endSize=12;html=1;rounded=0;entryX=0.5;entryY=1;entryDx=0;entryDy=0;exitX=0.5;exitY=0;exitDx=0;exitDy=0;" edge="1" parent="1" source="Qdgy6ZPI5KY39HfYruzL-362" target="Qdgy6ZPI5KY39HfYruzL-410">
          <mxGeometry width="160" relative="1" as="geometry">
            <mxPoint x="920" y="480" as="sourcePoint" />
            <mxPoint x="920" y="500" as="targetPoint" />
          </mxGeometry>
        </mxCell>
        <mxCell id="Qdgy6ZPI5KY39HfYruzL-424" value="" style="group" connectable="0" vertex="1" parent="1">
          <mxGeometry x="940" y="500" width="50" height="40" as="geometry" />
        </mxCell>
        <mxCell id="Qdgy6ZPI5KY39HfYruzL-425" value="" style="endArrow=classic;html=1;rounded=0;" edge="1" parent="Qdgy6ZPI5KY39HfYruzL-424">
          <mxGeometry width="50" height="50" relative="1" as="geometry">
            <mxPoint y="20" as="sourcePoint" />
            <mxPoint x="50" y="20" as="targetPoint" />
          </mxGeometry>
        </mxCell>
        <mxCell id="Qdgy6ZPI5KY39HfYruzL-426" value="C19" style="text;html=1;strokeColor=none;fillColor=none;align=center;verticalAlign=middle;whiteSpace=wrap;rounded=0;fontSize=9;" vertex="1" parent="Qdgy6ZPI5KY39HfYruzL-424">
          <mxGeometry x="12.499107142857143" y="10" width="14.285714285714283" height="10" as="geometry" />
        </mxCell>
        <mxCell id="Qdgy6ZPI5KY39HfYruzL-427" value="1" style="text;html=1;strokeColor=none;fillColor=none;align=center;verticalAlign=middle;whiteSpace=wrap;rounded=0;fontSize=9;" vertex="1" parent="Qdgy6ZPI5KY39HfYruzL-424">
          <mxGeometry x="12.499107142857143" y="20" width="14.285714285714283" height="10" as="geometry" />
        </mxCell>
        <mxCell id="Qdgy6ZPI5KY39HfYruzL-428" value="" style="group" connectable="0" vertex="1" parent="1">
          <mxGeometry x="940" y="420" width="50" height="40" as="geometry" />
        </mxCell>
        <mxCell id="Qdgy6ZPI5KY39HfYruzL-429" value="" style="endArrow=classic;html=1;rounded=0;fillColor=#a20025;strokeColor=#6F0000;" edge="1" parent="Qdgy6ZPI5KY39HfYruzL-428">
          <mxGeometry width="50" height="50" relative="1" as="geometry">
            <mxPoint y="20" as="sourcePoint" />
            <mxPoint x="50" y="20" as="targetPoint" />
          </mxGeometry>
        </mxCell>
        <mxCell id="Qdgy6ZPI5KY39HfYruzL-430" value="C21" style="text;html=1;strokeColor=none;fillColor=none;align=center;verticalAlign=middle;whiteSpace=wrap;rounded=0;fontSize=9;" vertex="1" parent="Qdgy6ZPI5KY39HfYruzL-428">
          <mxGeometry x="12.499107142857143" y="10" width="14.285714285714283" height="10" as="geometry" />
        </mxCell>
        <mxCell id="Qdgy6ZPI5KY39HfYruzL-431" value="4" style="text;html=1;strokeColor=none;fillColor=none;align=center;verticalAlign=middle;whiteSpace=wrap;rounded=0;fontSize=9;" vertex="1" parent="Qdgy6ZPI5KY39HfYruzL-428">
          <mxGeometry x="12.499107142857143" y="20" width="14.285714285714283" height="10" as="geometry" />
        </mxCell>
        <mxCell id="Qdgy6ZPI5KY39HfYruzL-432" value="" style="group" connectable="0" vertex="1" parent="1">
          <mxGeometry x="990" y="490" width="60" height="60" as="geometry" />
        </mxCell>
        <mxCell id="Qdgy6ZPI5KY39HfYruzL-433" value="" style="ellipse;whiteSpace=wrap;html=1;aspect=fixed;" vertex="1" parent="Qdgy6ZPI5KY39HfYruzL-432">
          <mxGeometry width="60" height="60" as="geometry" />
        </mxCell>
        <mxCell id="Qdgy6ZPI5KY39HfYruzL-434" value="" style="endArrow=none;html=1;rounded=0;entryX=0;entryY=0;entryDx=0;entryDy=0;exitX=1;exitY=1;exitDx=0;exitDy=0;" edge="1" parent="Qdgy6ZPI5KY39HfYruzL-432" source="Qdgy6ZPI5KY39HfYruzL-433" target="Qdgy6ZPI5KY39HfYruzL-433">
          <mxGeometry width="50" height="50" relative="1" as="geometry">
            <mxPoint x="105" y="-15" as="sourcePoint" />
            <mxPoint x="240" y="22.5" as="targetPoint" />
          </mxGeometry>
        </mxCell>
        <mxCell id="Qdgy6ZPI5KY39HfYruzL-435" value="" style="endArrow=none;html=1;rounded=0;entryX=1;entryY=0;entryDx=0;entryDy=0;exitX=0;exitY=1;exitDx=0;exitDy=0;" edge="1" parent="Qdgy6ZPI5KY39HfYruzL-432" source="Qdgy6ZPI5KY39HfYruzL-433" target="Qdgy6ZPI5KY39HfYruzL-433">
          <mxGeometry width="50" height="50" relative="1" as="geometry">
            <mxPoint x="165" y="45" as="sourcePoint" />
            <mxPoint x="202.5" y="7.5" as="targetPoint" />
          </mxGeometry>
        </mxCell>
        <mxCell id="Qdgy6ZPI5KY39HfYruzL-436" value="29" style="text;html=1;strokeColor=none;fillColor=none;align=center;verticalAlign=middle;whiteSpace=wrap;rounded=0;" vertex="1" parent="Qdgy6ZPI5KY39HfYruzL-432">
          <mxGeometry x="7.5" y="24.375" width="15" height="11.25" as="geometry" />
        </mxCell>
        <mxCell id="Qdgy6ZPI5KY39HfYruzL-437" value="24" style="text;html=1;strokeColor=none;fillColor=none;align=center;verticalAlign=middle;whiteSpace=wrap;rounded=0;" vertex="1" parent="Qdgy6ZPI5KY39HfYruzL-432">
          <mxGeometry x="22.5" y="7.5" width="15" height="11.25" as="geometry" />
        </mxCell>
        <mxCell id="Qdgy6ZPI5KY39HfYruzL-438" value="27" style="text;html=1;strokeColor=none;fillColor=none;align=center;verticalAlign=middle;whiteSpace=wrap;rounded=0;" vertex="1" parent="Qdgy6ZPI5KY39HfYruzL-432">
          <mxGeometry x="22.5" y="39.375" width="15" height="11.25" as="geometry" />
        </mxCell>
        <mxCell id="Qdgy6ZPI5KY39HfYruzL-439" value="3" style="text;html=1;strokeColor=none;fillColor=none;align=center;verticalAlign=middle;whiteSpace=wrap;rounded=0;" vertex="1" parent="Qdgy6ZPI5KY39HfYruzL-432">
          <mxGeometry x="37.5" y="24.375" width="15" height="11.25" as="geometry" />
        </mxCell>
        <mxCell id="Qdgy6ZPI5KY39HfYruzL-440" value="" style="group" connectable="0" vertex="1" parent="1">
          <mxGeometry x="990" y="410" width="60" height="60" as="geometry" />
        </mxCell>
        <mxCell id="Qdgy6ZPI5KY39HfYruzL-441" value="" style="ellipse;whiteSpace=wrap;html=1;aspect=fixed;" vertex="1" parent="Qdgy6ZPI5KY39HfYruzL-440">
          <mxGeometry width="60" height="60" as="geometry" />
        </mxCell>
        <mxCell id="Qdgy6ZPI5KY39HfYruzL-442" value="" style="endArrow=none;html=1;rounded=0;entryX=0;entryY=0;entryDx=0;entryDy=0;exitX=1;exitY=1;exitDx=0;exitDy=0;" edge="1" parent="Qdgy6ZPI5KY39HfYruzL-440" source="Qdgy6ZPI5KY39HfYruzL-441" target="Qdgy6ZPI5KY39HfYruzL-441">
          <mxGeometry width="50" height="50" relative="1" as="geometry">
            <mxPoint x="105" y="-15" as="sourcePoint" />
            <mxPoint x="240" y="22.5" as="targetPoint" />
          </mxGeometry>
        </mxCell>
        <mxCell id="Qdgy6ZPI5KY39HfYruzL-443" value="" style="endArrow=none;html=1;rounded=0;entryX=1;entryY=0;entryDx=0;entryDy=0;exitX=0;exitY=1;exitDx=0;exitDy=0;" edge="1" parent="Qdgy6ZPI5KY39HfYruzL-440" source="Qdgy6ZPI5KY39HfYruzL-441" target="Qdgy6ZPI5KY39HfYruzL-441">
          <mxGeometry width="50" height="50" relative="1" as="geometry">
            <mxPoint x="165" y="45" as="sourcePoint" />
            <mxPoint x="202.5" y="7.5" as="targetPoint" />
          </mxGeometry>
        </mxCell>
        <mxCell id="Qdgy6ZPI5KY39HfYruzL-444" value="28" style="text;html=1;strokeColor=none;fillColor=none;align=center;verticalAlign=middle;whiteSpace=wrap;rounded=0;" vertex="1" parent="Qdgy6ZPI5KY39HfYruzL-440">
          <mxGeometry x="7.5" y="24.375" width="15" height="11.25" as="geometry" />
        </mxCell>
        <mxCell id="Qdgy6ZPI5KY39HfYruzL-445" value="27" style="text;html=1;strokeColor=none;fillColor=none;align=center;verticalAlign=middle;whiteSpace=wrap;rounded=0;" vertex="1" parent="Qdgy6ZPI5KY39HfYruzL-440">
          <mxGeometry x="22.5" y="7.5" width="15" height="11.25" as="geometry" />
        </mxCell>
        <mxCell id="Qdgy6ZPI5KY39HfYruzL-446" value="27" style="text;html=1;strokeColor=none;fillColor=none;align=center;verticalAlign=middle;whiteSpace=wrap;rounded=0;" vertex="1" parent="Qdgy6ZPI5KY39HfYruzL-440">
          <mxGeometry x="22.5" y="39.375" width="15" height="11.25" as="geometry" />
        </mxCell>
        <mxCell id="Qdgy6ZPI5KY39HfYruzL-447" value="0" style="text;html=1;strokeColor=none;fillColor=none;align=center;verticalAlign=middle;whiteSpace=wrap;rounded=0;" vertex="1" parent="Qdgy6ZPI5KY39HfYruzL-440">
          <mxGeometry x="37.5" y="24.375" width="15" height="11.25" as="geometry" />
        </mxCell>
        <mxCell id="Qdgy6ZPI5KY39HfYruzL-448" value="" style="group" connectable="0" vertex="1" parent="1">
          <mxGeometry x="1050" y="500" width="50" height="40" as="geometry" />
        </mxCell>
        <mxCell id="Qdgy6ZPI5KY39HfYruzL-449" value="" style="endArrow=classic;html=1;rounded=0;" edge="1" parent="Qdgy6ZPI5KY39HfYruzL-448">
          <mxGeometry width="50" height="50" relative="1" as="geometry">
            <mxPoint y="20" as="sourcePoint" />
            <mxPoint x="50" y="20" as="targetPoint" />
          </mxGeometry>
        </mxCell>
        <mxCell id="Qdgy6ZPI5KY39HfYruzL-450" value="C20" style="text;html=1;strokeColor=none;fillColor=none;align=center;verticalAlign=middle;whiteSpace=wrap;rounded=0;fontSize=9;" vertex="1" parent="Qdgy6ZPI5KY39HfYruzL-448">
          <mxGeometry x="12.499107142857143" y="10" width="14.285714285714283" height="10" as="geometry" />
        </mxCell>
        <mxCell id="Qdgy6ZPI5KY39HfYruzL-451" value="1" style="text;html=1;strokeColor=none;fillColor=none;align=center;verticalAlign=middle;whiteSpace=wrap;rounded=0;fontSize=9;" vertex="1" parent="Qdgy6ZPI5KY39HfYruzL-448">
          <mxGeometry x="12.499107142857143" y="20" width="14.285714285714283" height="10" as="geometry" />
        </mxCell>
        <mxCell id="Qdgy6ZPI5KY39HfYruzL-452" value="" style="group" connectable="0" vertex="1" parent="1">
          <mxGeometry x="1050" y="420" width="50" height="40" as="geometry" />
        </mxCell>
        <mxCell id="Qdgy6ZPI5KY39HfYruzL-453" value="" style="endArrow=classic;html=1;rounded=0;fillColor=#a20025;strokeColor=#6F0000;" edge="1" parent="Qdgy6ZPI5KY39HfYruzL-452">
          <mxGeometry width="50" height="50" relative="1" as="geometry">
            <mxPoint y="20" as="sourcePoint" />
            <mxPoint x="50" y="20" as="targetPoint" />
          </mxGeometry>
        </mxCell>
        <mxCell id="Qdgy6ZPI5KY39HfYruzL-454" value="C22" style="text;html=1;strokeColor=none;fillColor=none;align=center;verticalAlign=middle;whiteSpace=wrap;rounded=0;fontSize=9;" vertex="1" parent="Qdgy6ZPI5KY39HfYruzL-452">
          <mxGeometry x="12.499107142857143" y="10" width="14.285714285714283" height="10" as="geometry" />
        </mxCell>
        <mxCell id="Qdgy6ZPI5KY39HfYruzL-455" value="1" style="text;html=1;strokeColor=none;fillColor=none;align=center;verticalAlign=middle;whiteSpace=wrap;rounded=0;fontSize=9;" vertex="1" parent="Qdgy6ZPI5KY39HfYruzL-452">
          <mxGeometry x="12.499107142857143" y="20" width="14.285714285714283" height="10" as="geometry" />
        </mxCell>
        <mxCell id="Qdgy6ZPI5KY39HfYruzL-459" value="" style="group" connectable="0" vertex="1" parent="1">
          <mxGeometry x="1100" y="490" width="60" height="60" as="geometry" />
        </mxCell>
        <mxCell id="Qdgy6ZPI5KY39HfYruzL-460" value="" style="ellipse;whiteSpace=wrap;html=1;aspect=fixed;" vertex="1" parent="Qdgy6ZPI5KY39HfYruzL-459">
          <mxGeometry width="60" height="60" as="geometry" />
        </mxCell>
        <mxCell id="Qdgy6ZPI5KY39HfYruzL-461" value="" style="endArrow=none;html=1;rounded=0;entryX=0;entryY=0;entryDx=0;entryDy=0;exitX=1;exitY=1;exitDx=0;exitDy=0;" edge="1" parent="Qdgy6ZPI5KY39HfYruzL-459" source="Qdgy6ZPI5KY39HfYruzL-460" target="Qdgy6ZPI5KY39HfYruzL-460">
          <mxGeometry width="50" height="50" relative="1" as="geometry">
            <mxPoint x="105" y="-15" as="sourcePoint" />
            <mxPoint x="240" y="22.5" as="targetPoint" />
          </mxGeometry>
        </mxCell>
        <mxCell id="Qdgy6ZPI5KY39HfYruzL-462" value="" style="endArrow=none;html=1;rounded=0;entryX=1;entryY=0;entryDx=0;entryDy=0;exitX=0;exitY=1;exitDx=0;exitDy=0;" edge="1" parent="Qdgy6ZPI5KY39HfYruzL-459" source="Qdgy6ZPI5KY39HfYruzL-460" target="Qdgy6ZPI5KY39HfYruzL-460">
          <mxGeometry width="50" height="50" relative="1" as="geometry">
            <mxPoint x="165" y="45" as="sourcePoint" />
            <mxPoint x="202.5" y="7.5" as="targetPoint" />
          </mxGeometry>
        </mxCell>
        <mxCell id="Qdgy6ZPI5KY39HfYruzL-463" value="31" style="text;html=1;strokeColor=none;fillColor=none;align=center;verticalAlign=middle;whiteSpace=wrap;rounded=0;" vertex="1" parent="Qdgy6ZPI5KY39HfYruzL-459">
          <mxGeometry x="7.5" y="24.375" width="15" height="11.25" as="geometry" />
        </mxCell>
        <mxCell id="Qdgy6ZPI5KY39HfYruzL-464" value="28" style="text;html=1;strokeColor=none;fillColor=none;align=center;verticalAlign=middle;whiteSpace=wrap;rounded=0;" vertex="1" parent="Qdgy6ZPI5KY39HfYruzL-459">
          <mxGeometry x="22.5" y="7.5" width="15" height="11.25" as="geometry" />
        </mxCell>
        <mxCell id="Qdgy6ZPI5KY39HfYruzL-465" value="28" style="text;html=1;strokeColor=none;fillColor=none;align=center;verticalAlign=middle;whiteSpace=wrap;rounded=0;" vertex="1" parent="Qdgy6ZPI5KY39HfYruzL-459">
          <mxGeometry x="22.5" y="39.375" width="15" height="11.25" as="geometry" />
        </mxCell>
        <mxCell id="Qdgy6ZPI5KY39HfYruzL-466" value="0" style="text;html=1;strokeColor=none;fillColor=none;align=center;verticalAlign=middle;whiteSpace=wrap;rounded=0;" vertex="1" parent="Qdgy6ZPI5KY39HfYruzL-459">
          <mxGeometry x="37.5" y="24.375" width="15" height="11.25" as="geometry" />
        </mxCell>
        <mxCell id="Qdgy6ZPI5KY39HfYruzL-467" value="" style="group" connectable="0" vertex="1" parent="1">
          <mxGeometry x="1100" y="410" width="60" height="60" as="geometry" />
        </mxCell>
        <mxCell id="Qdgy6ZPI5KY39HfYruzL-468" value="" style="ellipse;whiteSpace=wrap;html=1;aspect=fixed;" vertex="1" parent="Qdgy6ZPI5KY39HfYruzL-467">
          <mxGeometry width="60" height="60" as="geometry" />
        </mxCell>
        <mxCell id="Qdgy6ZPI5KY39HfYruzL-469" value="" style="endArrow=none;html=1;rounded=0;entryX=0;entryY=0;entryDx=0;entryDy=0;exitX=1;exitY=1;exitDx=0;exitDy=0;" edge="1" parent="Qdgy6ZPI5KY39HfYruzL-467" source="Qdgy6ZPI5KY39HfYruzL-468" target="Qdgy6ZPI5KY39HfYruzL-468">
          <mxGeometry width="50" height="50" relative="1" as="geometry">
            <mxPoint x="105" y="-15" as="sourcePoint" />
            <mxPoint x="240" y="22.5" as="targetPoint" />
          </mxGeometry>
        </mxCell>
        <mxCell id="Qdgy6ZPI5KY39HfYruzL-470" value="" style="endArrow=none;html=1;rounded=0;entryX=1;entryY=0;entryDx=0;entryDy=0;exitX=0;exitY=1;exitDx=0;exitDy=0;" edge="1" parent="Qdgy6ZPI5KY39HfYruzL-467" source="Qdgy6ZPI5KY39HfYruzL-468" target="Qdgy6ZPI5KY39HfYruzL-468">
          <mxGeometry width="50" height="50" relative="1" as="geometry">
            <mxPoint x="165" y="45" as="sourcePoint" />
            <mxPoint x="202.5" y="7.5" as="targetPoint" />
          </mxGeometry>
        </mxCell>
        <mxCell id="Qdgy6ZPI5KY39HfYruzL-471" value="30" style="text;html=1;strokeColor=none;fillColor=none;align=center;verticalAlign=middle;whiteSpace=wrap;rounded=0;" vertex="1" parent="Qdgy6ZPI5KY39HfYruzL-467">
          <mxGeometry x="7.5" y="24.375" width="15" height="11.25" as="geometry" />
        </mxCell>
        <mxCell id="Qdgy6ZPI5KY39HfYruzL-472" value="28" style="text;html=1;strokeColor=none;fillColor=none;align=center;verticalAlign=middle;whiteSpace=wrap;rounded=0;" vertex="1" parent="Qdgy6ZPI5KY39HfYruzL-467">
          <mxGeometry x="22.5" y="7.5" width="15" height="11.25" as="geometry" />
        </mxCell>
        <mxCell id="Qdgy6ZPI5KY39HfYruzL-473" value="28" style="text;html=1;strokeColor=none;fillColor=none;align=center;verticalAlign=middle;whiteSpace=wrap;rounded=0;" vertex="1" parent="Qdgy6ZPI5KY39HfYruzL-467">
          <mxGeometry x="22.5" y="39.375" width="15" height="11.25" as="geometry" />
        </mxCell>
        <mxCell id="Qdgy6ZPI5KY39HfYruzL-474" value="0" style="text;html=1;strokeColor=none;fillColor=none;align=center;verticalAlign=middle;whiteSpace=wrap;rounded=0;" vertex="1" parent="Qdgy6ZPI5KY39HfYruzL-467">
          <mxGeometry x="37.5" y="24.375" width="15" height="11.25" as="geometry" />
        </mxCell>
        <mxCell id="Qdgy6ZPI5KY39HfYruzL-475" value="" style="endArrow=block;dashed=1;endFill=0;endSize=12;html=1;rounded=0;entryX=0.5;entryY=0;entryDx=0;entryDy=0;exitX=0.5;exitY=1;exitDx=0;exitDy=0;fillColor=#a20025;strokeColor=#6F0000;" edge="1" parent="1" source="Qdgy6ZPI5KY39HfYruzL-468" target="Qdgy6ZPI5KY39HfYruzL-460">
          <mxGeometry width="160" relative="1" as="geometry">
            <mxPoint x="920" y="480" as="sourcePoint" />
            <mxPoint x="920" y="500" as="targetPoint" />
          </mxGeometry>
        </mxCell>
        <mxCell id="Qdgy6ZPI5KY39HfYruzL-476" value="" style="group" connectable="0" vertex="1" parent="1">
          <mxGeometry x="1160" y="500" width="50" height="40" as="geometry" />
        </mxCell>
        <mxCell id="Qdgy6ZPI5KY39HfYruzL-477" value="" style="endArrow=classic;html=1;rounded=0;" edge="1" parent="Qdgy6ZPI5KY39HfYruzL-476">
          <mxGeometry width="50" height="50" relative="1" as="geometry">
            <mxPoint y="20" as="sourcePoint" />
            <mxPoint x="50" y="20" as="targetPoint" />
          </mxGeometry>
        </mxCell>
        <mxCell id="Qdgy6ZPI5KY39HfYruzL-478" value="C25" style="text;html=1;strokeColor=none;fillColor=none;align=center;verticalAlign=middle;whiteSpace=wrap;rounded=0;fontSize=9;" vertex="1" parent="Qdgy6ZPI5KY39HfYruzL-476">
          <mxGeometry x="12.499107142857143" y="10" width="14.285714285714283" height="10" as="geometry" />
        </mxCell>
        <mxCell id="Qdgy6ZPI5KY39HfYruzL-479" value="4" style="text;html=1;strokeColor=none;fillColor=none;align=center;verticalAlign=middle;whiteSpace=wrap;rounded=0;fontSize=9;" vertex="1" parent="Qdgy6ZPI5KY39HfYruzL-476">
          <mxGeometry x="12.499107142857143" y="20" width="14.285714285714283" height="10" as="geometry" />
        </mxCell>
        <mxCell id="Qdgy6ZPI5KY39HfYruzL-480" value="" style="group;rotation=-45;" connectable="0" vertex="1" parent="1">
          <mxGeometry x="1140" y="450" width="80" height="40" as="geometry" />
        </mxCell>
        <mxCell id="Qdgy6ZPI5KY39HfYruzL-481" value="" style="endArrow=classic;html=1;rounded=0;" edge="1" parent="Qdgy6ZPI5KY39HfYruzL-480">
          <mxGeometry width="50" height="50" relative="1" as="geometry">
            <mxPoint x="11" y="48" as="sourcePoint" />
            <mxPoint x="69" y="-8" as="targetPoint" />
          </mxGeometry>
        </mxCell>
        <mxCell id="Qdgy6ZPI5KY39HfYruzL-482" value="C23" style="text;html=1;strokeColor=none;fillColor=none;align=center;verticalAlign=middle;whiteSpace=wrap;rounded=0;fontSize=9;rotation=-45;" vertex="1" parent="Qdgy6ZPI5KY39HfYruzL-480">
          <mxGeometry x="19" y="17" width="22.857142857142854" height="10" as="geometry" />
        </mxCell>
        <mxCell id="Qdgy6ZPI5KY39HfYruzL-483" value="3" style="text;html=1;strokeColor=none;fillColor=none;align=center;verticalAlign=middle;whiteSpace=wrap;rounded=0;fontSize=9;rotation=-45;" vertex="1" parent="Qdgy6ZPI5KY39HfYruzL-480">
          <mxGeometry x="26" y="25" width="22.857142857142854" height="10" as="geometry" />
        </mxCell>
        <mxCell id="Qdgy6ZPI5KY39HfYruzL-485" value="" style="group;rotation=45;fontStyle=1" connectable="0" vertex="1" parent="1">
          <mxGeometry x="1140" y="550" width="80" height="40" as="geometry" />
        </mxCell>
        <mxCell id="Qdgy6ZPI5KY39HfYruzL-486" value="" style="endArrow=classic;html=1;rounded=0;fillColor=#a20025;strokeColor=#6F0000;" edge="1" parent="Qdgy6ZPI5KY39HfYruzL-485">
          <mxGeometry width="50" height="50" relative="1" as="geometry">
            <mxPoint x="12" y="-9" as="sourcePoint" />
            <mxPoint x="68" y="49" as="targetPoint" />
          </mxGeometry>
        </mxCell>
        <mxCell id="Qdgy6ZPI5KY39HfYruzL-487" value="C27" style="text;html=1;strokeColor=none;fillColor=none;align=center;verticalAlign=middle;whiteSpace=wrap;rounded=0;fontSize=9;rotation=45;" vertex="1" parent="Qdgy6ZPI5KY39HfYruzL-485">
          <mxGeometry x="27" y="5" width="22.857142857142854" height="10" as="geometry" />
        </mxCell>
        <mxCell id="Qdgy6ZPI5KY39HfYruzL-488" value="5" style="text;html=1;strokeColor=none;fillColor=none;align=center;verticalAlign=middle;whiteSpace=wrap;rounded=0;fontSize=9;rotation=45;" vertex="1" parent="Qdgy6ZPI5KY39HfYruzL-485">
          <mxGeometry x="19" y="12" width="22.857142857142854" height="10" as="geometry" />
        </mxCell>
        <mxCell id="Qdgy6ZPI5KY39HfYruzL-489" value="" style="group" connectable="0" vertex="1" parent="1">
          <mxGeometry x="1210" y="410" width="60" height="60" as="geometry" />
        </mxCell>
        <mxCell id="Qdgy6ZPI5KY39HfYruzL-490" value="" style="ellipse;whiteSpace=wrap;html=1;aspect=fixed;" vertex="1" parent="Qdgy6ZPI5KY39HfYruzL-489">
          <mxGeometry width="60" height="60" as="geometry" />
        </mxCell>
        <mxCell id="Qdgy6ZPI5KY39HfYruzL-491" value="" style="endArrow=none;html=1;rounded=0;entryX=0;entryY=0;entryDx=0;entryDy=0;exitX=1;exitY=1;exitDx=0;exitDy=0;" edge="1" parent="Qdgy6ZPI5KY39HfYruzL-489" source="Qdgy6ZPI5KY39HfYruzL-490" target="Qdgy6ZPI5KY39HfYruzL-490">
          <mxGeometry width="50" height="50" relative="1" as="geometry">
            <mxPoint x="105" y="-15" as="sourcePoint" />
            <mxPoint x="240" y="22.5" as="targetPoint" />
          </mxGeometry>
        </mxCell>
        <mxCell id="Qdgy6ZPI5KY39HfYruzL-492" value="" style="endArrow=none;html=1;rounded=0;entryX=1;entryY=0;entryDx=0;entryDy=0;exitX=0;exitY=1;exitDx=0;exitDy=0;" edge="1" parent="Qdgy6ZPI5KY39HfYruzL-489" source="Qdgy6ZPI5KY39HfYruzL-490" target="Qdgy6ZPI5KY39HfYruzL-490">
          <mxGeometry width="50" height="50" relative="1" as="geometry">
            <mxPoint x="165" y="45" as="sourcePoint" />
            <mxPoint x="202.5" y="7.5" as="targetPoint" />
          </mxGeometry>
        </mxCell>
        <mxCell id="Qdgy6ZPI5KY39HfYruzL-493" value="32" style="text;html=1;strokeColor=none;fillColor=none;align=center;verticalAlign=middle;whiteSpace=wrap;rounded=0;" vertex="1" parent="Qdgy6ZPI5KY39HfYruzL-489">
          <mxGeometry x="7.5" y="24.375" width="15" height="11.25" as="geometry" />
        </mxCell>
        <mxCell id="Qdgy6ZPI5KY39HfYruzL-494" value="31" style="text;html=1;strokeColor=none;fillColor=none;align=center;verticalAlign=middle;whiteSpace=wrap;rounded=0;" vertex="1" parent="Qdgy6ZPI5KY39HfYruzL-489">
          <mxGeometry x="22.5" y="7.5" width="15" height="11.25" as="geometry" />
        </mxCell>
        <mxCell id="Qdgy6ZPI5KY39HfYruzL-495" value="35" style="text;html=1;strokeColor=none;fillColor=none;align=center;verticalAlign=middle;whiteSpace=wrap;rounded=0;" vertex="1" parent="Qdgy6ZPI5KY39HfYruzL-489">
          <mxGeometry x="22.5" y="39.375" width="15" height="11.25" as="geometry" />
        </mxCell>
        <mxCell id="Qdgy6ZPI5KY39HfYruzL-496" value="0" style="text;html=1;strokeColor=none;fillColor=none;align=center;verticalAlign=middle;whiteSpace=wrap;rounded=0;" vertex="1" parent="Qdgy6ZPI5KY39HfYruzL-489">
          <mxGeometry x="37.5" y="24.375" width="15" height="11.25" as="geometry" />
        </mxCell>
        <mxCell id="Qdgy6ZPI5KY39HfYruzL-497" value="" style="group" connectable="0" vertex="1" parent="1">
          <mxGeometry x="1210" y="490" width="60" height="60" as="geometry" />
        </mxCell>
        <mxCell id="Qdgy6ZPI5KY39HfYruzL-498" value="" style="ellipse;whiteSpace=wrap;html=1;aspect=fixed;" vertex="1" parent="Qdgy6ZPI5KY39HfYruzL-497">
          <mxGeometry width="60" height="60" as="geometry" />
        </mxCell>
        <mxCell id="Qdgy6ZPI5KY39HfYruzL-499" value="" style="endArrow=none;html=1;rounded=0;entryX=0;entryY=0;entryDx=0;entryDy=0;exitX=1;exitY=1;exitDx=0;exitDy=0;" edge="1" parent="Qdgy6ZPI5KY39HfYruzL-497" source="Qdgy6ZPI5KY39HfYruzL-498" target="Qdgy6ZPI5KY39HfYruzL-498">
          <mxGeometry width="50" height="50" relative="1" as="geometry">
            <mxPoint x="105" y="-15" as="sourcePoint" />
            <mxPoint x="240" y="22.5" as="targetPoint" />
          </mxGeometry>
        </mxCell>
        <mxCell id="Qdgy6ZPI5KY39HfYruzL-500" value="" style="endArrow=none;html=1;rounded=0;entryX=1;entryY=0;entryDx=0;entryDy=0;exitX=0;exitY=1;exitDx=0;exitDy=0;" edge="1" parent="Qdgy6ZPI5KY39HfYruzL-497" source="Qdgy6ZPI5KY39HfYruzL-498" target="Qdgy6ZPI5KY39HfYruzL-498">
          <mxGeometry width="50" height="50" relative="1" as="geometry">
            <mxPoint x="165" y="45" as="sourcePoint" />
            <mxPoint x="202.5" y="7.5" as="targetPoint" />
          </mxGeometry>
        </mxCell>
        <mxCell id="Qdgy6ZPI5KY39HfYruzL-501" value="33" style="text;html=1;strokeColor=none;fillColor=none;align=center;verticalAlign=middle;whiteSpace=wrap;rounded=0;" vertex="1" parent="Qdgy6ZPI5KY39HfYruzL-497">
          <mxGeometry x="7.5" y="24.375" width="15" height="11.25" as="geometry" />
        </mxCell>
        <mxCell id="Qdgy6ZPI5KY39HfYruzL-502" value="32" style="text;html=1;strokeColor=none;fillColor=none;align=center;verticalAlign=middle;whiteSpace=wrap;rounded=0;" vertex="1" parent="Qdgy6ZPI5KY39HfYruzL-497">
          <mxGeometry x="22.5" y="7.5" width="15" height="11.25" as="geometry" />
        </mxCell>
        <mxCell id="Qdgy6ZPI5KY39HfYruzL-503" value="35" style="text;html=1;strokeColor=none;fillColor=none;align=center;verticalAlign=middle;whiteSpace=wrap;rounded=0;" vertex="1" parent="Qdgy6ZPI5KY39HfYruzL-497">
          <mxGeometry x="22.5" y="39.375" width="15" height="11.25" as="geometry" />
        </mxCell>
        <mxCell id="Qdgy6ZPI5KY39HfYruzL-504" value="0" style="text;html=1;strokeColor=none;fillColor=none;align=center;verticalAlign=middle;whiteSpace=wrap;rounded=0;" vertex="1" parent="Qdgy6ZPI5KY39HfYruzL-497">
          <mxGeometry x="37.5" y="24.375" width="15" height="11.25" as="geometry" />
        </mxCell>
        <mxCell id="Qdgy6ZPI5KY39HfYruzL-505" value="" style="group" connectable="0" vertex="1" parent="1">
          <mxGeometry x="1210" y="570" width="60" height="60" as="geometry" />
        </mxCell>
        <mxCell id="Qdgy6ZPI5KY39HfYruzL-506" value="" style="ellipse;whiteSpace=wrap;html=1;aspect=fixed;" vertex="1" parent="Qdgy6ZPI5KY39HfYruzL-505">
          <mxGeometry width="60" height="60" as="geometry" />
        </mxCell>
        <mxCell id="Qdgy6ZPI5KY39HfYruzL-507" value="" style="endArrow=none;html=1;rounded=0;entryX=0;entryY=0;entryDx=0;entryDy=0;exitX=1;exitY=1;exitDx=0;exitDy=0;" edge="1" parent="Qdgy6ZPI5KY39HfYruzL-505" source="Qdgy6ZPI5KY39HfYruzL-506" target="Qdgy6ZPI5KY39HfYruzL-506">
          <mxGeometry width="50" height="50" relative="1" as="geometry">
            <mxPoint x="105" y="-15" as="sourcePoint" />
            <mxPoint x="240" y="22.5" as="targetPoint" />
          </mxGeometry>
        </mxCell>
        <mxCell id="Qdgy6ZPI5KY39HfYruzL-508" value="" style="endArrow=none;html=1;rounded=0;entryX=1;entryY=0;entryDx=0;entryDy=0;exitX=0;exitY=1;exitDx=0;exitDy=0;" edge="1" parent="Qdgy6ZPI5KY39HfYruzL-505" source="Qdgy6ZPI5KY39HfYruzL-506" target="Qdgy6ZPI5KY39HfYruzL-506">
          <mxGeometry width="50" height="50" relative="1" as="geometry">
            <mxPoint x="165" y="45" as="sourcePoint" />
            <mxPoint x="202.5" y="7.5" as="targetPoint" />
          </mxGeometry>
        </mxCell>
        <mxCell id="Qdgy6ZPI5KY39HfYruzL-509" value="34" style="text;html=1;strokeColor=none;fillColor=none;align=center;verticalAlign=middle;whiteSpace=wrap;rounded=0;" vertex="1" parent="Qdgy6ZPI5KY39HfYruzL-505">
          <mxGeometry x="7.5" y="24.375" width="15" height="11.25" as="geometry" />
        </mxCell>
        <mxCell id="Qdgy6ZPI5KY39HfYruzL-510" value="33" style="text;html=1;strokeColor=none;fillColor=none;align=center;verticalAlign=middle;whiteSpace=wrap;rounded=0;" vertex="1" parent="Qdgy6ZPI5KY39HfYruzL-505">
          <mxGeometry x="22.5" y="7.5" width="15" height="11.25" as="geometry" />
        </mxCell>
        <mxCell id="Qdgy6ZPI5KY39HfYruzL-511" value="33" style="text;html=1;strokeColor=none;fillColor=none;align=center;verticalAlign=middle;whiteSpace=wrap;rounded=0;" vertex="1" parent="Qdgy6ZPI5KY39HfYruzL-505">
          <mxGeometry x="22.5" y="39.375" width="15" height="11.25" as="geometry" />
        </mxCell>
        <mxCell id="Qdgy6ZPI5KY39HfYruzL-512" value="0" style="text;html=1;strokeColor=none;fillColor=none;align=center;verticalAlign=middle;whiteSpace=wrap;rounded=0;" vertex="1" parent="Qdgy6ZPI5KY39HfYruzL-505">
          <mxGeometry x="37.5" y="24.375" width="15" height="11.25" as="geometry" />
        </mxCell>
        <mxCell id="Qdgy6ZPI5KY39HfYruzL-513" value="" style="endArrow=block;dashed=1;endFill=0;endSize=12;html=1;rounded=0;entryX=0.5;entryY=1;entryDx=0;entryDy=0;exitX=0.5;exitY=0;exitDx=0;exitDy=0;fillColor=#a20025;strokeColor=#6F0000;" edge="1" parent="1" source="Qdgy6ZPI5KY39HfYruzL-544" target="Qdgy6ZPI5KY39HfYruzL-536">
          <mxGeometry width="160" relative="1" as="geometry">
            <mxPoint x="1140" y="480" as="sourcePoint" />
            <mxPoint x="1140" y="500" as="targetPoint" />
          </mxGeometry>
        </mxCell>
        <mxCell id="Qdgy6ZPI5KY39HfYruzL-514" value="" style="endArrow=block;dashed=1;endFill=0;endSize=12;html=1;rounded=0;entryX=0.5;entryY=0;entryDx=0;entryDy=0;exitX=0.5;exitY=1;exitDx=0;exitDy=0;" edge="1" parent="1" source="Qdgy6ZPI5KY39HfYruzL-528" target="Qdgy6ZPI5KY39HfYruzL-536">
          <mxGeometry width="160" relative="1" as="geometry">
            <mxPoint x="1140" y="480" as="sourcePoint" />
            <mxPoint x="1140" y="500" as="targetPoint" />
          </mxGeometry>
        </mxCell>
        <mxCell id="Qdgy6ZPI5KY39HfYruzL-515" value="" style="group" connectable="0" vertex="1" parent="1">
          <mxGeometry x="1270" y="500" width="50" height="40" as="geometry" />
        </mxCell>
        <mxCell id="Qdgy6ZPI5KY39HfYruzL-516" value="" style="endArrow=classic;html=1;rounded=0;" edge="1" parent="Qdgy6ZPI5KY39HfYruzL-515">
          <mxGeometry width="50" height="50" relative="1" as="geometry">
            <mxPoint y="20" as="sourcePoint" />
            <mxPoint x="50" y="20" as="targetPoint" />
          </mxGeometry>
        </mxCell>
        <mxCell id="Qdgy6ZPI5KY39HfYruzL-517" value="C26" style="text;html=1;strokeColor=none;fillColor=none;align=center;verticalAlign=middle;whiteSpace=wrap;rounded=0;fontSize=9;" vertex="1" parent="Qdgy6ZPI5KY39HfYruzL-515">
          <mxGeometry x="12.499107142857143" y="10" width="14.285714285714283" height="10" as="geometry" />
        </mxCell>
        <mxCell id="Qdgy6ZPI5KY39HfYruzL-518" value="1" style="text;html=1;strokeColor=none;fillColor=none;align=center;verticalAlign=middle;whiteSpace=wrap;rounded=0;fontSize=9;" vertex="1" parent="Qdgy6ZPI5KY39HfYruzL-515">
          <mxGeometry x="12.499107142857143" y="20" width="14.285714285714283" height="10" as="geometry" />
        </mxCell>
        <mxCell id="Qdgy6ZPI5KY39HfYruzL-519" value="" style="group" connectable="0" vertex="1" parent="1">
          <mxGeometry x="1270" y="420" width="50" height="40" as="geometry" />
        </mxCell>
        <mxCell id="Qdgy6ZPI5KY39HfYruzL-520" value="" style="endArrow=classic;html=1;rounded=0;" edge="1" parent="Qdgy6ZPI5KY39HfYruzL-519">
          <mxGeometry width="50" height="50" relative="1" as="geometry">
            <mxPoint y="20" as="sourcePoint" />
            <mxPoint x="50" y="20" as="targetPoint" />
          </mxGeometry>
        </mxCell>
        <mxCell id="Qdgy6ZPI5KY39HfYruzL-521" value="C24" style="text;html=1;strokeColor=none;fillColor=none;align=center;verticalAlign=middle;whiteSpace=wrap;rounded=0;fontSize=9;" vertex="1" parent="Qdgy6ZPI5KY39HfYruzL-519">
          <mxGeometry x="12.499107142857143" y="10" width="14.285714285714283" height="10" as="geometry" />
        </mxCell>
        <mxCell id="Qdgy6ZPI5KY39HfYruzL-522" value="1" style="text;html=1;strokeColor=none;fillColor=none;align=center;verticalAlign=middle;whiteSpace=wrap;rounded=0;fontSize=9;" vertex="1" parent="Qdgy6ZPI5KY39HfYruzL-519">
          <mxGeometry x="12.499107142857143" y="20" width="14.285714285714283" height="10" as="geometry" />
        </mxCell>
        <mxCell id="Qdgy6ZPI5KY39HfYruzL-523" value="" style="group" connectable="0" vertex="1" parent="1">
          <mxGeometry x="1270" y="580" width="50" height="40" as="geometry" />
        </mxCell>
        <mxCell id="Qdgy6ZPI5KY39HfYruzL-524" value="" style="endArrow=classic;html=1;rounded=0;fillColor=#a20025;strokeColor=#6F0000;" edge="1" parent="Qdgy6ZPI5KY39HfYruzL-523">
          <mxGeometry width="50" height="50" relative="1" as="geometry">
            <mxPoint y="20" as="sourcePoint" />
            <mxPoint x="50" y="20" as="targetPoint" />
          </mxGeometry>
        </mxCell>
        <mxCell id="Qdgy6ZPI5KY39HfYruzL-525" value="C28" style="text;html=1;strokeColor=none;fillColor=none;align=center;verticalAlign=middle;whiteSpace=wrap;rounded=0;fontSize=9;" vertex="1" parent="Qdgy6ZPI5KY39HfYruzL-523">
          <mxGeometry x="12.499107142857143" y="10" width="14.285714285714283" height="10" as="geometry" />
        </mxCell>
        <mxCell id="Qdgy6ZPI5KY39HfYruzL-526" value="3" style="text;html=1;strokeColor=none;fillColor=none;align=center;verticalAlign=middle;whiteSpace=wrap;rounded=0;fontSize=9;" vertex="1" parent="Qdgy6ZPI5KY39HfYruzL-523">
          <mxGeometry x="12.499107142857143" y="20" width="14.285714285714283" height="10" as="geometry" />
        </mxCell>
        <mxCell id="Qdgy6ZPI5KY39HfYruzL-527" value="" style="group" connectable="0" vertex="1" parent="1">
          <mxGeometry x="1320" y="410" width="60" height="60" as="geometry" />
        </mxCell>
        <mxCell id="Qdgy6ZPI5KY39HfYruzL-528" value="" style="ellipse;whiteSpace=wrap;html=1;aspect=fixed;" vertex="1" parent="Qdgy6ZPI5KY39HfYruzL-527">
          <mxGeometry width="60" height="60" as="geometry" />
        </mxCell>
        <mxCell id="Qdgy6ZPI5KY39HfYruzL-529" value="" style="endArrow=none;html=1;rounded=0;entryX=0;entryY=0;entryDx=0;entryDy=0;exitX=1;exitY=1;exitDx=0;exitDy=0;" edge="1" parent="Qdgy6ZPI5KY39HfYruzL-527" source="Qdgy6ZPI5KY39HfYruzL-528" target="Qdgy6ZPI5KY39HfYruzL-528">
          <mxGeometry width="50" height="50" relative="1" as="geometry">
            <mxPoint x="105" y="-15" as="sourcePoint" />
            <mxPoint x="240" y="22.5" as="targetPoint" />
          </mxGeometry>
        </mxCell>
        <mxCell id="Qdgy6ZPI5KY39HfYruzL-530" value="" style="endArrow=none;html=1;rounded=0;entryX=1;entryY=0;entryDx=0;entryDy=0;exitX=0;exitY=1;exitDx=0;exitDy=0;" edge="1" parent="Qdgy6ZPI5KY39HfYruzL-527" source="Qdgy6ZPI5KY39HfYruzL-528" target="Qdgy6ZPI5KY39HfYruzL-528">
          <mxGeometry width="50" height="50" relative="1" as="geometry">
            <mxPoint x="165" y="45" as="sourcePoint" />
            <mxPoint x="202.5" y="7.5" as="targetPoint" />
          </mxGeometry>
        </mxCell>
        <mxCell id="Qdgy6ZPI5KY39HfYruzL-531" value="35" style="text;html=1;strokeColor=none;fillColor=none;align=center;verticalAlign=middle;whiteSpace=wrap;rounded=0;" vertex="1" parent="Qdgy6ZPI5KY39HfYruzL-527">
          <mxGeometry x="7.5" y="24.375" width="15" height="11.25" as="geometry" />
        </mxCell>
        <mxCell id="Qdgy6ZPI5KY39HfYruzL-532" value="32" style="text;html=1;strokeColor=none;fillColor=none;align=center;verticalAlign=middle;whiteSpace=wrap;rounded=0;" vertex="1" parent="Qdgy6ZPI5KY39HfYruzL-527">
          <mxGeometry x="22.5" y="7.5" width="15" height="11.25" as="geometry" />
        </mxCell>
        <mxCell id="Qdgy6ZPI5KY39HfYruzL-533" value="36" style="text;html=1;strokeColor=none;fillColor=none;align=center;verticalAlign=middle;whiteSpace=wrap;rounded=0;" vertex="1" parent="Qdgy6ZPI5KY39HfYruzL-527">
          <mxGeometry x="22.5" y="39.375" width="15" height="11.25" as="geometry" />
        </mxCell>
        <mxCell id="Qdgy6ZPI5KY39HfYruzL-534" value="0" style="text;html=1;strokeColor=none;fillColor=none;align=center;verticalAlign=middle;whiteSpace=wrap;rounded=0;" vertex="1" parent="Qdgy6ZPI5KY39HfYruzL-527">
          <mxGeometry x="37.5" y="24.375" width="15" height="11.25" as="geometry" />
        </mxCell>
        <mxCell id="Qdgy6ZPI5KY39HfYruzL-535" value="" style="group" connectable="0" vertex="1" parent="1">
          <mxGeometry x="1320" y="490" width="60" height="60" as="geometry" />
        </mxCell>
        <mxCell id="Qdgy6ZPI5KY39HfYruzL-536" value="" style="ellipse;whiteSpace=wrap;html=1;aspect=fixed;" vertex="1" parent="Qdgy6ZPI5KY39HfYruzL-535">
          <mxGeometry width="60" height="60" as="geometry" />
        </mxCell>
        <mxCell id="Qdgy6ZPI5KY39HfYruzL-537" value="" style="endArrow=none;html=1;rounded=0;entryX=0;entryY=0;entryDx=0;entryDy=0;exitX=1;exitY=1;exitDx=0;exitDy=0;" edge="1" parent="Qdgy6ZPI5KY39HfYruzL-535" source="Qdgy6ZPI5KY39HfYruzL-536" target="Qdgy6ZPI5KY39HfYruzL-536">
          <mxGeometry width="50" height="50" relative="1" as="geometry">
            <mxPoint x="105" y="-15" as="sourcePoint" />
            <mxPoint x="240" y="22.5" as="targetPoint" />
          </mxGeometry>
        </mxCell>
        <mxCell id="Qdgy6ZPI5KY39HfYruzL-538" value="" style="endArrow=none;html=1;rounded=0;entryX=1;entryY=0;entryDx=0;entryDy=0;exitX=0;exitY=1;exitDx=0;exitDy=0;" edge="1" parent="Qdgy6ZPI5KY39HfYruzL-535" source="Qdgy6ZPI5KY39HfYruzL-536" target="Qdgy6ZPI5KY39HfYruzL-536">
          <mxGeometry width="50" height="50" relative="1" as="geometry">
            <mxPoint x="165" y="45" as="sourcePoint" />
            <mxPoint x="202.5" y="7.5" as="targetPoint" />
          </mxGeometry>
        </mxCell>
        <mxCell id="Qdgy6ZPI5KY39HfYruzL-539" value="36" style="text;html=1;strokeColor=none;fillColor=none;align=center;verticalAlign=middle;whiteSpace=wrap;rounded=0;" vertex="1" parent="Qdgy6ZPI5KY39HfYruzL-535">
          <mxGeometry x="7.5" y="24.375" width="15" height="11.25" as="geometry" />
        </mxCell>
        <mxCell id="Qdgy6ZPI5KY39HfYruzL-540" value="36" style="text;html=1;strokeColor=none;fillColor=none;align=center;verticalAlign=middle;whiteSpace=wrap;rounded=0;" vertex="1" parent="Qdgy6ZPI5KY39HfYruzL-535">
          <mxGeometry x="22.5" y="7.5" width="15" height="11.25" as="geometry" />
        </mxCell>
        <mxCell id="Qdgy6ZPI5KY39HfYruzL-541" value="36" style="text;html=1;strokeColor=none;fillColor=none;align=center;verticalAlign=middle;whiteSpace=wrap;rounded=0;" vertex="1" parent="Qdgy6ZPI5KY39HfYruzL-535">
          <mxGeometry x="22.5" y="39.375" width="15" height="11.25" as="geometry" />
        </mxCell>
        <mxCell id="Qdgy6ZPI5KY39HfYruzL-542" value="0" style="text;html=1;strokeColor=none;fillColor=none;align=center;verticalAlign=middle;whiteSpace=wrap;rounded=0;" vertex="1" parent="Qdgy6ZPI5KY39HfYruzL-535">
          <mxGeometry x="37.5" y="24.375" width="15" height="11.25" as="geometry" />
        </mxCell>
        <mxCell id="Qdgy6ZPI5KY39HfYruzL-543" value="" style="group" connectable="0" vertex="1" parent="1">
          <mxGeometry x="1320" y="570" width="60" height="60" as="geometry" />
        </mxCell>
        <mxCell id="Qdgy6ZPI5KY39HfYruzL-544" value="" style="ellipse;whiteSpace=wrap;html=1;aspect=fixed;" vertex="1" parent="Qdgy6ZPI5KY39HfYruzL-543">
          <mxGeometry width="60" height="60" as="geometry" />
        </mxCell>
        <mxCell id="Qdgy6ZPI5KY39HfYruzL-545" value="" style="endArrow=none;html=1;rounded=0;entryX=0;entryY=0;entryDx=0;entryDy=0;exitX=1;exitY=1;exitDx=0;exitDy=0;" edge="1" parent="Qdgy6ZPI5KY39HfYruzL-543" source="Qdgy6ZPI5KY39HfYruzL-544" target="Qdgy6ZPI5KY39HfYruzL-544">
          <mxGeometry width="50" height="50" relative="1" as="geometry">
            <mxPoint x="105" y="-15" as="sourcePoint" />
            <mxPoint x="240" y="22.5" as="targetPoint" />
          </mxGeometry>
        </mxCell>
        <mxCell id="Qdgy6ZPI5KY39HfYruzL-546" value="" style="endArrow=none;html=1;rounded=0;entryX=1;entryY=0;entryDx=0;entryDy=0;exitX=0;exitY=1;exitDx=0;exitDy=0;" edge="1" parent="Qdgy6ZPI5KY39HfYruzL-543" source="Qdgy6ZPI5KY39HfYruzL-544" target="Qdgy6ZPI5KY39HfYruzL-544">
          <mxGeometry width="50" height="50" relative="1" as="geometry">
            <mxPoint x="165" y="45" as="sourcePoint" />
            <mxPoint x="202.5" y="7.5" as="targetPoint" />
          </mxGeometry>
        </mxCell>
        <mxCell id="Qdgy6ZPI5KY39HfYruzL-547" value="37" style="text;html=1;strokeColor=none;fillColor=none;align=center;verticalAlign=middle;whiteSpace=wrap;rounded=0;" vertex="1" parent="Qdgy6ZPI5KY39HfYruzL-543">
          <mxGeometry x="7.5" y="24.375" width="15" height="11.25" as="geometry" />
        </mxCell>
        <mxCell id="Qdgy6ZPI5KY39HfYruzL-548" value="36" style="text;html=1;strokeColor=none;fillColor=none;align=center;verticalAlign=middle;whiteSpace=wrap;rounded=0;" vertex="1" parent="Qdgy6ZPI5KY39HfYruzL-543">
          <mxGeometry x="22.5" y="7.5" width="15" height="11.25" as="geometry" />
        </mxCell>
        <mxCell id="Qdgy6ZPI5KY39HfYruzL-549" value="36" style="text;html=1;strokeColor=none;fillColor=none;align=center;verticalAlign=middle;whiteSpace=wrap;rounded=0;" vertex="1" parent="Qdgy6ZPI5KY39HfYruzL-543">
          <mxGeometry x="22.5" y="39.375" width="15" height="11.25" as="geometry" />
        </mxCell>
        <mxCell id="Qdgy6ZPI5KY39HfYruzL-550" value="0" style="text;html=1;strokeColor=none;fillColor=none;align=center;verticalAlign=middle;whiteSpace=wrap;rounded=0;" vertex="1" parent="Qdgy6ZPI5KY39HfYruzL-543">
          <mxGeometry x="37.5" y="24.375" width="15" height="11.25" as="geometry" />
        </mxCell>
        <mxCell id="Qdgy6ZPI5KY39HfYruzL-551" value="" style="group" connectable="0" vertex="1" parent="1">
          <mxGeometry x="1380" y="500" width="50" height="40" as="geometry" />
        </mxCell>
        <mxCell id="Qdgy6ZPI5KY39HfYruzL-552" value="" style="endArrow=classic;html=1;rounded=0;fillColor=#a20025;strokeColor=#6F0000;" edge="1" parent="Qdgy6ZPI5KY39HfYruzL-551">
          <mxGeometry width="50" height="50" relative="1" as="geometry">
            <mxPoint y="20" as="sourcePoint" />
            <mxPoint x="50" y="20" as="targetPoint" />
          </mxGeometry>
        </mxCell>
        <mxCell id="Qdgy6ZPI5KY39HfYruzL-553" value="D1" style="text;html=1;strokeColor=none;fillColor=none;align=center;verticalAlign=middle;whiteSpace=wrap;rounded=0;fontSize=9;" vertex="1" parent="Qdgy6ZPI5KY39HfYruzL-551">
          <mxGeometry x="12.499107142857143" y="10" width="14.285714285714283" height="10" as="geometry" />
        </mxCell>
        <mxCell id="Qdgy6ZPI5KY39HfYruzL-554" value="2" style="text;html=1;strokeColor=none;fillColor=none;align=center;verticalAlign=middle;whiteSpace=wrap;rounded=0;fontSize=9;" vertex="1" parent="Qdgy6ZPI5KY39HfYruzL-551">
          <mxGeometry x="12.499107142857143" y="20" width="14.285714285714283" height="10" as="geometry" />
        </mxCell>
        <mxCell id="Qdgy6ZPI5KY39HfYruzL-555" value="" style="group" connectable="0" vertex="1" parent="1">
          <mxGeometry x="1430" y="490" width="60" height="60" as="geometry" />
        </mxCell>
        <mxCell id="Qdgy6ZPI5KY39HfYruzL-556" value="" style="ellipse;whiteSpace=wrap;html=1;aspect=fixed;" vertex="1" parent="Qdgy6ZPI5KY39HfYruzL-555">
          <mxGeometry width="60" height="60" as="geometry" />
        </mxCell>
        <mxCell id="Qdgy6ZPI5KY39HfYruzL-557" value="" style="endArrow=none;html=1;rounded=0;entryX=0;entryY=0;entryDx=0;entryDy=0;exitX=1;exitY=1;exitDx=0;exitDy=0;" edge="1" parent="Qdgy6ZPI5KY39HfYruzL-555" source="Qdgy6ZPI5KY39HfYruzL-556" target="Qdgy6ZPI5KY39HfYruzL-556">
          <mxGeometry width="50" height="50" relative="1" as="geometry">
            <mxPoint x="105" y="-15" as="sourcePoint" />
            <mxPoint x="240" y="22.5" as="targetPoint" />
          </mxGeometry>
        </mxCell>
        <mxCell id="Qdgy6ZPI5KY39HfYruzL-558" value="" style="endArrow=none;html=1;rounded=0;entryX=1;entryY=0;entryDx=0;entryDy=0;exitX=0;exitY=1;exitDx=0;exitDy=0;" edge="1" parent="Qdgy6ZPI5KY39HfYruzL-555" source="Qdgy6ZPI5KY39HfYruzL-556" target="Qdgy6ZPI5KY39HfYruzL-556">
          <mxGeometry width="50" height="50" relative="1" as="geometry">
            <mxPoint x="165" y="45" as="sourcePoint" />
            <mxPoint x="202.5" y="7.5" as="targetPoint" />
          </mxGeometry>
        </mxCell>
        <mxCell id="Qdgy6ZPI5KY39HfYruzL-559" value="38" style="text;html=1;strokeColor=none;fillColor=none;align=center;verticalAlign=middle;whiteSpace=wrap;rounded=0;" vertex="1" parent="Qdgy6ZPI5KY39HfYruzL-555">
          <mxGeometry x="7.5" y="24.375" width="15" height="11.25" as="geometry" />
        </mxCell>
        <mxCell id="Qdgy6ZPI5KY39HfYruzL-560" value="38" style="text;html=1;strokeColor=none;fillColor=none;align=center;verticalAlign=middle;whiteSpace=wrap;rounded=0;" vertex="1" parent="Qdgy6ZPI5KY39HfYruzL-555">
          <mxGeometry x="22.5" y="7.5" width="15" height="11.25" as="geometry" />
        </mxCell>
        <mxCell id="Qdgy6ZPI5KY39HfYruzL-561" value="38" style="text;html=1;strokeColor=none;fillColor=none;align=center;verticalAlign=middle;whiteSpace=wrap;rounded=0;" vertex="1" parent="Qdgy6ZPI5KY39HfYruzL-555">
          <mxGeometry x="22.5" y="39.375" width="15" height="11.25" as="geometry" />
        </mxCell>
        <mxCell id="Qdgy6ZPI5KY39HfYruzL-562" value="0" style="text;html=1;strokeColor=none;fillColor=none;align=center;verticalAlign=middle;whiteSpace=wrap;rounded=0;" vertex="1" parent="Qdgy6ZPI5KY39HfYruzL-555">
          <mxGeometry x="37.5" y="24.375" width="15" height="11.25" as="geometry" />
        </mxCell>
        <mxCell id="Qdgy6ZPI5KY39HfYruzL-564" value="" style="group" connectable="0" vertex="1" parent="1">
          <mxGeometry x="1490" y="500" width="50" height="40" as="geometry" />
        </mxCell>
        <mxCell id="Qdgy6ZPI5KY39HfYruzL-565" value="" style="endArrow=classic;html=1;rounded=0;fillColor=#a20025;strokeColor=#6F0000;" edge="1" parent="Qdgy6ZPI5KY39HfYruzL-564">
          <mxGeometry width="50" height="50" relative="1" as="geometry">
            <mxPoint y="20" as="sourcePoint" />
            <mxPoint x="50" y="20" as="targetPoint" />
          </mxGeometry>
        </mxCell>
        <mxCell id="Qdgy6ZPI5KY39HfYruzL-566" value="D2" style="text;html=1;strokeColor=none;fillColor=none;align=center;verticalAlign=middle;whiteSpace=wrap;rounded=0;fontSize=9;" vertex="1" parent="Qdgy6ZPI5KY39HfYruzL-564">
          <mxGeometry x="12.499107142857143" y="10" width="14.285714285714283" height="10" as="geometry" />
        </mxCell>
        <mxCell id="Qdgy6ZPI5KY39HfYruzL-567" value="1" style="text;html=1;strokeColor=none;fillColor=none;align=center;verticalAlign=middle;whiteSpace=wrap;rounded=0;fontSize=9;" vertex="1" parent="Qdgy6ZPI5KY39HfYruzL-564">
          <mxGeometry x="12.499107142857143" y="20" width="14.285714285714283" height="10" as="geometry" />
        </mxCell>
        <mxCell id="Qdgy6ZPI5KY39HfYruzL-569" value="" style="group" connectable="0" vertex="1" parent="1">
          <mxGeometry x="1540" y="490" width="60" height="60" as="geometry" />
        </mxCell>
        <mxCell id="Qdgy6ZPI5KY39HfYruzL-570" value="" style="ellipse;whiteSpace=wrap;html=1;aspect=fixed;" vertex="1" parent="Qdgy6ZPI5KY39HfYruzL-569">
          <mxGeometry width="60" height="60" as="geometry" />
        </mxCell>
        <mxCell id="Qdgy6ZPI5KY39HfYruzL-571" value="" style="endArrow=none;html=1;rounded=0;entryX=0;entryY=0;entryDx=0;entryDy=0;exitX=1;exitY=1;exitDx=0;exitDy=0;" edge="1" parent="Qdgy6ZPI5KY39HfYruzL-569" source="Qdgy6ZPI5KY39HfYruzL-570" target="Qdgy6ZPI5KY39HfYruzL-570">
          <mxGeometry width="50" height="50" relative="1" as="geometry">
            <mxPoint x="105" y="-15" as="sourcePoint" />
            <mxPoint x="240" y="22.5" as="targetPoint" />
          </mxGeometry>
        </mxCell>
        <mxCell id="Qdgy6ZPI5KY39HfYruzL-572" value="" style="endArrow=none;html=1;rounded=0;entryX=1;entryY=0;entryDx=0;entryDy=0;exitX=0;exitY=1;exitDx=0;exitDy=0;" edge="1" parent="Qdgy6ZPI5KY39HfYruzL-569" source="Qdgy6ZPI5KY39HfYruzL-570" target="Qdgy6ZPI5KY39HfYruzL-570">
          <mxGeometry width="50" height="50" relative="1" as="geometry">
            <mxPoint x="165" y="45" as="sourcePoint" />
            <mxPoint x="202.5" y="7.5" as="targetPoint" />
          </mxGeometry>
        </mxCell>
        <mxCell id="Qdgy6ZPI5KY39HfYruzL-573" value="39" style="text;html=1;strokeColor=none;fillColor=none;align=center;verticalAlign=middle;whiteSpace=wrap;rounded=0;" vertex="1" parent="Qdgy6ZPI5KY39HfYruzL-569">
          <mxGeometry x="7.5" y="24.375" width="15" height="11.25" as="geometry" />
        </mxCell>
        <mxCell id="Qdgy6ZPI5KY39HfYruzL-574" value="39" style="text;html=1;strokeColor=none;fillColor=none;align=center;verticalAlign=middle;whiteSpace=wrap;rounded=0;" vertex="1" parent="Qdgy6ZPI5KY39HfYruzL-569">
          <mxGeometry x="22.5" y="7.5" width="15" height="11.25" as="geometry" />
        </mxCell>
        <mxCell id="Qdgy6ZPI5KY39HfYruzL-575" value="39" style="text;html=1;strokeColor=none;fillColor=none;align=center;verticalAlign=middle;whiteSpace=wrap;rounded=0;" vertex="1" parent="Qdgy6ZPI5KY39HfYruzL-569">
          <mxGeometry x="22.5" y="39.375" width="15" height="11.25" as="geometry" />
        </mxCell>
        <mxCell id="Qdgy6ZPI5KY39HfYruzL-576" value="0" style="text;html=1;strokeColor=none;fillColor=none;align=center;verticalAlign=middle;whiteSpace=wrap;rounded=0;" vertex="1" parent="Qdgy6ZPI5KY39HfYruzL-569">
          <mxGeometry x="37.5" y="24.375" width="15" height="11.25" as="geometry" />
        </mxCell>
        <mxCell id="Qdgy6ZPI5KY39HfYruzL-578" value="" style="group" connectable="0" vertex="1" parent="1">
          <mxGeometry x="1600" y="500" width="50" height="40" as="geometry" />
        </mxCell>
        <mxCell id="Qdgy6ZPI5KY39HfYruzL-579" value="" style="endArrow=classic;html=1;rounded=0;fillColor=#a20025;strokeColor=#6F0000;" edge="1" parent="Qdgy6ZPI5KY39HfYruzL-578">
          <mxGeometry width="50" height="50" relative="1" as="geometry">
            <mxPoint y="20" as="sourcePoint" />
            <mxPoint x="50" y="20" as="targetPoint" />
          </mxGeometry>
        </mxCell>
        <mxCell id="Qdgy6ZPI5KY39HfYruzL-580" value="D3" style="text;html=1;strokeColor=none;fillColor=none;align=center;verticalAlign=middle;whiteSpace=wrap;rounded=0;fontSize=9;" vertex="1" parent="Qdgy6ZPI5KY39HfYruzL-578">
          <mxGeometry x="12.499107142857143" y="10" width="14.285714285714283" height="10" as="geometry" />
        </mxCell>
        <mxCell id="Qdgy6ZPI5KY39HfYruzL-581" value="5" style="text;html=1;strokeColor=none;fillColor=none;align=center;verticalAlign=middle;whiteSpace=wrap;rounded=0;fontSize=9;" vertex="1" parent="Qdgy6ZPI5KY39HfYruzL-578">
          <mxGeometry x="12.499107142857143" y="20" width="14.285714285714283" height="10" as="geometry" />
        </mxCell>
        <mxCell id="Qdgy6ZPI5KY39HfYruzL-582" value="" style="group" connectable="0" vertex="1" parent="1">
          <mxGeometry x="1650" y="490" width="60" height="60" as="geometry" />
        </mxCell>
        <mxCell id="Qdgy6ZPI5KY39HfYruzL-583" value="" style="ellipse;whiteSpace=wrap;html=1;aspect=fixed;" vertex="1" parent="Qdgy6ZPI5KY39HfYruzL-582">
          <mxGeometry width="60" height="60" as="geometry" />
        </mxCell>
        <mxCell id="Qdgy6ZPI5KY39HfYruzL-584" value="" style="endArrow=none;html=1;rounded=0;entryX=0;entryY=0;entryDx=0;entryDy=0;exitX=1;exitY=1;exitDx=0;exitDy=0;" edge="1" parent="Qdgy6ZPI5KY39HfYruzL-582" source="Qdgy6ZPI5KY39HfYruzL-583" target="Qdgy6ZPI5KY39HfYruzL-583">
          <mxGeometry width="50" height="50" relative="1" as="geometry">
            <mxPoint x="105" y="-15" as="sourcePoint" />
            <mxPoint x="240" y="22.5" as="targetPoint" />
          </mxGeometry>
        </mxCell>
        <mxCell id="Qdgy6ZPI5KY39HfYruzL-585" value="" style="endArrow=none;html=1;rounded=0;entryX=1;entryY=0;entryDx=0;entryDy=0;exitX=0;exitY=1;exitDx=0;exitDy=0;" edge="1" parent="Qdgy6ZPI5KY39HfYruzL-582" source="Qdgy6ZPI5KY39HfYruzL-583" target="Qdgy6ZPI5KY39HfYruzL-583">
          <mxGeometry width="50" height="50" relative="1" as="geometry">
            <mxPoint x="165" y="45" as="sourcePoint" />
            <mxPoint x="202.5" y="7.5" as="targetPoint" />
          </mxGeometry>
        </mxCell>
        <mxCell id="Qdgy6ZPI5KY39HfYruzL-586" value="40" style="text;html=1;strokeColor=none;fillColor=none;align=center;verticalAlign=middle;whiteSpace=wrap;rounded=0;" vertex="1" parent="Qdgy6ZPI5KY39HfYruzL-582">
          <mxGeometry x="7.5" y="24.375" width="15" height="11.25" as="geometry" />
        </mxCell>
        <mxCell id="Qdgy6ZPI5KY39HfYruzL-587" value="44" style="text;html=1;strokeColor=none;fillColor=none;align=center;verticalAlign=middle;whiteSpace=wrap;rounded=0;" vertex="1" parent="Qdgy6ZPI5KY39HfYruzL-582">
          <mxGeometry x="22.5" y="7.5" width="15" height="11.25" as="geometry" />
        </mxCell>
        <mxCell id="Qdgy6ZPI5KY39HfYruzL-588" value="44" style="text;html=1;strokeColor=none;fillColor=none;align=center;verticalAlign=middle;whiteSpace=wrap;rounded=0;" vertex="1" parent="Qdgy6ZPI5KY39HfYruzL-582">
          <mxGeometry x="22.5" y="39.375" width="15" height="11.25" as="geometry" />
        </mxCell>
        <mxCell id="Qdgy6ZPI5KY39HfYruzL-589" value="0" style="text;html=1;strokeColor=none;fillColor=none;align=center;verticalAlign=middle;whiteSpace=wrap;rounded=0;" vertex="1" parent="Qdgy6ZPI5KY39HfYruzL-582">
          <mxGeometry x="37.5" y="24.375" width="15" height="11.25" as="geometry" />
        </mxCell>
        <mxCell id="Qdgy6ZPI5KY39HfYruzL-591" value="" style="endArrow=block;dashed=1;endFill=0;endSize=12;html=1;rounded=0;entryX=0;entryY=1;entryDx=0;entryDy=0;exitX=1;exitY=0.5;exitDx=0;exitDy=0;" edge="1" parent="1" source="Qdgy6ZPI5KY39HfYruzL-317" target="Qdgy6ZPI5KY39HfYruzL-410">
          <mxGeometry width="160" relative="1" as="geometry">
            <mxPoint x="920" y="740" as="sourcePoint" />
            <mxPoint x="920" y="560" as="targetPoint" />
          </mxGeometry>
        </mxCell>
        <mxCell id="Qdgy6ZPI5KY39HfYruzL-592" value="" style="endArrow=block;dashed=1;endFill=0;endSize=12;html=1;rounded=0;exitX=1;exitY=0.5;exitDx=0;exitDy=0;entryX=0;entryY=1;entryDx=0;entryDy=0;" edge="1" parent="1" source="Qdgy6ZPI5KY39HfYruzL-325" target="Qdgy6ZPI5KY39HfYruzL-410">
          <mxGeometry width="160" relative="1" as="geometry">
            <mxPoint x="930" y="750" as="sourcePoint" />
            <mxPoint x="870" y="570" as="targetPoint" />
          </mxGeometry>
        </mxCell>
        <mxCell id="Qdgy6ZPI5KY39HfYruzL-593" value="" style="endArrow=block;dashed=1;endFill=0;endSize=12;html=1;rounded=0;entryX=0.5;entryY=0;entryDx=0;entryDy=0;exitX=0.5;exitY=1;exitDx=0;exitDy=0;" edge="1" parent="1" source="Qdgy6ZPI5KY39HfYruzL-59" target="Qdgy6ZPI5KY39HfYruzL-27">
          <mxGeometry width="160" relative="1" as="geometry">
            <mxPoint x="620" y="610" as="sourcePoint" />
            <mxPoint x="899" y="551" as="targetPoint" />
          </mxGeometry>
        </mxCell>
        <mxCell id="Qdgy6ZPI5KY39HfYruzL-599" value="" style="endArrow=block;dashed=1;endFill=0;endSize=12;html=1;rounded=0;exitX=1;exitY=0.5;exitDx=0;exitDy=0;entryX=1;entryY=1;entryDx=0;entryDy=0;" edge="1" parent="1" source="Qdgy6ZPI5KY39HfYruzL-47" target="Qdgy6ZPI5KY39HfYruzL-536">
          <mxGeometry width="160" relative="1" as="geometry">
            <mxPoint x="221" y="869" as="sourcePoint" />
            <mxPoint x="1130" y="590" as="targetPoint" />
            <Array as="points">
              <mxPoint x="1490" y="860" />
            </Array>
          </mxGeometry>
        </mxCell>
        <mxCell id="N3xJOBLZzGneo1JbHQnI-1" value="" style="group" connectable="0" vertex="1" parent="1">
          <mxGeometry x="300" y="890" width="60" height="40" as="geometry" />
        </mxCell>
        <mxCell id="N3xJOBLZzGneo1JbHQnI-2" value="" style="endArrow=classic;html=1;rounded=0;fillColor=#a20025;strokeColor=#6F0000;" edge="1" parent="N3xJOBLZzGneo1JbHQnI-1">
          <mxGeometry width="50" height="50" relative="1" as="geometry">
            <mxPoint y="20" as="sourcePoint" />
            <mxPoint x="60" y="20" as="targetPoint" />
          </mxGeometry>
        </mxCell>
        <mxCell id="N3xJOBLZzGneo1JbHQnI-5" value="" style="endArrow=block;dashed=1;endFill=0;endSize=12;html=1;rounded=0;fillColor=#a20025;strokeColor=#6F0000;" edge="1" parent="1">
          <mxGeometry width="160" relative="1" as="geometry">
            <mxPoint x="300" y="930" as="sourcePoint" />
            <mxPoint x="360" y="930" as="targetPoint" />
          </mxGeometry>
        </mxCell>
        <mxCell id="N3xJOBLZzGneo1JbHQnI-6" value="chemin critique" style="text;html=1;strokeColor=none;fillColor=none;align=center;verticalAlign=middle;whiteSpace=wrap;rounded=0;" vertex="1" parent="1">
          <mxGeometry x="380" y="910" width="100" height="30" as="geometry" />
        </mxCell>
        <mxCell id="N3xJOBLZzGneo1JbHQnI-7" value="Durée total du projet : 44 jours" style="text;html=1;strokeColor=none;fillColor=none;align=center;verticalAlign=middle;whiteSpace=wrap;rounded=0;" vertex="1" parent="1">
          <mxGeometry x="540" y="910" width="250" height="30" as="geometry" />
        </mxCell>
      </root>
    </mxGraphModel>
  </diagram>
</mxfile>
